{"glyphs":{"0":{"ha":868,"x_min":0,"x_max":0,"o":"m 444 86 b 681 426 647 86 681 117 l 681 518 b 444 858 681 828 647 858 l 424 858 b 188 518 219 858 188 828 l 188 426 b 424 86 188 117 219 86 m 421 -8 b 78 432 135 -8 78 53 l 78 514 b 421 953 78 892 135 953 l 447 953 b 790 514 733 953 790 892 l 790 432 b 447 -8 790 53 733 -8 "},"1":{"ha":569,"x_min":0,"x_max":0,"o":"m 410 0 l 297 0 l 297 838 l 294 838 l 83 621 l 19 690 l 272 944 l 410 944 "},"2":{"ha":843,"x_min":0,"x_max":0,"o":"m 771 0 l 83 0 b 82 126 82 18 82 111 b 413 463 82 376 124 421 b 656 669 621 493 656 521 l 656 694 b 438 864 656 833 624 864 l 418 864 b 201 665 226 864 201 836 l 201 638 l 96 638 l 96 663 b 415 953 96 900 143 953 l 433 953 b 768 697 708 953 768 901 l 768 671 b 457 376 768 460 703 413 b 193 144 211 339 193 321 l 193 90 l 771 90 "},"3":{"ha":854,"x_min":0,"x_max":0,"o":"m 782 243 b 426 -8 782 42 717 -8 l 399 -8 b 81 274 124 -8 81 38 l 81 306 l 186 306 l 186 272 b 401 83 186 106 210 83 l 425 83 b 669 251 636 83 669 107 l 669 279 b 510 438 669 408 636 438 l 328 438 l 328 525 l 501 525 b 653 672 622 525 653 553 l 653 700 b 426 863 653 833 622 863 l 408 863 b 196 674 226 863 196 842 l 196 640 l 92 640 l 92 674 b 406 953 92 903 139 953 l 428 953 b 764 707 706 953 764 906 l 764 682 b 649 485 764 547 735 507 l 649 482 b 782 272 736 464 782 426 "},"4":{"ha":867,"x_min":0,"x_max":0,"o":"m 689 0 l 582 0 l 582 218 l 64 218 l 64 336 l 533 944 l 689 944 l 689 307 l 803 307 l 803 218 l 689 218 m 582 307 l 582 856 l 578 856 l 163 311 l 163 307 "},"5":{"ha":854,"x_min":0,"x_max":0,"o":"m 407 -8 b 85 261 131 -8 85 36 l 85 283 l 189 283 l 189 264 b 415 83 189 104 219 83 l 439 83 b 672 288 646 83 672 117 l 672 317 b 449 529 672 499 649 529 l 421 529 b 203 446 268 529 225 517 l 99 446 l 99 944 l 760 944 l 760 856 l 203 856 l 203 543 l 204 543 b 451 621 233 600 288 621 l 482 621 b 785 335 733 621 785 565 l 785 286 b 438 -8 785 50 728 -8 "},"6":{"ha":854,"x_min":0,"x_max":0,"o":"m 415 -8 b 81 339 124 -8 81 46 l 81 515 b 428 953 81 906 136 953 l 453 953 b 763 692 714 953 763 908 l 763 665 l 658 665 l 658 689 b 450 861 658 838 629 861 l 431 861 b 192 549 222 861 192 836 l 192 469 l 193 469 b 435 561 222 532 282 561 l 458 561 b 781 294 722 561 781 519 l 781 260 b 442 -8 781 44 722 -8 m 439 83 b 672 264 644 83 672 111 l 672 288 b 439 472 672 444 642 472 l 421 472 b 190 319 246 472 190 446 l 190 299 b 421 83 190 110 221 83 "},"7":{"ha":801,"x_min":0,"x_max":0,"o":"m 303 0 l 178 0 l 624 847 l 624 851 l 53 851 l 53 944 l 749 944 l 749 857 "},"8":{"ha":856,"x_min":0,"x_max":0,"o":"m 438 533 b 658 689 638 533 658 554 l 658 713 b 439 865 658 839 629 865 l 417 865 b 196 713 226 865 196 839 l 196 689 b 417 533 196 556 219 533 m 438 82 b 669 249 643 82 669 106 l 669 275 b 438 444 669 422 633 444 l 417 444 b 186 275 222 444 186 422 l 186 249 b 417 82 186 106 213 82 m 415 -8 b 76 232 133 -8 76 39 l 76 253 b 228 488 76 428 124 474 l 228 490 b 89 703 125 506 89 547 l 89 725 b 414 953 89 906 150 953 l 442 953 b 767 725 708 953 767 906 l 767 703 b 625 490 767 547 731 507 l 625 488 b 779 253 731 474 779 428 l 779 232 b 442 -8 779 39 722 -8 "},"9":{"ha":854,"x_min":0,"x_max":0,"o":"m 400 -8 b 83 253 139 -8 83 40 l 83 279 l 188 279 l 188 256 b 403 83 188 111 224 83 l 421 83 b 663 396 631 83 663 108 l 663 475 l 661 475 b 419 383 632 413 572 383 l 396 383 b 74 650 133 383 74 426 l 74 685 b 413 953 74 900 132 953 l 439 953 b 774 606 729 953 774 897 l 774 429 b 424 -8 774 39 718 -8 m 433 472 b 664 628 610 472 664 500 l 664 649 b 433 863 664 836 635 863 l 417 863 b 182 682 211 863 182 835 l 182 660 b 417 472 182 500 213 472 "},"\r":{"ha":0,"x_min":0,"x_max":0,"o":""}," ":{"ha":343,"x_min":0,"x_max":0,"o":""},"!":{"ha":331,"x_min":0,"x_max":0,"o":"m 214 257 l 117 257 l 110 944 l 221 944 m 222 0 l 108 0 l 108 147 l 222 147 "},"\"":{"ha":468,"x_min":0,"x_max":0,"o":"m 172 643 l 92 643 l 92 983 l 172 983 m 375 643 l 294 643 l 294 983 l 375 983 "},"#":{"ha":851,"x_min":0,"x_max":0,"o":"m 529 0 l 446 0 l 496 289 l 292 289 l 243 0 l 160 0 l 208 289 l 69 289 l 69 365 l 222 365 l 267 626 l 114 626 l 114 701 l 279 701 l 321 944 l 404 944 l 363 701 l 567 701 l 608 944 l 690 944 l 649 701 l 801 701 l 801 626 l 636 626 l 592 365 l 757 365 l 757 289 l 578 289 m 508 365 l 553 626 l 350 626 l 304 365 "},"$":{"ha":871,"x_min":0,"x_max":0,"o":"m 469 -112 l 414 -112 l 414 -8 b 88 253 128 -7 88 36 l 88 296 l 194 296 l 194 263 b 414 83 194 108 219 85 l 414 439 b 99 682 153 461 99 508 l 99 704 b 414 953 99 899 169 953 l 414 1042 l 469 1042 l 469 953 b 774 693 725 949 774 896 l 774 663 l 668 663 l 668 689 b 469 864 668 831 635 861 l 469 531 b 796 279 742 506 796 458 l 796 257 b 469 -8 796 42 733 -7 m 469 83 b 689 251 654 85 689 108 l 689 275 b 469 431 689 388 661 415 m 206 682 b 414 538 206 582 229 551 l 414 864 b 206 703 240 863 206 833 "},"%":{"ha":997,"x_min":0,"x_max":0,"o":"m 244 522 b 83 719 117 522 83 556 l 83 749 b 244 946 83 913 117 946 l 258 946 b 419 749 388 946 419 913 l 419 719 b 258 522 419 556 388 522 m 258 579 b 344 717 331 579 344 594 l 344 751 b 258 890 344 874 331 890 l 246 890 b 158 751 172 890 158 874 l 158 717 b 246 579 158 594 172 579 m 350 0 l 279 0 l 640 944 l 711 944 m 738 -1 b 576 196 610 -1 576 32 l 576 225 b 738 422 576 389 610 422 l 751 422 b 913 225 881 422 913 389 l 913 196 b 751 -1 913 32 881 -1 m 751 56 b 838 193 824 56 838 71 l 838 228 b 751 367 838 350 824 367 l 739 367 b 651 228 665 367 651 350 l 651 193 b 739 56 651 71 665 56 "},"&":{"ha":985,"x_min":0,"x_max":0,"o":"m 817 371 b 810 182 817 299 815 228 l 949 68 l 892 -3 l 782 88 b 458 -8 746 22 689 -8 l 435 -8 b 85 276 131 -8 85 42 l 85 299 b 231 546 85 461 114 532 b 154 728 179 593 154 633 l 154 751 b 446 953 154 914 219 953 l 469 953 b 754 717 717 953 754 911 l 754 682 l 653 682 l 653 719 b 471 868 653 847 635 868 l 449 868 b 265 740 288 868 265 849 l 265 724 b 360 553 265 649 278 619 l 722 254 l 722 478 l 817 478 m 458 81 b 704 151 631 81 678 97 l 293 489 b 192 306 204 481 192 433 l 192 288 b 440 81 192 106 222 81 "},"'":{"ha":264,"x_min":0,"x_max":0,"o":"m 172 643 l 92 643 l 92 983 l 172 983 "},"(":{"ha":415,"x_min":0,"x_max":0,"o":"m 342 -11 l 322 -11 b 78 458 126 -11 78 21 l 78 486 b 322 956 78 924 126 956 l 342 956 l 342 869 l 325 869 b 182 481 206 869 182 847 l 182 464 b 325 75 182 97 206 75 l 342 75 "},")":{"ha":415,"x_min":0,"x_max":0,"o":"m 72 -11 l 72 75 l 89 75 b 232 464 208 75 232 97 l 232 482 b 89 869 232 847 208 869 l 72 869 l 72 956 l 90 956 b 336 488 288 956 336 924 l 336 458 b 90 -11 336 22 288 -11 "},"*":{"ha":589,"x_min":0,"x_max":0,"o":"m 333 960 l 324 785 l 265 785 l 256 960 m 519 804 l 372 731 l 347 774 l 485 865 m 485 567 l 347 658 l 372 701 l 519 628 m 256 472 l 265 647 l 324 647 l 333 472 m 69 628 l 217 701 l 242 658 l 104 567 m 104 865 l 242 774 l 217 731 l 69 804 "},"+":{"ha":732,"x_min":0,"x_max":0,"o":"m 410 126 l 321 126 l 321 382 l 82 382 l 82 465 l 321 465 l 321 715 l 410 715 l 410 465 l 650 465 l 650 382 l 410 382 "},",":{"ha":281,"x_min":0,"x_max":0,"o":"m 197 -29 b 60 -171 197 -140 163 -171 l 60 -110 b 122 -37 108 -110 122 -93 l 122 0 l 83 0 l 83 147 l 197 147 "},"-":{"ha":519,"x_min":0,"x_max":0,"o":"m 436 300 l 83 300 l 83 396 l 436 396 "},".":{"ha":281,"x_min":0,"x_max":0,"o":"m 197 0 l 83 0 l 83 147 l 197 147 "},"/":{"ha":576,"x_min":0,"x_max":0,"o":"m 149 -11 l 63 -11 l 429 956 l 515 956 "},":":{"ha":294,"x_min":0,"x_max":0,"o":"m 204 519 l 90 519 l 90 667 l 204 667 m 204 0 l 90 0 l 90 147 l 204 147 "},";":{"ha":294,"x_min":0,"x_max":0,"o":"m 204 519 l 90 519 l 90 667 l 204 667 m 204 -29 b 67 -171 204 -140 169 -171 l 67 -110 b 129 -37 115 -110 129 -93 l 129 0 l 90 0 l 90 147 l 204 147 "},"<":{"ha":732,"x_min":0,"x_max":0,"o":"m 650 131 l 82 378 l 82 464 l 650 711 l 650 621 l 183 421 l 183 419 l 650 221 "},"=":{"ha":732,"x_min":0,"x_max":0,"o":"m 650 503 l 82 503 l 82 586 l 650 586 m 650 250 l 82 250 l 82 335 l 650 335 "},">":{"ha":732,"x_min":0,"x_max":0,"o":"m 650 378 l 82 131 l 82 221 l 549 419 l 549 421 l 82 621 l 82 711 l 650 464 "},"?":{"ha":744,"x_min":0,"x_max":0,"o":"m 388 288 l 288 288 l 288 318 b 424 489 288 424 314 461 b 582 679 563 524 582 546 l 582 697 b 392 867 582 838 554 867 l 372 867 b 169 674 197 867 169 843 l 169 640 l 71 640 l 71 681 b 372 953 71 910 129 953 l 393 953 b 683 706 633 953 683 896 l 683 682 b 492 417 683 510 644 450 b 388 311 404 397 388 378 m 394 0 l 281 0 l 281 147 l 394 147 "},"@":{"ha":1136,"x_min":0,"x_max":0,"o":"m 581 169 b 724 369 699 169 724 199 l 724 392 b 579 592 724 549 693 592 l 560 592 b 417 392 439 592 417 568 l 417 369 b 560 169 417 193 446 169 m 1014 10 b 597 -150 1014 -114 939 -150 l 547 -150 b 86 310 157 -150 86 -108 l 86 413 b 539 875 86 825 158 875 l 586 875 b 1047 417 989 875 1047 833 l 1047 347 b 875 96 1047 129 1010 96 b 731 188 781 96 747 117 l 726 188 b 557 88 707 119 669 88 l 535 88 b 328 363 375 88 328 131 l 328 394 b 535 668 328 624 372 668 l 556 668 b 726 565 664 668 700 647 l 729 565 l 729 657 l 806 657 l 806 267 b 882 164 806 179 824 164 b 974 344 963 164 974 176 l 974 411 b 588 814 974 788 939 814 l 539 814 b 160 397 203 814 160 779 l 160 325 b 547 -86 160 -54 204 -86 l 596 -86 b 932 11 896 -86 932 -60 l 932 24 l 1014 24 "},"A":{"ha":878,"x_min":0,"x_max":0,"o":"m 861 0 l 740 0 l 667 214 l 211 214 l 136 0 l 17 0 l 360 944 l 525 944 m 638 303 l 446 860 l 438 860 l 238 303 "},"B":{"ha":879,"x_min":0,"x_max":0,"o":"m 96 0 l 96 944 l 508 944 b 792 707 725 944 792 901 b 664 494 792 563 754 511 l 664 490 b 818 256 774 474 818 417 b 535 0 818 50 747 0 m 515 90 b 706 267 672 90 706 122 b 550 446 706 413 658 446 l 208 446 l 208 90 m 543 531 b 682 694 643 531 682 556 b 501 857 682 832 643 857 l 208 857 l 208 531 "},"C":{"ha":904,"x_min":0,"x_max":0,"o":"m 450 -8 b 72 433 135 -8 72 71 l 72 513 b 449 953 72 872 143 953 l 474 953 b 824 683 750 953 824 892 l 824 654 l 714 654 l 714 676 b 474 860 714 822 672 860 l 451 860 b 188 513 231 860 188 817 l 188 435 b 454 88 188 128 229 88 l 475 88 b 719 274 678 88 719 121 l 719 294 l 831 294 l 831 264 b 476 -8 831 49 749 -8 "},"D":{"ha":954,"x_min":0,"x_max":0,"o":"m 876 429 b 475 0 876 61 815 0 l 96 0 l 96 944 l 475 944 b 876 517 807 944 876 890 m 471 93 b 761 436 722 93 761 131 l 761 513 b 471 853 761 818 717 853 l 211 853 l 211 93 "},"E":{"ha":757,"x_min":0,"x_max":0,"o":"m 711 0 l 96 0 l 96 944 l 707 944 l 707 853 l 211 853 l 211 533 l 679 533 l 679 444 l 211 444 l 211 93 l 711 93 "},"F":{"ha":725,"x_min":0,"x_max":0,"o":"m 211 0 l 96 0 l 96 944 l 694 944 l 694 850 l 211 850 l 211 506 l 668 506 l 668 415 l 211 415 "},"G":{"ha":907,"x_min":0,"x_max":0,"o":"m 451 -8 b 75 433 146 -8 75 71 l 75 514 b 453 953 75 885 157 953 l 478 953 b 828 689 754 953 828 889 l 828 667 l 717 667 l 717 686 b 476 860 717 826 675 860 l 456 860 b 190 513 233 860 190 819 l 190 433 b 456 88 190 133 236 88 l 476 88 b 725 297 679 88 725 119 l 725 382 l 431 382 l 431 468 l 836 468 l 836 310 b 476 -8 836 60 763 -8 "},"H":{"ha":939,"x_min":0,"x_max":0,"o":"m 843 0 l 728 0 l 728 440 l 211 440 l 211 0 l 96 0 l 96 944 l 211 944 l 211 542 l 728 542 l 728 944 l 843 944 "},"I":{"ha":307,"x_min":0,"x_max":0,"o":"m 211 0 l 96 0 l 96 944 l 211 944 "},"J":{"ha":726,"x_min":0,"x_max":0,"o":"m 307 -8 b 33 282 76 -8 33 35 l 33 319 l 139 319 l 139 290 b 311 88 139 110 161 88 l 332 88 b 522 313 501 88 522 111 l 522 944 l 638 944 l 638 319 b 333 -8 638 42 592 -8 "},"K":{"ha":864,"x_min":0,"x_max":0,"o":"m 851 0 l 701 0 l 311 438 l 210 438 l 210 0 l 96 0 l 96 944 l 210 944 l 210 526 l 315 526 l 686 944 l 825 944 l 407 485 "},"L":{"ha":681,"x_min":0,"x_max":0,"o":"m 664 0 l 96 0 l 96 944 l 211 944 l 211 94 l 664 94 "},"M":{"ha":1208,"x_min":0,"x_max":0,"o":"m 1113 0 l 1003 0 l 1006 850 l 1001 850 l 664 0 l 547 0 l 207 850 l 203 850 l 206 0 l 96 0 l 96 944 l 278 944 l 606 115 l 610 115 l 935 944 l 1113 944 "},"N":{"ha":981,"x_min":0,"x_max":0,"o":"m 885 0 l 710 0 l 208 846 l 203 846 l 204 0 l 96 0 l 96 944 l 274 944 l 774 101 l 778 101 l 775 944 l 885 944 "},"O":{"ha":943,"x_min":0,"x_max":0,"o":"m 74 513 b 458 953 74 875 147 953 l 485 953 b 869 513 796 953 869 875 l 869 432 b 485 -8 869 69 796 -8 l 458 -8 b 74 432 147 -8 74 69 m 189 433 b 460 88 189 131 232 88 l 485 88 b 754 433 711 88 754 131 l 754 513 b 485 860 754 815 711 860 l 460 860 b 189 513 232 860 189 815 "},"P":{"ha":853,"x_min":0,"x_max":0,"o":"m 456 446 b 688 629 661 446 688 476 l 688 669 b 454 853 688 826 660 853 l 210 853 l 210 446 m 210 0 l 96 0 l 96 944 l 467 944 b 800 667 742 944 800 900 l 800 632 b 471 353 800 399 732 353 l 210 353 "},"Q":{"ha":949,"x_min":0,"x_max":0,"o":"m 74 513 b 458 953 74 875 147 953 l 485 953 b 869 513 796 953 869 875 l 869 432 b 829 132 869 296 858 199 l 917 58 l 857 -14 l 772 57 b 485 -8 714 7 622 -8 l 458 -8 b 74 432 147 -8 74 69 m 189 433 b 460 88 189 131 232 88 l 485 88 b 688 128 583 88 646 96 l 469 313 l 531 385 l 736 210 b 756 433 751 261 756 333 l 756 513 b 485 860 756 815 713 860 l 460 860 b 189 513 232 860 189 815 "},"R":{"ha":883,"x_min":0,"x_max":0,"o":"m 519 461 b 683 635 646 461 683 503 l 683 669 b 475 853 683 824 651 853 l 210 853 l 210 461 m 799 0 l 683 0 l 683 128 b 482 371 683 344 664 371 l 210 371 l 210 0 l 96 0 l 96 944 l 499 944 b 799 683 746 944 799 888 l 799 651 b 667 425 799 496 757 443 l 667 422 b 799 169 772 403 799 354 "},"S":{"ha":860,"x_min":0,"x_max":0,"o":"m 788 258 b 465 -8 788 46 719 -8 l 433 -8 b 76 257 126 -8 76 38 l 76 296 l 185 296 l 185 263 b 426 83 185 115 219 83 l 453 83 b 674 254 638 83 674 111 l 674 274 b 415 436 674 390 650 418 b 86 685 143 457 86 513 l 86 707 b 400 953 86 890 151 953 l 428 953 b 765 693 713 953 765 896 l 765 663 l 656 663 l 656 688 b 433 863 656 828 624 863 l 410 863 b 199 706 233 863 199 833 l 199 686 b 453 533 199 581 228 551 b 788 281 733 511 788 457 "},"T":{"ha":749,"x_min":0,"x_max":0,"o":"m 432 0 l 317 0 l 317 851 l 17 851 l 17 944 l 732 944 l 732 851 l 432 851 "},"U":{"ha":926,"x_min":0,"x_max":0,"o":"m 451 -8 b 89 307 154 -8 89 39 l 89 944 l 204 944 l 204 317 b 449 88 204 113 246 88 l 475 88 b 722 317 678 88 722 113 l 722 944 l 838 944 l 838 307 b 472 -8 838 39 769 -8 "},"V":{"ha":854,"x_min":0,"x_max":0,"o":"m 506 0 l 350 0 l 17 944 l 138 944 l 428 94 l 432 94 l 719 944 l 838 944 "},"W":{"ha":1300,"x_min":0,"x_max":0,"o":"m 1019 0 l 871 0 l 653 839 l 650 839 l 429 0 l 282 0 l 31 944 l 146 944 l 358 94 l 363 94 l 585 944 l 719 944 l 942 94 l 946 94 l 1156 944 l 1269 944 "},"X":{"ha":871,"x_min":0,"x_max":0,"o":"m 847 0 l 713 0 l 435 438 l 154 0 l 24 0 l 347 493 l 54 944 l 186 944 l 438 547 l 690 944 l 818 944 l 524 493 "},"Y":{"ha":839,"x_min":0,"x_max":0,"o":"m 476 0 l 361 0 l 361 332 l 14 944 l 139 944 l 419 436 l 422 436 l 699 944 l 825 944 l 476 332 "},"Z":{"ha":813,"x_min":0,"x_max":0,"o":"m 760 0 l 54 0 l 54 93 l 622 854 l 622 856 l 75 856 l 75 944 l 754 944 l 754 850 l 189 93 l 189 90 l 760 90 "},"[":{"ha":419,"x_min":0,"x_max":0,"o":"m 344 -11 l 99 -11 l 99 956 l 344 956 l 344 868 l 201 868 l 201 76 l 344 76 "},"\\":{"ha":617,"x_min":0,"x_max":0,"o":"m 515 -11 l 429 -11 l 63 956 l 149 956 "},"]":{"ha":419,"x_min":0,"x_max":0,"o":"m 319 -11 l 74 -11 l 74 76 l 217 76 l 217 868 l 74 868 l 74 956 l 319 956 "},"^":{"ha":758,"x_min":0,"x_max":0,"o":"m 692 419 l 594 419 l 381 851 l 378 851 l 163 419 l 67 419 l 336 944 l 421 944 "},"_":{"ha":546,"x_min":0,"x_max":0,"o":"m 546 -178 l 0 -178 l 0 -118 l 546 -118 "},"`":{"ha":531,"x_min":0,"x_max":0,"o":"m 344 761 l 125 915 l 178 983 l 376 801 "},"a":{"ha":699,"x_min":0,"x_max":0,"o":"m 617 0 l 515 0 l 515 75 l 513 75 b 314 -8 482 15 431 -8 l 299 -8 b 67 192 115 -8 67 35 l 67 211 b 294 407 67 363 126 407 l 308 407 b 511 343 432 407 483 390 l 514 343 l 514 386 b 350 594 514 572 499 594 l 335 594 b 185 486 211 594 185 572 l 185 472 l 86 472 l 86 486 b 339 675 86 642 147 675 l 358 675 b 617 372 583 675 617 635 m 346 72 b 515 194 475 72 515 94 l 515 208 b 338 331 515 315 481 331 l 325 331 b 168 208 194 331 168 308 l 168 196 b 333 72 168 94 194 72 "},"b":{"ha":743,"x_min":0,"x_max":0,"o":"m 411 -8 b 197 96 286 -8 228 17 l 194 96 l 194 0 l 90 0 l 90 944 l 197 944 l 197 576 l 200 576 b 408 675 228 650 288 675 l 426 675 b 676 353 617 675 676 613 l 676 318 b 425 -8 676 57 617 -8 m 394 78 b 569 315 535 78 569 115 l 569 354 b 394 592 569 553 535 592 l 375 592 b 194 374 233 592 194 556 l 194 296 b 375 78 194 121 231 78 "},"c":{"ha":701,"x_min":0,"x_max":0,"o":"m 349 -8 b 67 311 128 -8 67 53 l 67 357 b 350 675 67 618 135 675 l 374 675 b 633 453 578 675 633 622 l 633 433 l 533 433 l 533 447 b 372 592 533 563 501 592 l 353 592 b 174 357 207 592 174 557 l 174 311 b 354 78 174 114 208 78 l 375 78 b 536 225 506 78 536 108 l 536 240 l 638 240 l 638 222 b 371 -8 638 46 575 -8 "},"d":{"ha":742,"x_min":0,"x_max":0,"o":"m 651 0 l 549 0 l 549 96 l 546 96 b 333 -8 514 18 456 -8 l 318 -8 b 67 318 124 -8 67 61 l 67 353 b 315 675 67 614 129 675 l 335 675 b 543 576 454 675 514 649 l 544 576 l 544 944 l 651 944 m 367 78 b 549 296 511 78 549 114 l 549 374 b 367 592 549 549 511 592 l 349 592 b 174 354 210 592 174 554 l 174 315 b 349 78 174 118 210 78 "},"e":{"ha":703,"x_min":0,"x_max":0,"o":"m 346 -8 b 67 311 121 -8 67 50 l 67 354 b 342 675 67 619 128 675 l 364 675 b 632 399 578 675 632 618 l 632 319 l 171 319 l 171 296 b 351 76 171 111 200 76 l 369 76 b 536 213 506 76 536 103 l 536 225 l 636 225 l 636 210 b 371 -8 636 42 565 -8 m 531 392 l 531 415 b 363 594 531 561 507 594 l 347 594 b 169 392 199 594 172 565 "},"f":{"ha":367,"x_min":0,"x_max":0,"o":"m 213 0 l 106 0 l 106 588 l 21 588 l 21 667 l 106 667 l 106 728 b 303 951 106 903 157 951 b 397 946 335 951 367 950 l 397 867 b 328 871 375 869 350 871 b 213 722 235 871 213 849 l 213 667 l 368 667 l 368 588 l 213 588 "},"g":{"ha":738,"x_min":0,"x_max":0,"o":"m 336 -244 b 79 -47 135 -244 79 -208 l 79 -31 l 179 -31 l 179 -43 b 336 -160 179 -137 203 -160 l 360 -160 b 543 39 525 -160 543 -142 l 543 133 l 540 133 b 326 33 511 63 457 33 l 311 33 b 67 333 129 33 67 94 l 67 364 b 311 675 67 611 129 675 l 328 675 b 543 575 451 675 510 650 l 544 575 l 544 667 l 649 667 l 649 46 b 360 -244 649 -204 594 -244 m 361 117 b 544 333 513 117 544 157 l 544 365 b 363 592 544 551 511 592 l 343 592 b 172 365 207 592 172 551 l 172 333 b 343 117 172 157 210 117 "},"h":{"ha":749,"x_min":0,"x_max":0,"o":"m 663 0 l 556 0 l 556 393 b 393 589 556 560 533 589 l 379 589 b 197 393 251 589 197 553 l 197 0 l 90 0 l 90 944 l 197 944 l 197 560 l 199 560 b 415 675 228 635 279 675 l 428 675 b 663 419 614 675 663 626 "},"i":{"ha":288,"x_min":0,"x_max":0,"o":"m 197 0 l 90 0 l 90 667 l 197 667 m 197 822 l 90 822 l 90 944 l 197 944 "},"j":{"ha":286,"x_min":0,"x_max":0,"o":"m 197 -62 b 56 -240 197 -200 156 -240 b 6 -236 40 -240 24 -240 l 6 -151 b 35 -153 19 -153 28 -153 b 90 -50 78 -153 90 -142 l 90 667 l 197 667 m 197 822 l 90 822 l 90 944 l 197 944 "},"k":{"ha":651,"x_min":0,"x_max":0,"o":"m 639 0 l 511 0 l 233 322 l 197 322 l 197 0 l 90 0 l 90 944 l 197 944 l 197 390 l 239 390 l 482 667 l 608 667 l 322 357 "},"l":{"ha":288,"x_min":0,"x_max":0,"o":"m 197 0 l 90 0 l 90 944 l 197 944 "},"m":{"ha":1147,"x_min":0,"x_max":0,"o":"m 1063 0 l 956 0 l 956 393 b 807 589 956 561 932 589 l 794 589 b 631 393 685 589 631 554 l 631 0 l 524 0 l 524 393 b 378 589 524 563 494 589 l 364 589 b 197 393 249 589 197 550 l 197 0 l 90 0 l 90 667 l 196 667 l 196 560 l 197 560 b 399 675 222 632 282 675 l 413 675 b 617 549 550 675 599 635 l 618 549 b 829 675 644 628 710 675 l 843 675 b 1063 422 1018 675 1063 621 "},"n":{"ha":749,"x_min":0,"x_max":0,"o":"m 663 0 l 556 0 l 556 392 b 393 589 556 558 533 589 l 379 589 b 197 392 253 589 197 551 l 197 0 l 90 0 l 90 667 l 196 667 l 196 560 l 197 560 b 415 675 226 635 278 675 l 428 675 b 663 419 614 675 663 624 "},"o":{"ha":729,"x_min":0,"x_max":0,"o":"m 353 -8 b 67 311 131 -8 67 58 l 67 357 b 353 675 67 607 131 675 l 376 675 b 663 357 599 675 663 607 l 663 311 b 376 -8 663 58 599 -8 m 374 76 b 557 311 526 76 557 117 l 557 357 b 374 592 557 551 526 592 l 356 592 b 172 357 203 592 172 551 l 172 311 b 356 76 172 117 203 76 "},"p":{"ha":743,"x_min":0,"x_max":0,"o":"m 411 -8 b 200 96 286 -8 231 17 l 197 96 l 197 -236 l 90 -236 l 90 667 l 194 667 l 194 576 l 197 576 b 408 675 225 650 288 675 l 426 675 b 676 353 617 675 676 613 l 676 318 b 425 -8 676 57 617 -8 m 394 78 b 569 315 535 78 569 115 l 569 354 b 394 592 569 553 535 592 l 375 592 b 194 374 233 592 194 556 l 194 296 b 375 78 194 121 231 78 "},"q":{"ha":742,"x_min":0,"x_max":0,"o":"m 651 -236 l 544 -236 l 544 93 l 542 93 b 335 -8 511 17 451 -8 l 318 -8 b 67 318 124 -8 67 61 l 67 353 b 315 675 67 614 129 675 l 333 675 b 547 575 457 675 514 650 l 549 575 l 549 667 l 651 667 m 368 78 b 549 296 513 78 549 114 l 549 374 b 368 592 549 549 514 592 l 349 592 b 174 354 210 592 174 554 l 174 315 b 349 78 174 118 210 78 "},"r":{"ha":610,"x_min":0,"x_max":0,"o":"m 197 0 l 90 0 l 90 667 l 194 667 l 194 550 l 197 550 b 389 675 224 636 275 675 l 399 675 b 579 475 549 675 579 626 l 579 417 l 485 417 l 485 451 b 358 586 485 563 464 586 l 347 586 b 197 378 251 586 197 547 "},"s":{"ha":686,"x_min":0,"x_max":0,"o":"m 335 -8 b 68 182 113 -8 68 31 l 68 203 l 168 203 l 168 192 b 335 74 168 93 190 74 l 367 74 b 521 182 497 74 521 94 l 521 193 b 324 303 521 268 500 290 b 81 481 125 317 81 360 l 81 497 b 319 675 81 631 136 675 l 347 675 b 603 488 556 675 603 639 l 603 472 l 506 472 l 506 483 b 353 594 506 575 482 594 l 329 594 b 182 497 203 594 182 574 l 182 482 b 356 390 182 422 203 401 b 624 203 569 375 624 331 l 624 185 b 369 -8 624 35 563 -8 "},"t":{"ha":563,"x_min":0,"x_max":0,"o":"m 301 -8 b 110 253 149 -8 110 26 l 110 588 l 17 588 l 17 667 l 110 667 l 110 840 l 215 840 l 215 667 l 519 667 l 519 588 l 215 588 l 215 260 b 317 78 215 92 229 78 l 332 78 b 435 247 422 78 435 97 l 435 300 l 524 300 l 524 229 b 324 -8 524 32 483 -8 "},"u":{"ha":743,"x_min":0,"x_max":0,"o":"m 653 0 l 547 0 l 547 108 l 546 108 b 328 -8 517 33 464 -8 l 315 -8 b 81 251 132 -8 81 47 l 81 667 l 188 667 l 188 278 b 350 76 188 108 213 76 l 363 76 b 546 275 490 76 546 113 l 546 667 l 653 667 "},"v":{"ha":647,"x_min":0,"x_max":0,"o":"m 394 0 l 250 0 l 13 667 l 125 667 l 322 81 l 325 81 l 524 667 l 635 667 "},"w":{"ha":1021,"x_min":0,"x_max":0,"o":"m 804 0 l 660 0 l 513 565 l 510 565 l 361 0 l 217 0 l 22 667 l 135 667 l 290 79 l 294 79 l 451 667 l 574 667 l 732 79 l 736 79 l 890 667 l 999 667 "},"x":{"ha":685,"x_min":0,"x_max":0,"o":"m 651 0 l 531 0 l 340 293 l 151 0 l 33 0 l 265 343 l 50 667 l 169 667 l 343 392 l 519 667 l 635 667 l 418 343 "},"y":{"ha":635,"x_min":0,"x_max":0,"o":"m 89 -156 b 140 -158 104 -157 129 -158 b 300 14 224 -158 250 -136 l 247 14 l 13 667 l 124 667 l 325 90 l 329 90 l 513 667 l 622 667 l 425 75 b 158 -240 336 -192 293 -240 b 89 -237 136 -240 110 -239 "},"z":{"ha":576,"x_min":0,"x_max":0,"o":"m 540 0 l 39 0 l 39 83 l 413 585 l 413 586 l 56 586 l 56 667 l 536 667 l 536 583 l 165 83 l 165 82 l 540 82 "},"{":{"ha":429,"x_min":0,"x_max":0,"o":"m 354 -11 l 282 -11 b 136 154 176 -11 136 21 l 136 318 b 51 446 136 394 122 446 l 51 507 b 136 635 122 507 136 558 l 136 790 b 282 956 136 924 176 956 l 354 956 l 354 883 l 321 883 b 236 774 251 883 236 861 l 236 639 b 139 478 236 542 226 489 l 139 475 b 236 314 226 464 236 411 l 236 171 b 321 61 236 83 251 61 l 354 61 "},"|":{"ha":397,"x_min":0,"x_max":0,"o":"m 239 -97 l 158 -97 l 158 1042 l 239 1042 "},"}":{"ha":429,"x_min":0,"x_max":0,"o":"m 75 -11 l 75 61 l 107 61 b 193 171 178 61 193 83 l 193 314 b 289 475 193 411 201 464 l 289 478 b 193 639 201 489 193 542 l 193 774 b 107 883 193 861 178 883 l 75 883 l 75 956 l 146 956 b 293 790 251 956 293 924 l 293 635 b 378 507 293 558 307 507 l 378 446 b 293 318 307 446 293 394 l 293 154 b 146 -11 293 21 251 -11 "},"~":{"ha":732,"x_min":0,"x_max":0,"o":"m 646 469 b 489 336 607 381 561 336 b 361 381 438 336 399 358 b 247 425 325 403 289 425 b 146 339 199 425 172 396 l 86 371 b 243 504 125 461 172 504 b 369 460 293 504 332 482 b 485 415 407 438 443 415 b 586 501 536 415 560 446 "},"€":{"ha":933,"x_min":0,"x_max":0,"o":"m 851 235 b 533 -8 851 53 797 -8 l 515 -8 b 160 374 219 -8 164 51 l 69 374 l 69 428 l 160 428 l 160 535 l 69 535 l 69 589 l 160 589 b 514 953 165 894 228 953 l 536 953 b 842 717 790 953 842 894 l 842 697 l 733 697 l 733 718 b 536 863 733 825 703 863 l 517 863 b 275 589 318 863 279 840 l 668 589 l 668 535 l 275 535 l 275 428 l 668 428 l 668 374 l 275 374 b 517 85 279 110 314 85 l 535 85 b 743 239 714 85 743 122 l 743 260 l 851 260 "},"‚":{"ha":272,"x_min":0,"x_max":0,"o":"m 190 0 b 69 -175 190 -108 171 -164 l 69 -115 b 122 -11 114 -108 122 -78 l 122 0 l 86 0 l 86 142 l 190 142 "},"ƒ":{"ha":819,"x_min":0,"x_max":0,"o":"m 408 63 b 169 -175 383 -103 324 -175 b 57 -162 131 -175 86 -171 l 57 -78 b 151 -92 81 -85 118 -92 b 306 85 243 -92 282 -64 l 363 451 l 179 451 l 179 535 l 375 535 l 403 714 b 650 953 431 896 507 953 b 761 943 690 953 722 949 l 761 860 b 665 869 733 865 699 869 b 504 689 567 869 526 835 l 481 535 l 690 535 l 690 451 l 468 451 "},"„":{"ha":464,"x_min":0,"x_max":0,"o":"m 190 0 b 69 -175 190 -108 171 -164 l 69 -115 b 122 -10 114 -108 122 -76 l 122 0 l 86 0 l 86 142 l 190 142 m 382 0 b 261 -175 382 -108 363 -164 l 261 -115 b 314 -10 306 -108 314 -76 l 314 0 l 278 0 l 278 142 l 382 142 "},"…":{"ha":842,"x_min":0,"x_max":0,"o":"m 197 0 l 83 0 l 83 147 l 197 147 m 478 0 l 364 0 l 364 147 l 478 147 m 758 0 l 644 0 l 644 147 l 758 147 "},"†":{"ha":774,"x_min":0,"x_max":0,"o":"m 432 -125 l 343 -125 l 343 593 l 106 593 l 106 676 l 343 676 l 343 944 l 432 944 l 432 676 l 669 676 l 669 593 l 432 593 "},"‡":{"ha":763,"x_min":0,"x_max":0,"o":"m 426 -125 l 338 -125 l 338 125 l 106 125 l 106 207 l 338 207 l 338 629 l 106 629 l 106 710 l 338 710 l 338 944 l 426 944 l 426 710 l 657 710 l 657 629 l 426 629 l 426 207 l 657 207 l 657 125 l 426 125 "},"ˆ":{"ha":531,"x_min":0,"x_max":0,"o":"m 406 776 l 267 893 l 129 776 l 89 818 l 267 981 l 446 818 "},"‰":{"ha":1406,"x_min":0,"x_max":0,"o":"m 244 522 b 83 719 117 522 83 556 l 83 749 b 244 946 83 913 117 946 l 258 946 b 419 749 388 946 419 913 l 419 719 b 258 522 419 556 388 522 m 258 579 b 344 717 331 579 344 594 l 344 751 b 258 890 344 874 331 890 l 246 890 b 158 751 172 890 158 874 l 158 717 b 246 579 158 594 172 579 m 350 0 l 279 0 l 640 944 l 711 944 m 738 -1 b 576 196 610 -1 576 32 l 576 225 b 738 422 576 389 610 422 l 751 422 b 913 225 881 422 913 389 l 913 196 b 751 -1 913 32 881 -1 m 751 56 b 838 193 824 56 838 71 l 838 228 b 751 367 838 350 824 367 l 739 367 b 651 228 665 367 651 350 l 651 193 b 739 56 651 71 665 56 m 1150 -1 b 989 196 1022 -1 989 32 l 989 225 b 1150 422 989 389 1022 422 l 1164 422 b 1325 225 1293 422 1325 389 l 1325 196 b 1164 -1 1325 32 1293 -1 m 1164 56 b 1250 193 1236 56 1250 71 l 1250 228 b 1164 367 1250 350 1236 367 l 1151 367 b 1064 228 1078 367 1064 350 l 1064 193 b 1151 56 1064 71 1078 56 "},"Š":{"ha":860,"x_min":0,"x_max":0,"o":"m 788 258 b 465 -8 788 46 719 -8 l 433 -8 b 76 257 126 -8 76 38 l 76 296 l 185 296 l 185 263 b 426 83 185 115 219 83 l 453 83 b 674 254 638 83 674 111 l 674 274 b 415 436 674 390 650 418 b 86 685 143 457 86 513 l 86 707 b 400 953 86 890 151 953 l 428 953 b 765 693 713 953 765 896 l 765 663 l 656 663 l 656 688 b 433 863 656 828 624 863 l 410 863 b 199 706 233 863 199 833 l 199 686 b 453 533 199 581 228 551 b 788 281 733 511 788 457 m 429 1017 l 247 1163 l 286 1204 l 429 1103 l 574 1204 l 613 1163 "},"‹":{"ha":349,"x_min":0,"x_max":0,"o":"m 285 129 l 210 99 l 63 376 l 210 656 l 285 625 l 153 376 "},"Œ":{"ha":1410,"x_min":0,"x_max":0,"o":"m 1364 0 l 757 0 l 757 103 l 756 103 b 467 -8 721 18 653 -8 l 442 -8 b 74 426 154 -8 74 63 l 74 522 b 440 953 74 878 157 953 l 464 953 b 756 840 665 953 717 919 l 757 840 l 757 944 l 1360 944 l 1360 853 l 864 853 l 864 533 l 1332 533 l 1332 444 l 864 444 l 864 93 l 1364 93 m 483 86 b 753 378 704 86 753 143 l 753 561 b 483 858 753 807 694 858 l 460 858 b 190 525 240 858 190 811 l 190 424 b 460 86 190 139 235 86 "},"Ž":{"ha":813,"x_min":0,"x_max":0,"o":"m 760 0 l 54 0 l 54 93 l 622 854 l 622 856 l 75 856 l 75 944 l 754 944 l 754 850 l 189 93 l 189 90 l 760 90 m 410 1017 l 228 1163 l 267 1204 l 410 1103 l 554 1204 l 593 1163 "},"‘":{"ha":272,"x_min":0,"x_max":0,"o":"m 186 628 l 82 628 l 82 769 b 203 944 82 878 101 933 l 203 885 b 150 781 160 878 150 847 l 150 769 l 186 769 "},"’":{"ha":272,"x_min":0,"x_max":0,"o":"m 190 803 b 69 628 190 694 171 639 l 69 688 b 122 793 113 694 122 726 l 122 803 l 86 803 l 86 944 l 190 944 "},"“":{"ha":464,"x_min":0,"x_max":0,"o":"m 186 628 l 82 628 l 82 769 b 203 944 82 878 101 933 l 203 885 b 150 781 160 878 150 847 l 150 769 l 186 769 m 378 628 l 274 628 l 274 769 b 394 944 274 878 293 933 l 394 885 b 342 781 350 878 342 847 l 342 769 l 378 769 "},"”":{"ha":464,"x_min":0,"x_max":0,"o":"m 190 803 b 69 628 190 694 171 639 l 69 688 b 122 793 114 694 122 726 l 122 803 l 86 803 l 86 944 l 190 944 m 382 803 b 261 628 382 694 363 639 l 261 688 b 314 793 306 694 314 726 l 314 803 l 278 803 l 278 944 l 382 944 "},"•":{"ha":590,"x_min":0,"x_max":0,"o":"m 451 472 b 296 315 451 386 382 315 b 139 472 208 315 139 386 b 296 628 139 558 208 628 b 451 472 382 628 451 558 "},"–":{"ha":761,"x_min":0,"x_max":0,"o":"m 761 315 l 0 315 l 0 388 l 761 388 "},"—":{"ha":1172,"x_min":0,"x_max":0,"o":"m 1131 315 l 42 315 l 42 388 l 1131 388 "},"˜":{"ha":531,"x_min":0,"x_max":0,"o":"m 443 936 b 343 810 436 854 406 810 b 258 844 310 810 285 825 b 193 872 232 863 214 872 b 139 808 167 872 147 858 l 92 819 b 190 943 97 899 131 943 b 272 913 221 943 246 931 b 342 882 300 893 321 882 b 394 946 372 882 389 900 "},"™":{"ha":1075,"x_min":0,"x_max":0,"o":"m 268 486 l 196 486 l 196 885 l 50 885 l 50 944 l 415 944 l 415 885 l 268 885 m 993 486 l 924 486 l 924 869 l 918 869 l 765 486 l 706 486 l 553 869 l 547 869 l 547 486 l 478 486 l 478 944 l 588 944 l 736 563 l 739 563 l 886 944 l 993 944 "},"š":{"ha":686,"x_min":0,"x_max":0,"o":"m 335 -8 b 68 182 113 -8 68 31 l 68 203 l 168 203 l 168 192 b 335 74 168 93 190 74 l 367 74 b 521 182 497 74 521 94 l 521 193 b 324 303 521 268 500 290 b 81 481 125 317 81 360 l 81 497 b 319 675 81 631 136 675 l 347 675 b 603 488 556 675 603 639 l 603 472 l 506 472 l 506 483 b 353 594 506 575 482 594 l 329 594 b 182 497 203 594 182 574 l 182 482 b 356 390 182 422 203 401 b 624 203 569 375 624 331 l 624 185 b 369 -8 624 35 563 -8 m 342 761 l 163 924 l 201 964 l 342 849 l 481 963 l 519 924 "},"›":{"ha":349,"x_min":0,"x_max":0,"o":"m 139 99 l 64 129 l 196 376 l 64 625 l 139 656 l 286 376 "},"œ":{"ha":1190,"x_min":0,"x_max":0,"o":"m 1124 211 b 865 -8 1124 36 1053 -8 l 839 -8 b 613 96 697 -8 636 24 l 611 96 b 374 -8 583 21 510 -8 l 350 -8 b 67 310 133 -8 67 56 l 67 357 b 350 675 67 610 135 675 l 374 675 b 611 571 517 675 581 646 l 613 571 b 833 675 638 643 704 675 l 856 675 b 1119 401 1056 675 1119 619 l 1119 319 l 663 319 l 663 297 b 842 76 663 114 686 76 l 860 76 b 1024 213 996 76 1024 108 l 1024 225 l 1124 225 m 375 76 b 557 308 526 76 557 117 l 557 361 b 375 592 557 558 521 592 l 356 592 b 172 357 206 592 172 553 l 172 310 b 356 76 172 110 210 76 m 1018 392 l 1018 415 b 854 594 1018 561 989 594 l 839 594 b 661 392 696 594 664 569 "},"ž":{"ha":576,"x_min":0,"x_max":0,"o":"m 540 0 l 39 0 l 39 83 l 413 585 l 413 586 l 56 586 l 56 667 l 536 667 l 536 583 l 165 83 l 165 82 l 540 82 m 294 761 l 115 924 l 154 964 l 294 849 l 433 963 l 472 924 "},"Ÿ":{"ha":839,"x_min":0,"x_max":0,"o":"m 476 0 l 361 0 l 361 332 l 14 944 l 139 944 l 419 436 l 422 436 l 699 944 l 825 944 l 476 332 m 356 1054 l 260 1054 l 260 1176 l 356 1176 m 585 1054 l 489 1054 l 489 1176 l 585 1176 "}," ":{"ha":343,"x_min":0,"x_max":0,"o":""},"¡":{"ha":331,"x_min":0,"x_max":0,"o":"m 222 519 l 108 519 l 108 667 l 222 667 m 221 -278 l 110 -278 l 117 410 l 214 410 "},"¢":{"ha":768,"x_min":0,"x_max":0,"o":"m 418 -53 l 363 -53 l 363 114 b 88 431 158 115 88 183 l 88 482 b 363 797 88 732 157 796 l 363 944 l 418 944 l 418 797 b 679 579 615 797 679 742 l 679 557 l 583 557 l 583 574 b 418 714 583 674 547 714 l 418 200 b 586 346 554 200 586 238 l 586 363 l 682 363 l 682 339 b 418 114 682 175 615 114 m 190 429 b 363 200 190 244 233 201 l 363 714 b 190 483 231 713 190 669 "},"£":{"ha":871,"x_min":0,"x_max":0,"o":"m 796 0 l 85 0 l 85 93 b 190 404 167 118 188 165 l 76 404 l 76 486 l 190 486 l 190 526 b 481 953 192 897 236 953 l 506 953 b 776 704 721 953 776 913 l 776 683 l 672 683 l 672 703 b 504 865 672 838 646 865 l 485 865 b 296 536 318 865 296 836 l 296 486 l 608 486 l 608 404 l 294 404 b 190 94 290 169 261 126 l 190 90 l 796 90 "},"¤":{"ha":813,"x_min":0,"x_max":0,"o":"m 675 125 l 565 233 b 408 183 524 201 469 183 b 249 236 347 183 294 201 l 138 125 l 88 175 l 197 285 b 149 444 165 326 149 381 b 194 599 149 506 165 558 l 88 707 l 138 758 l 246 649 b 408 703 289 683 344 703 b 568 651 471 703 526 685 l 675 758 l 725 707 l 621 603 b 669 444 651 561 669 507 b 618 282 669 381 651 325 l 725 175 m 408 263 b 585 444 515 263 585 342 b 408 625 585 546 515 625 b 233 444 301 625 233 546 b 408 263 233 342 301 263 "},"¥":{"ha":867,"x_min":0,"x_max":0,"o":"m 490 0 l 375 0 l 375 293 l 103 293 l 103 354 l 375 354 l 375 365 l 296 510 l 103 510 l 103 571 l 263 571 l 54 944 l 176 944 l 435 439 l 436 439 l 694 944 l 813 944 l 603 571 l 764 571 l 764 510 l 569 510 l 490 365 l 490 354 l 764 354 l 764 293 l 490 293 "},"¦":{"ha":397,"x_min":0,"x_max":0,"o":"m 239 593 l 158 593 l 158 1042 l 239 1042 m 239 -97 l 158 -97 l 158 360 l 239 360 "},"§":{"ha":871,"x_min":0,"x_max":0,"o":"m 779 -56 b 456 -272 779 -225 721 -272 l 424 -272 b 89 -37 132 -272 89 -231 l 89 -11 l 197 -11 l 197 -31 b 426 -183 197 -158 225 -183 l 446 -183 b 669 -44 643 -183 669 -158 l 669 -28 b 453 108 669 75 642 108 l 411 108 b 100 324 158 108 100 164 l 100 343 b 243 529 100 461 133 511 l 243 531 b 100 714 126 546 100 604 l 100 732 b 419 953 100 907 158 953 l 450 953 b 778 707 738 953 778 910 l 778 682 l 672 682 l 672 701 b 450 867 672 844 639 867 l 429 867 b 210 726 240 867 210 842 l 210 710 b 425 579 210 617 233 579 l 458 579 b 779 364 721 579 779 531 l 779 346 b 636 156 779 224 747 169 l 636 154 b 779 -37 749 136 779 86 m 447 190 b 669 335 643 190 669 215 l 669 351 b 450 499 669 467 644 499 l 432 499 b 210 354 238 499 210 467 l 210 336 b 421 190 210 225 235 190 "},"¨":{"ha":531,"x_min":0,"x_max":0,"o":"m 200 822 l 104 822 l 104 944 l 200 944 m 426 822 l 331 822 l 331 944 l 426 944 "},"©":{"ha":1126,"x_min":0,"x_max":0,"o":"m 568 193 b 333 454 376 193 333 242 l 333 497 b 565 756 333 707 378 756 l 581 756 b 792 575 746 756 792 710 l 792 554 l 708 554 l 708 571 b 579 681 708 664 685 681 l 565 681 b 424 497 447 681 424 657 l 424 454 b 567 269 424 290 444 269 l 582 269 b 710 386 688 269 710 293 l 710 401 l 794 401 l 794 379 b 585 193 794 244 742 193 m 582 40 b 982 464 933 40 982 83 l 982 481 b 582 904 982 861 935 904 l 543 904 b 144 481 192 904 144 861 l 144 464 b 543 40 144 83 192 40 m 543 -8 b 90 458 160 -8 90 46 l 90 486 b 543 953 90 899 160 953 l 582 953 b 1036 486 965 953 1036 899 l 1036 458 b 582 -8 1036 46 965 -8 "},"ª":{"ha":499,"x_min":0,"x_max":0,"o":"m 247 575 b 356 649 329 575 356 586 l 356 654 b 244 725 356 717 331 725 l 229 725 b 136 654 153 725 136 711 l 136 646 b 233 575 136 590 151 575 m 424 526 l 356 526 l 356 572 l 354 572 b 228 522 333 539 304 522 l 213 522 b 68 642 97 522 68 546 l 68 657 b 211 776 68 754 110 776 l 226 776 b 351 735 308 776 335 761 l 354 735 l 354 765 b 256 890 354 876 342 890 l 242 890 b 146 826 165 890 146 878 l 146 818 l 81 818 l 81 828 b 246 944 81 921 122 944 l 263 944 b 424 760 396 944 424 917 "},"«":{"ha":565,"x_min":0,"x_max":0,"o":"m 286 129 l 211 99 l 64 376 l 211 656 l 286 625 l 154 376 m 501 129 l 426 99 l 279 376 l 426 656 l 501 625 l 369 376 "},"¬":{"ha":732,"x_min":0,"x_max":0,"o":"m 650 256 l 561 256 l 561 496 l 82 496 l 82 578 l 650 578 "},"­":{"ha":519,"x_min":0,"x_max":0,"o":"m 436 300 l 83 300 l 83 396 l 436 396 "},"®":{"ha":764,"x_min":0,"x_max":0,"o":"m 407 658 b 467 714 450 658 467 674 l 467 725 b 401 788 467 776 454 788 l 311 788 l 311 658 m 524 488 l 468 488 l 468 535 b 389 617 468 607 457 617 l 311 617 l 311 488 l 256 488 l 256 829 l 419 829 b 522 731 494 829 522 813 l 522 718 b 475 642 522 669 501 650 l 475 640 b 524 550 510 632 524 614 m 393 411 b 636 651 603 411 636 439 l 636 665 b 393 904 636 876 603 904 l 371 904 b 126 665 160 904 126 876 l 126 651 b 371 411 126 439 160 411 m 371 369 b 79 651 136 369 79 407 l 79 665 b 371 946 79 911 136 946 l 393 946 b 683 665 628 946 683 911 l 683 651 b 393 369 683 407 628 369 "},"¯":{"ha":531,"x_min":0,"x_max":0,"o":"m 422 844 l 117 844 l 117 917 l 422 917 "},"°":{"ha":481,"x_min":0,"x_max":0,"o":"m 240 607 b 58 788 136 607 58 683 b 240 968 58 892 136 968 b 422 788 346 968 422 892 b 240 607 422 683 346 607 m 240 665 b 360 788 310 665 360 718 b 240 910 360 857 310 910 b 121 788 171 910 121 857 b 240 665 121 718 171 665 "},"±":{"ha":732,"x_min":0,"x_max":0,"o":"m 650 29 l 82 29 l 82 113 l 650 113 m 650 443 l 410 443 l 410 214 l 321 214 l 321 443 l 82 443 l 82 526 l 321 526 l 321 757 l 410 757 l 410 526 l 650 526 "},"²":{"ha":526,"x_min":0,"x_max":0,"o":"m 479 629 l 58 629 l 58 703 b 261 889 58 838 92 867 b 400 990 385 904 400 921 l 400 1006 b 269 1090 400 1074 383 1090 l 260 1090 b 138 997 154 1090 138 1072 l 138 975 l 65 975 l 65 999 b 260 1150 65 1119 99 1150 l 271 1150 b 476 1007 442 1150 476 1121 l 476 993 b 279 828 476 882 444 849 b 133 713 147 811 133 800 l 133 690 l 479 690 "},"³":{"ha":535,"x_min":0,"x_max":0,"o":"m 258 625 b 54 781 86 625 54 650 l 54 800 l 126 800 l 126 781 b 258 685 126 696 143 685 l 271 685 b 408 769 393 685 408 699 l 408 783 b 315 867 408 847 389 867 l 207 867 l 207 922 l 315 922 b 397 996 381 922 397 940 l 397 1013 b 271 1090 397 1078 378 1090 l 260 1090 b 135 1001 153 1090 135 1081 l 135 976 l 64 976 l 64 1001 b 261 1150 64 1124 97 1150 l 274 1150 b 474 1018 439 1150 474 1121 l 474 1004 b 410 896 474 935 456 910 l 410 894 b 485 781 457 885 485 861 l 485 764 b 275 625 485 653 443 625 "},"´":{"ha":531,"x_min":0,"x_max":0,"o":"m 196 761 l 164 801 l 363 983 l 417 915 "},"µ":{"ha":758,"x_min":0,"x_max":0,"o":"m 668 0 l 563 0 l 563 111 l 561 111 b 365 -7 535 35 485 -7 l 353 -7 b 199 64 263 -7 221 17 l 197 64 l 197 -249 l 90 -249 l 90 667 l 197 667 l 197 274 b 368 75 197 111 242 75 l 382 75 b 561 274 508 75 561 114 l 561 667 l 668 667 "},"¶":{"ha":768,"x_min":0,"x_max":0,"o":"m 674 -228 l 593 -228 l 593 881 l 501 881 l 501 -228 l 422 -228 l 422 351 l 364 351 b 83 632 133 351 83 419 l 83 667 b 419 944 83 896 136 944 l 674 944 "},"·":{"ha":281,"x_min":0,"x_max":0,"o":"m 197 296 l 83 296 l 83 443 l 197 443 "},"¸":{"ha":469,"x_min":0,"x_max":0,"o":"m 119 -239 l 85 -204 l 264 -10 l 322 -71 "},"¹":{"ha":383,"x_min":0,"x_max":0,"o":"m 275 629 l 197 629 l 197 1067 l 196 1067 l 72 938 l 29 986 l 183 1146 l 275 1146 "},"º":{"ha":504,"x_min":0,"x_max":0,"o":"m 261 579 b 374 719 357 579 374 603 l 374 749 b 261 888 374 864 357 888 l 244 888 b 132 749 149 888 132 864 l 132 719 b 244 579 132 603 150 581 m 242 522 b 63 719 97 522 63 561 l 63 749 b 242 944 63 908 97 944 l 263 944 b 443 749 407 944 443 908 l 443 719 b 263 522 443 561 407 522 "},"»":{"ha":565,"x_min":0,"x_max":0,"o":"m 139 99 l 64 129 l 196 378 l 64 625 l 139 656 l 286 378 m 354 99 l 279 129 l 411 378 l 279 625 l 354 656 l 501 378 "},"¼":{"ha":1100,"x_min":0,"x_max":0,"o":"m 368 0 l 296 0 l 658 944 l 729 944 m 325 428 l 247 428 l 247 865 l 246 865 l 122 736 l 79 785 l 233 944 l 325 944 m 964 0 l 888 0 l 888 115 l 571 115 l 571 189 l 856 517 l 964 517 l 964 174 l 1029 174 l 1029 115 l 964 115 m 888 174 l 888 457 l 885 457 l 643 175 l 643 174 "},"½":{"ha":1143,"x_min":0,"x_max":0,"o":"m 368 0 l 296 0 l 658 944 l 729 944 m 325 428 l 247 428 l 247 865 l 246 865 l 122 736 l 79 785 l 233 944 l 325 944 m 1064 0 l 643 0 l 643 74 b 846 260 643 208 676 238 b 985 361 969 275 985 292 l 985 376 b 854 461 985 444 968 461 l 844 461 b 722 368 739 461 722 443 l 722 346 l 650 346 l 650 369 b 844 521 650 490 683 521 l 856 521 b 1061 378 1026 521 1061 492 l 1061 364 b 864 199 1061 253 1029 219 b 718 83 732 182 718 171 l 718 61 l 1064 61 "},"¾":{"ha":1253,"x_min":0,"x_max":0,"o":"m 521 0 l 450 0 l 813 944 l 882 944 m 297 424 b 93 579 125 424 93 449 l 93 599 l 165 599 l 165 579 b 297 483 165 494 182 483 l 310 483 b 447 568 432 483 447 497 l 447 582 b 354 665 447 646 428 665 l 246 665 l 246 721 l 354 721 b 436 794 419 721 436 739 l 436 811 b 310 889 436 876 417 889 l 299 889 b 174 800 192 889 174 879 l 174 775 l 103 775 l 103 800 b 300 949 103 922 136 949 l 313 949 b 513 817 478 949 513 919 l 513 803 b 449 694 513 733 494 708 l 449 693 b 524 579 496 683 524 660 l 524 563 b 314 424 524 451 482 424 m 1118 0 l 1042 0 l 1042 115 l 725 115 l 725 189 l 1010 517 l 1118 517 l 1118 174 l 1183 174 l 1183 115 l 1118 115 m 1042 174 l 1042 457 l 1039 457 l 797 175 l 797 174 "},"¿":{"ha":743,"x_min":0,"x_max":0,"o":"m 465 519 l 351 519 l 351 667 l 465 667 m 353 -286 b 63 -39 113 -286 63 -229 l 63 -15 b 254 250 63 157 101 217 b 358 356 342 269 358 289 l 358 379 l 458 379 l 458 349 b 322 178 458 243 432 206 b 164 -12 183 143 164 121 l 164 -31 b 354 -200 164 -171 192 -200 l 374 -200 b 576 -7 549 -200 576 -176 l 576 26 l 675 26 l 675 -14 b 374 -286 675 -243 617 -286 "},"À":{"ha":878,"x_min":0,"x_max":0,"o":"m 861 0 l 740 0 l 667 214 l 211 214 l 136 0 l 17 0 l 360 944 l 525 944 m 638 303 l 446 860 l 438 860 l 238 303 m 482 1029 l 236 1139 l 278 1214 l 507 1072 "},"Á":{"ha":878,"x_min":0,"x_max":0,"o":"m 861 0 l 740 0 l 667 214 l 211 214 l 136 0 l 17 0 l 360 944 l 525 944 m 638 303 l 446 860 l 438 860 l 238 303 m 644 1140 l 399 1031 l 372 1074 l 601 1215 "},"Â":{"ha":878,"x_min":0,"x_max":0,"o":"m 861 0 l 740 0 l 667 214 l 211 214 l 136 0 l 17 0 l 360 944 l 525 944 m 638 303 l 446 860 l 438 860 l 238 303 m 588 1036 l 443 1138 l 300 1036 l 261 1078 l 443 1225 l 626 1078 "},"Ã":{"ha":878,"x_min":0,"x_max":0,"o":"m 861 0 l 740 0 l 667 214 l 211 214 l 136 0 l 17 0 l 360 944 l 525 944 m 638 303 l 446 860 l 438 860 l 238 303 m 618 1181 b 518 1054 611 1099 581 1054 b 433 1089 485 1054 460 1069 b 368 1117 407 1107 389 1117 b 314 1053 342 1117 322 1103 l 267 1064 b 365 1188 272 1143 306 1188 b 447 1157 396 1188 421 1175 b 517 1126 475 1138 496 1126 b 569 1190 547 1126 564 1144 "},"Ä":{"ha":878,"x_min":0,"x_max":0,"o":"m 861 0 l 740 0 l 667 214 l 211 214 l 136 0 l 17 0 l 360 944 l 525 944 m 638 303 l 446 860 l 438 860 l 238 303 m 375 1054 l 279 1054 l 279 1176 l 375 1176 m 604 1054 l 508 1054 l 508 1176 l 604 1176 "},"Å":{"ha":878,"x_min":0,"x_max":0,"o":"m 861 0 l 740 0 l 667 214 l 211 214 l 136 0 l 17 0 l 360 944 l 525 944 m 638 303 l 446 860 l 438 860 l 238 303 m 438 1008 b 300 1113 335 1008 300 1038 l 300 1121 b 438 1225 300 1196 335 1225 l 446 1225 b 583 1121 549 1225 583 1196 l 583 1113 b 446 1008 583 1038 549 1008 m 446 1051 b 531 1114 510 1051 531 1067 l 531 1122 b 446 1183 531 1169 510 1183 l 438 1183 b 353 1122 372 1183 353 1169 l 353 1114 b 438 1051 353 1067 372 1051 "},"Æ":{"ha":1313,"x_min":0,"x_max":0,"o":"m 1267 0 l 654 0 l 654 214 l 247 214 l 136 0 l 13 0 l 507 944 l 1263 944 l 1263 853 l 767 853 l 767 533 l 1235 533 l 1235 444 l 767 444 l 767 93 l 1267 93 m 654 303 l 654 853 l 578 853 l 293 303 "},"Ç":{"ha":904,"x_min":0,"x_max":0,"o":"m 450 -8 b 72 433 135 -8 72 71 l 72 513 b 449 953 72 872 143 953 l 474 953 b 824 683 750 953 824 892 l 824 654 l 714 654 l 714 676 b 474 860 714 822 672 860 l 451 860 b 188 513 231 860 188 817 l 188 435 b 454 88 188 128 229 88 l 475 88 b 719 274 678 88 719 121 l 719 294 l 831 294 l 831 264 b 476 -8 831 49 749 -8 m 344 -239 l 310 -204 l 489 -10 l 547 -71 "},"È":{"ha":757,"x_min":0,"x_max":0,"o":"m 711 0 l 96 0 l 96 944 l 707 944 l 707 853 l 211 853 l 211 533 l 679 533 l 679 444 l 211 444 l 211 93 l 711 93 m 500 1029 l 254 1139 l 296 1214 l 525 1072 "},"É":{"ha":757,"x_min":0,"x_max":0,"o":"m 711 0 l 96 0 l 96 944 l 707 944 l 707 853 l 211 853 l 211 533 l 679 533 l 679 444 l 211 444 l 211 93 l 711 93 m 546 1140 l 300 1031 l 274 1074 l 503 1215 "},"Ê":{"ha":757,"x_min":0,"x_max":0,"o":"m 711 0 l 96 0 l 96 944 l 707 944 l 707 853 l 211 853 l 211 533 l 679 533 l 679 444 l 211 444 l 211 93 l 711 93 m 547 1036 l 403 1138 l 260 1036 l 221 1078 l 403 1225 l 586 1078 "},"Ë":{"ha":757,"x_min":0,"x_max":0,"o":"m 711 0 l 96 0 l 96 944 l 707 944 l 707 853 l 211 853 l 211 533 l 679 533 l 679 444 l 211 444 l 211 93 l 711 93 m 332 1054 l 236 1054 l 236 1176 l 332 1176 m 561 1054 l 465 1054 l 465 1176 l 561 1176 "},"Ì":{"ha":307,"x_min":0,"x_max":0,"o":"m 211 0 l 96 0 l 96 944 l 211 944 m 182 1029 l -64 1139 l -22 1214 l 207 1072 "},"Í":{"ha":307,"x_min":0,"x_max":0,"o":"m 211 0 l 96 0 l 96 944 l 211 944 m 375 1140 l 129 1031 l 103 1074 l 332 1215 "},"Î":{"ha":307,"x_min":0,"x_max":0,"o":"m 211 0 l 96 0 l 96 944 l 211 944 m 297 1036 l 153 1138 l 10 1036 l -29 1078 l 153 1225 l 336 1078 "},"Ï":{"ha":307,"x_min":0,"x_max":0,"o":"m 211 0 l 96 0 l 96 944 l 211 944 m 86 1054 l -10 1054 l -10 1176 l 86 1176 m 315 1054 l 219 1054 l 219 1176 l 315 1176 "},"Ð":{"ha":954,"x_min":0,"x_max":0,"o":"m 25 524 l 96 524 l 96 944 l 475 944 b 876 517 807 944 876 890 l 876 429 b 475 0 876 61 815 0 l 96 0 l 96 453 l 25 453 m 471 93 b 761 436 722 93 761 131 l 761 513 b 471 853 761 818 717 853 l 211 853 l 211 524 l 439 524 l 439 453 l 211 453 l 211 93 "},"Ñ":{"ha":981,"x_min":0,"x_max":0,"o":"m 885 0 l 710 0 l 208 846 l 203 846 l 204 0 l 96 0 l 96 944 l 274 944 l 774 101 l 778 101 l 775 944 l 885 944 m 676 1181 b 576 1054 669 1099 639 1054 b 492 1089 543 1054 518 1069 b 426 1117 465 1107 447 1117 b 372 1053 400 1117 381 1103 l 325 1064 b 424 1188 331 1143 364 1188 b 506 1157 454 1188 479 1175 b 575 1126 533 1138 554 1126 b 628 1190 606 1126 622 1144 "},"Ò":{"ha":943,"x_min":0,"x_max":0,"o":"m 74 513 b 458 953 74 875 147 953 l 485 953 b 869 513 796 953 869 875 l 869 432 b 485 -8 869 69 796 -8 l 458 -8 b 74 432 147 -8 74 69 m 189 433 b 460 88 189 131 232 88 l 485 88 b 754 433 711 88 754 131 l 754 513 b 485 860 754 815 711 860 l 460 860 b 189 513 232 860 189 815 m 575 1029 l 329 1139 l 371 1214 l 600 1072 "},"Ó":{"ha":943,"x_min":0,"x_max":0,"o":"m 74 513 b 458 953 74 875 147 953 l 485 953 b 869 513 796 953 869 875 l 869 432 b 485 -8 869 69 796 -8 l 458 -8 b 74 432 147 -8 74 69 m 189 433 b 460 88 189 131 232 88 l 485 88 b 754 433 711 88 754 131 l 754 513 b 485 860 754 815 711 860 l 460 860 b 189 513 232 860 189 815 m 615 1140 l 369 1031 l 343 1074 l 572 1215 "},"Ô":{"ha":943,"x_min":0,"x_max":0,"o":"m 74 513 b 458 953 74 875 147 953 l 485 953 b 869 513 796 953 869 875 l 869 432 b 485 -8 869 69 796 -8 l 458 -8 b 74 432 147 -8 74 69 m 189 433 b 460 88 189 131 232 88 l 485 88 b 754 433 711 88 754 131 l 754 513 b 485 860 754 815 711 860 l 460 860 b 189 513 232 860 189 815 m 618 1036 l 474 1138 l 331 1036 l 292 1078 l 474 1225 l 657 1078 "},"Õ":{"ha":943,"x_min":0,"x_max":0,"o":"m 74 513 b 458 953 74 875 147 953 l 485 953 b 869 513 796 953 869 875 l 869 432 b 485 -8 869 69 796 -8 l 458 -8 b 74 432 147 -8 74 69 m 189 433 b 460 88 189 131 232 88 l 485 88 b 754 433 711 88 754 131 l 754 513 b 485 860 754 815 711 860 l 460 860 b 189 513 232 860 189 815 m 649 1181 b 549 1054 642 1099 611 1054 b 464 1089 515 1054 490 1069 b 399 1117 438 1107 419 1117 b 344 1053 372 1117 353 1103 l 297 1064 b 396 1188 303 1143 336 1188 b 478 1157 426 1188 451 1175 b 547 1126 506 1138 526 1126 b 600 1190 578 1126 594 1144 "},"Ö":{"ha":943,"x_min":0,"x_max":0,"o":"m 74 513 b 458 953 74 875 147 953 l 485 953 b 869 513 796 953 869 875 l 869 432 b 485 -8 869 69 796 -8 l 458 -8 b 74 432 147 -8 74 69 m 189 433 b 460 88 189 131 232 88 l 485 88 b 754 433 711 88 754 131 l 754 513 b 485 860 754 815 711 860 l 460 860 b 189 513 232 860 189 815 m 404 1054 l 308 1054 l 308 1176 l 404 1176 m 633 1054 l 538 1054 l 538 1176 l 633 1176 "},"×":{"ha":732,"x_min":0,"x_max":0,"o":"m 628 206 l 568 147 l 365 361 l 163 147 l 103 204 l 308 421 l 108 631 l 167 688 l 365 479 l 564 688 l 622 632 l 422 421 "},"Ø":{"ha":943,"x_min":0,"x_max":0,"o":"m 74 513 b 458 953 74 875 147 953 l 485 953 b 763 896 615 953 704 939 l 817 964 l 867 924 l 810 849 b 869 513 854 782 869 676 l 869 432 b 485 -8 869 69 796 -8 l 458 -8 b 188 43 333 -8 247 4 l 125 -39 l 74 0 l 140 88 b 74 432 90 153 74 261 m 188 433 b 217 183 188 314 194 235 l 694 811 b 485 860 654 850 589 860 l 460 860 b 188 513 232 860 188 815 m 460 88 l 485 88 b 756 433 711 88 756 131 l 756 513 b 732 750 756 622 750 697 l 256 129 b 460 88 296 96 361 88 "},"Ù":{"ha":926,"x_min":0,"x_max":0,"o":"m 451 -8 b 89 307 154 -8 89 39 l 89 944 l 204 944 l 204 317 b 449 88 204 113 246 88 l 475 88 b 722 317 678 88 722 113 l 722 944 l 838 944 l 838 307 b 472 -8 838 39 769 -8 m 560 1029 l 314 1139 l 356 1214 l 585 1072 "},"Ú":{"ha":926,"x_min":0,"x_max":0,"o":"m 451 -8 b 89 307 154 -8 89 39 l 89 944 l 204 944 l 204 317 b 449 88 204 113 246 88 l 475 88 b 722 317 678 88 722 113 l 722 944 l 838 944 l 838 307 b 472 -8 838 39 769 -8 m 613 1140 l 367 1031 l 340 1074 l 569 1215 "},"Û":{"ha":926,"x_min":0,"x_max":0,"o":"m 451 -8 b 89 307 154 -8 89 39 l 89 944 l 204 944 l 204 317 b 449 88 204 113 246 88 l 475 88 b 722 317 678 88 722 113 l 722 944 l 838 944 l 838 307 b 472 -8 838 39 769 -8 m 607 1036 l 463 1138 l 319 1036 l 281 1078 l 463 1225 l 646 1078 "},"Ü":{"ha":926,"x_min":0,"x_max":0,"o":"m 451 -8 b 89 307 154 -8 89 39 l 89 944 l 204 944 l 204 317 b 449 88 204 113 246 88 l 475 88 b 722 317 678 88 722 113 l 722 944 l 838 944 l 838 307 b 472 -8 838 39 769 -8 m 396 1054 l 300 1054 l 300 1176 l 396 1176 m 625 1054 l 529 1054 l 529 1176 l 625 1176 "},"Ý":{"ha":839,"x_min":0,"x_max":0,"o":"m 476 0 l 361 0 l 361 332 l 14 944 l 139 944 l 419 436 l 422 436 l 699 944 l 825 944 l 476 332 m 603 1140 l 357 1031 l 331 1074 l 560 1215 "},"Þ":{"ha":853,"x_min":0,"x_max":0,"o":"m 96 944 l 210 944 l 210 790 l 467 790 b 800 513 742 790 800 746 l 800 478 b 471 199 800 244 732 199 l 210 199 l 210 0 l 96 0 m 456 292 b 688 475 661 292 688 322 l 688 515 b 454 699 688 672 660 699 l 210 699 l 210 292 "},"ß":{"ha":775,"x_min":0,"x_max":0,"o":"m 451 -8 b 288 18 374 -8 321 1 l 299 101 b 440 75 325 86 375 75 b 600 314 565 75 600 97 l 600 354 b 428 581 600 553 569 581 l 351 581 l 351 656 l 410 656 b 542 758 519 656 542 686 l 542 774 b 389 875 542 851 514 875 l 363 875 b 197 689 232 875 197 846 l 197 0 l 90 0 l 90 688 b 354 951 90 901 157 951 l 394 951 b 644 785 583 951 644 910 l 644 767 b 538 629 644 676 610 642 l 539 628 b 706 346 661 617 706 567 l 706 306 b 451 -8 706 42 638 -8 "},"à":{"ha":699,"x_min":0,"x_max":0,"o":"m 617 0 l 515 0 l 515 75 l 513 75 b 314 -8 482 15 431 -8 l 299 -8 b 67 192 115 -8 67 35 l 67 211 b 294 407 67 363 126 407 l 308 407 b 511 343 432 407 483 390 l 514 343 l 514 386 b 350 594 514 572 499 594 l 335 594 b 185 486 211 594 185 572 l 185 472 l 86 472 l 86 486 b 339 675 86 642 147 675 l 358 675 b 617 372 583 675 617 635 m 346 72 b 515 194 475 72 515 94 l 515 208 b 338 331 515 315 481 331 l 325 331 b 168 208 194 331 168 308 l 168 196 b 333 72 168 94 194 72 m 442 761 l 222 915 l 275 983 l 474 801 "},"á":{"ha":699,"x_min":0,"x_max":0,"o":"m 617 0 l 515 0 l 515 75 l 513 75 b 314 -8 482 15 431 -8 l 299 -8 b 67 192 115 -8 67 35 l 67 211 b 294 407 67 363 126 407 l 308 407 b 511 343 432 407 483 390 l 514 343 l 514 386 b 350 594 514 572 499 594 l 335 594 b 185 486 211 594 185 572 l 185 472 l 86 472 l 86 486 b 339 675 86 642 147 675 l 358 675 b 617 372 583 675 617 635 m 346 72 b 515 194 475 72 515 94 l 515 208 b 338 331 515 315 481 331 l 325 331 b 168 208 194 331 168 308 l 168 196 b 333 72 168 94 194 72 m 264 761 l 232 801 l 431 983 l 485 915 "},"â":{"ha":699,"x_min":0,"x_max":0,"o":"m 617 0 l 515 0 l 515 75 l 513 75 b 314 -8 482 15 431 -8 l 299 -8 b 67 192 115 -8 67 35 l 67 211 b 294 407 67 363 126 407 l 308 407 b 511 343 432 407 483 390 l 514 343 l 514 386 b 350 594 514 572 499 594 l 335 594 b 185 486 211 594 185 572 l 185 472 l 86 472 l 86 486 b 339 675 86 642 147 675 l 358 675 b 617 372 583 675 617 635 m 346 72 b 515 194 475 72 515 94 l 515 208 b 338 331 515 315 481 331 l 325 331 b 168 208 194 331 168 308 l 168 196 b 333 72 168 94 194 72 m 489 776 l 350 893 l 213 776 l 172 818 l 350 981 l 529 818 "},"ã":{"ha":699,"x_min":0,"x_max":0,"o":"m 617 0 l 515 0 l 515 75 l 513 75 b 314 -8 482 15 431 -8 l 299 -8 b 67 192 115 -8 67 35 l 67 211 b 294 407 67 363 126 407 l 308 407 b 511 343 432 407 483 390 l 514 343 l 514 386 b 350 594 514 572 499 594 l 335 594 b 185 486 211 594 185 572 l 185 472 l 86 472 l 86 486 b 339 675 86 642 147 675 l 358 675 b 617 372 583 675 617 635 m 346 72 b 515 194 475 72 515 94 l 515 208 b 338 331 515 315 481 331 l 325 331 b 168 208 194 331 168 308 l 168 196 b 333 72 168 94 194 72 m 522 936 b 422 810 515 854 485 810 b 338 844 389 810 364 825 b 272 872 311 863 293 872 b 218 808 246 872 226 858 l 171 819 b 269 943 176 899 210 943 b 351 913 300 943 325 931 b 421 882 379 893 400 882 b 474 946 451 882 468 900 "},"ä":{"ha":699,"x_min":0,"x_max":0,"o":"m 617 0 l 515 0 l 515 75 l 513 75 b 314 -8 482 15 431 -8 l 299 -8 b 67 192 115 -8 67 35 l 67 211 b 294 407 67 363 126 407 l 308 407 b 511 343 432 407 483 390 l 514 343 l 514 386 b 350 594 514 572 499 594 l 335 594 b 185 486 211 594 185 572 l 185 472 l 86 472 l 86 486 b 339 675 86 642 147 675 l 358 675 b 617 372 583 675 617 635 m 346 72 b 515 194 475 72 515 94 l 515 208 b 338 331 515 315 481 331 l 325 331 b 168 208 194 331 168 308 l 168 196 b 333 72 168 94 194 72 m 283 822 l 188 822 l 188 944 l 283 944 m 510 822 l 414 822 l 414 944 l 510 944 "},"å":{"ha":699,"x_min":0,"x_max":0,"o":"m 617 0 l 515 0 l 515 75 l 513 75 b 314 -8 482 15 431 -8 l 299 -8 b 67 192 115 -8 67 35 l 67 211 b 294 407 67 363 126 407 l 308 407 b 511 343 432 407 483 390 l 514 343 l 514 386 b 350 594 514 572 499 594 l 335 594 b 185 486 211 594 185 572 l 185 472 l 86 472 l 86 486 b 339 675 86 642 147 675 l 358 675 b 617 372 583 675 617 635 m 346 72 b 515 194 475 72 515 94 l 515 208 b 338 331 515 315 481 331 l 325 331 b 168 208 194 331 168 308 l 168 196 b 333 72 168 94 194 72 m 347 767 b 210 871 244 767 210 796 l 210 879 b 347 983 210 954 244 983 l 356 983 b 493 879 458 983 493 954 l 493 871 b 356 767 493 796 458 767 m 356 810 b 440 872 419 810 440 825 l 440 881 b 356 942 440 928 419 942 l 347 942 b 263 881 282 942 263 928 l 263 872 b 347 810 263 825 282 810 "},"æ":{"ha":1143,"x_min":0,"x_max":0,"o":"m 1076 211 b 821 -8 1076 39 1003 -8 l 794 -8 b 544 117 642 -8 572 13 l 543 117 b 317 -8 514 10 435 -8 l 300 -8 b 67 192 113 -8 67 36 l 67 213 b 294 407 67 364 128 407 l 310 407 b 511 340 433 407 483 390 l 514 340 l 514 385 b 357 596 514 576 496 596 l 342 596 b 185 488 210 596 185 576 l 185 471 l 86 471 l 86 486 b 343 675 86 643 149 675 l 361 675 b 569 568 501 675 553 646 l 571 568 b 788 675 593 646 656 675 l 810 675 b 1072 401 1011 675 1072 621 l 1072 319 l 617 319 l 617 274 b 796 72 617 101 657 72 l 814 72 b 981 213 947 72 981 103 l 981 225 l 1076 225 m 974 392 l 974 415 b 804 597 974 575 936 597 l 790 597 b 617 392 654 597 618 575 m 346 71 b 515 194 475 71 515 94 l 515 208 b 338 332 515 315 481 332 l 325 332 b 168 208 194 332 168 308 l 168 196 b 333 71 168 94 194 71 "},"ç":{"ha":701,"x_min":0,"x_max":0,"o":"m 349 -8 b 67 311 128 -8 67 53 l 67 357 b 350 675 67 618 135 675 l 374 675 b 633 453 578 675 633 622 l 633 433 l 533 433 l 533 447 b 372 592 533 563 501 592 l 353 592 b 174 357 207 592 174 557 l 174 311 b 354 78 174 114 208 78 l 375 78 b 536 225 506 78 536 108 l 536 240 l 638 240 l 638 222 b 371 -8 638 46 575 -8 m 238 -239 l 203 -204 l 382 -10 l 440 -71 "},"è":{"ha":703,"x_min":0,"x_max":0,"o":"m 346 -8 b 67 311 121 -8 67 50 l 67 354 b 342 675 67 619 128 675 l 364 675 b 632 399 578 675 632 618 l 632 319 l 171 319 l 171 296 b 351 76 171 111 200 76 l 369 76 b 536 213 506 76 536 103 l 536 225 l 636 225 l 636 210 b 371 -8 636 42 565 -8 m 531 392 l 531 415 b 363 594 531 561 507 594 l 347 594 b 169 392 199 594 172 565 m 446 761 l 226 915 l 279 983 l 478 801 "},"é":{"ha":703,"x_min":0,"x_max":0,"o":"m 346 -8 b 67 311 121 -8 67 50 l 67 354 b 342 675 67 619 128 675 l 364 675 b 632 399 578 675 632 618 l 632 319 l 171 319 l 171 296 b 351 76 171 111 200 76 l 369 76 b 536 213 506 76 536 103 l 536 225 l 636 225 l 636 210 b 371 -8 636 42 565 -8 m 531 392 l 531 415 b 363 594 531 561 507 594 l 347 594 b 169 392 199 594 172 565 m 267 761 l 235 801 l 433 983 l 488 915 "},"ê":{"ha":703,"x_min":0,"x_max":0,"o":"m 346 -8 b 67 311 121 -8 67 50 l 67 354 b 342 675 67 619 128 675 l 364 675 b 632 399 578 675 632 618 l 632 319 l 171 319 l 171 296 b 351 76 171 111 200 76 l 369 76 b 536 213 506 76 536 103 l 536 225 l 636 225 l 636 210 b 371 -8 636 42 565 -8 m 531 392 l 531 415 b 363 594 531 561 507 594 l 347 594 b 169 392 199 594 172 565 m 494 776 l 356 893 l 218 776 l 178 818 l 356 981 l 535 818 "},"ë":{"ha":703,"x_min":0,"x_max":0,"o":"m 346 -8 b 67 311 121 -8 67 50 l 67 354 b 342 675 67 619 128 675 l 364 675 b 632 399 578 675 632 618 l 632 319 l 171 319 l 171 296 b 351 76 171 111 200 76 l 369 76 b 536 213 506 76 536 103 l 536 225 l 636 225 l 636 210 b 371 -8 636 42 565 -8 m 531 392 l 531 415 b 363 594 531 561 507 594 l 347 594 b 169 392 199 594 172 565 m 289 822 l 193 822 l 193 944 l 289 944 m 515 822 l 419 822 l 419 944 l 515 944 "},"ì":{"ha":288,"x_min":0,"x_max":0,"o":"m 197 0 l 90 0 l 90 667 l 197 667 m 165 761 l -54 915 l -1 983 l 197 801 "},"í":{"ha":288,"x_min":0,"x_max":0,"o":"m 197 0 l 90 0 l 90 667 l 197 667 m 128 761 l 96 801 l 294 983 l 349 915 "},"î":{"ha":288,"x_min":0,"x_max":0,"o":"m 197 0 l 90 0 l 90 667 l 197 667 m 282 776 l 143 893 l 6 776 l -35 818 l 143 981 l 322 818 "},"ï":{"ha":288,"x_min":0,"x_max":0,"o":"m 197 0 l 90 0 l 90 667 l 197 667 m 85 822 l -10 822 l -10 944 l 85 944 m 299 822 l 204 822 l 204 944 l 299 944 "},"ð":{"ha":729,"x_min":0,"x_max":0,"o":"m 347 -8 b 67 310 126 -8 67 64 l 67 340 b 308 654 67 581 138 654 l 331 654 b 551 546 460 654 525 628 l 553 546 b 404 810 540 679 496 761 l 264 740 l 242 785 l 346 835 b 115 883 288 860 213 874 l 146 951 b 438 885 272 942 367 921 l 569 950 l 592 906 l 489 857 b 661 340 629 765 661 603 l 661 317 b 374 -8 661 61 597 -8 m 374 76 b 557 310 521 76 557 117 l 557 365 b 364 571 557 533 504 571 l 347 571 b 172 342 204 571 172 532 l 172 310 b 354 76 172 118 204 76 "},"ñ":{"ha":749,"x_min":0,"x_max":0,"o":"m 663 0 l 556 0 l 556 392 b 393 589 556 558 533 589 l 379 589 b 197 392 253 589 197 551 l 197 0 l 90 0 l 90 667 l 196 667 l 196 560 l 197 560 b 415 675 226 635 278 675 l 428 675 b 663 419 614 675 663 624 m 560 936 b 460 810 553 854 522 810 b 375 844 426 810 401 825 b 310 872 349 863 331 872 b 256 808 283 872 264 858 l 208 819 b 307 943 214 899 247 943 b 389 913 338 943 363 931 b 458 882 417 893 438 882 b 511 946 489 882 506 900 "},"ò":{"ha":729,"x_min":0,"x_max":0,"o":"m 353 -8 b 67 311 131 -8 67 58 l 67 357 b 353 675 67 607 131 675 l 376 675 b 663 357 599 675 663 607 l 663 311 b 376 -8 663 58 599 -8 m 374 76 b 557 311 526 76 557 117 l 557 357 b 374 592 557 551 526 592 l 356 592 b 172 357 203 592 172 551 l 172 311 b 356 76 172 117 203 76 m 468 761 l 249 915 l 301 983 l 500 801 "},"ó":{"ha":729,"x_min":0,"x_max":0,"o":"m 353 -8 b 67 311 131 -8 67 58 l 67 357 b 353 675 67 607 131 675 l 376 675 b 663 357 599 675 663 607 l 663 311 b 376 -8 663 58 599 -8 m 374 76 b 557 311 526 76 557 117 l 557 357 b 374 592 557 551 526 592 l 356 592 b 172 357 203 592 172 551 l 172 311 b 356 76 172 117 203 76 m 278 761 l 246 801 l 444 983 l 499 915 "},"ô":{"ha":729,"x_min":0,"x_max":0,"o":"m 353 -8 b 67 311 131 -8 67 58 l 67 357 b 353 675 67 607 131 675 l 376 675 b 663 357 599 675 663 607 l 663 311 b 376 -8 663 58 599 -8 m 374 76 b 557 311 526 76 557 117 l 557 357 b 374 592 557 551 526 592 l 356 592 b 172 357 203 592 172 551 l 172 311 b 356 76 172 117 203 76 m 504 776 l 365 893 l 228 776 l 188 818 l 365 981 l 544 818 "},"õ":{"ha":729,"x_min":0,"x_max":0,"o":"m 353 -8 b 67 311 131 -8 67 58 l 67 357 b 353 675 67 607 131 675 l 376 675 b 663 357 599 675 663 607 l 663 311 b 376 -8 663 58 599 -8 m 374 76 b 557 311 526 76 557 117 l 557 357 b 374 592 557 551 526 592 l 356 592 b 172 357 203 592 172 551 l 172 311 b 356 76 172 117 203 76 m 542 936 b 442 810 535 854 504 810 b 357 844 408 810 383 825 b 292 872 331 863 313 872 b 238 808 265 872 246 858 l 190 819 b 289 943 196 899 229 943 b 371 913 319 943 344 931 b 440 882 399 893 419 882 b 493 946 471 882 488 900 "},"ö":{"ha":729,"x_min":0,"x_max":0,"o":"m 353 -8 b 67 311 131 -8 67 58 l 67 357 b 353 675 67 607 131 675 l 376 675 b 663 357 599 675 663 607 l 663 311 b 376 -8 663 58 599 -8 m 374 76 b 557 311 526 76 557 117 l 557 357 b 374 592 557 551 526 592 l 356 592 b 172 357 203 592 172 551 l 172 311 b 356 76 172 117 203 76 m 299 822 l 203 822 l 203 944 l 299 944 m 525 822 l 429 822 l 429 944 l 525 944 "},"÷":{"ha":732,"x_min":0,"x_max":0,"o":"m 433 633 b 365 564 433 596 403 564 b 297 633 329 564 297 596 b 365 701 297 669 329 701 b 433 633 403 701 433 669 m 433 213 b 365 144 433 175 403 144 b 297 213 329 144 297 175 b 365 281 297 250 329 281 b 433 213 403 281 433 250 m 650 382 l 82 382 l 82 465 l 650 465 "},"ø":{"ha":729,"x_min":0,"x_max":0,"o":"m 99 -37 l 56 -1 l 115 71 b 67 311 79 119 67 196 l 67 357 b 353 675 67 607 131 675 l 376 675 b 575 633 467 675 531 663 l 625 696 l 668 658 l 615 594 b 663 357 650 544 663 469 l 663 311 b 376 -8 663 58 599 -8 l 353 -8 b 156 32 264 -8 200 3 m 374 592 l 356 592 b 172 357 203 592 172 551 l 172 311 b 188 158 172 242 176 193 l 513 558 b 374 592 485 583 440 592 m 374 76 b 557 311 526 76 557 117 l 557 357 b 543 507 557 424 554 472 l 219 107 b 356 76 247 83 290 76 "},"ù":{"ha":743,"x_min":0,"x_max":0,"o":"m 653 0 l 547 0 l 547 108 l 546 108 b 328 -8 517 33 464 -8 l 315 -8 b 81 251 132 -8 81 47 l 81 667 l 188 667 l 188 278 b 350 76 188 108 213 76 l 363 76 b 546 275 490 76 546 113 l 546 667 l 653 667 m 472 761 l 253 915 l 306 983 l 504 801 "},"ú":{"ha":743,"x_min":0,"x_max":0,"o":"m 653 0 l 547 0 l 547 108 l 546 108 b 328 -8 517 33 464 -8 l 315 -8 b 81 251 132 -8 81 47 l 81 667 l 188 667 l 188 278 b 350 76 188 108 213 76 l 363 76 b 546 275 490 76 546 113 l 546 667 l 653 667 m 289 761 l 257 801 l 456 983 l 510 915 "},"û":{"ha":743,"x_min":0,"x_max":0,"o":"m 653 0 l 547 0 l 547 108 l 546 108 b 328 -8 517 33 464 -8 l 315 -8 b 81 251 132 -8 81 47 l 81 667 l 188 667 l 188 278 b 350 76 188 108 213 76 l 363 76 b 546 275 490 76 546 113 l 546 667 l 653 667 m 510 776 l 371 893 l 233 776 l 193 818 l 371 981 l 550 818 "},"ü":{"ha":743,"x_min":0,"x_max":0,"o":"m 653 0 l 547 0 l 547 108 l 546 108 b 328 -8 517 33 464 -8 l 315 -8 b 81 251 132 -8 81 47 l 81 667 l 188 667 l 188 278 b 350 76 188 108 213 76 l 363 76 b 546 275 490 76 546 113 l 546 667 l 653 667 m 307 822 l 211 822 l 211 944 l 307 944 m 533 822 l 438 822 l 438 944 l 533 944 "},"ý":{"ha":635,"x_min":0,"x_max":0,"o":"m 89 -156 b 140 -158 104 -157 129 -158 b 300 14 224 -158 250 -136 l 247 14 l 13 667 l 124 667 l 325 90 l 329 90 l 513 667 l 622 667 l 425 75 b 158 -240 336 -192 293 -240 b 89 -237 136 -240 110 -239 m 271 761 l 239 801 l 438 983 l 492 915 "},"þ":{"ha":743,"x_min":0,"x_max":0,"o":"m 411 -8 b 200 96 286 -8 231 17 l 197 96 l 197 -236 l 90 -236 l 90 944 l 197 944 l 197 576 l 200 576 b 408 675 228 650 288 675 l 426 675 b 676 353 617 675 676 613 l 676 318 b 425 -8 676 57 617 -8 m 394 78 b 569 315 535 78 569 115 l 569 354 b 394 592 569 553 535 592 l 375 592 b 194 374 233 592 194 556 l 194 296 b 375 78 194 121 231 78 "},"ÿ":{"ha":635,"x_min":0,"x_max":0,"o":"m 89 -156 b 140 -158 104 -157 129 -158 b 300 14 224 -158 250 -136 l 247 14 l 13 667 l 124 667 l 325 90 l 329 90 l 513 667 l 622 667 l 425 75 b 158 -240 336 -192 293 -240 b 89 -237 136 -240 110 -239 m 258 822 l 163 822 l 163 944 l 258 944 m 485 822 l 389 822 l 389 944 l 485 944 "},"Ā":{"ha":878,"x_min":0,"x_max":0,"o":"m 861 0 l 740 0 l 667 214 l 211 214 l 136 0 l 17 0 l 360 944 l 525 944 m 638 303 l 446 860 l 438 860 l 238 303 m 596 1081 l 290 1081 l 290 1153 l 596 1153 "},"ā":{"ha":699,"x_min":0,"x_max":0,"o":"m 617 0 l 515 0 l 515 75 l 513 75 b 314 -8 482 15 431 -8 l 299 -8 b 67 192 115 -8 67 35 l 67 211 b 294 407 67 363 126 407 l 308 407 b 511 343 432 407 483 390 l 514 343 l 514 386 b 350 594 514 572 499 594 l 335 594 b 185 486 211 594 185 572 l 185 472 l 86 472 l 86 486 b 339 675 86 642 147 675 l 358 675 b 617 372 583 675 617 635 m 346 72 b 515 194 475 72 515 94 l 515 208 b 338 331 515 315 481 331 l 325 331 b 168 208 194 331 168 308 l 168 196 b 333 72 168 94 194 72 m 503 844 l 197 844 l 197 917 l 503 917 "},"Ă":{"ha":878,"x_min":0,"x_max":0,"o":"m 861 0 l 740 0 l 667 214 l 211 214 l 136 0 l 17 0 l 360 944 l 525 944 m 638 303 l 446 860 l 438 860 l 238 303 m 619 1190 b 444 1028 615 1076 550 1028 b 268 1190 336 1028 272 1076 l 329 1190 b 444 1097 339 1117 379 1097 b 560 1190 511 1097 550 1115 "},"ă":{"ha":699,"x_min":0,"x_max":0,"o":"m 617 0 l 515 0 l 515 75 l 513 75 b 314 -8 482 15 431 -8 l 299 -8 b 67 192 115 -8 67 35 l 67 211 b 294 407 67 363 126 407 l 308 407 b 511 343 432 407 483 390 l 514 343 l 514 386 b 350 594 514 572 499 594 l 335 594 b 185 486 211 594 185 572 l 185 472 l 86 472 l 86 486 b 339 675 86 642 147 675 l 358 675 b 617 372 583 675 617 635 m 346 72 b 515 194 475 72 515 94 l 515 208 b 338 331 515 315 481 331 l 325 331 b 168 208 194 331 168 308 l 168 196 b 333 72 168 94 194 72 m 528 947 b 353 785 524 833 458 785 b 176 947 244 785 181 833 l 238 947 b 353 854 247 874 288 854 b 468 947 419 854 458 872 "},"Ą":{"ha":878,"x_min":0,"x_max":0,"o":"m 861 0 l 844 0 b 703 -156 736 -64 703 -110 b 767 -204 703 -192 724 -204 b 850 -193 792 -204 822 -200 l 850 -249 b 743 -267 819 -258 781 -267 b 629 -176 667 -267 629 -239 b 765 0 629 -112 668 -62 l 740 0 l 667 214 l 211 214 l 136 0 l 17 0 l 360 944 l 525 944 m 636 303 l 446 860 l 438 860 l 238 303 "},"ą":{"ha":699,"x_min":0,"x_max":0,"o":"m 617 0 l 604 0 b 464 -156 497 -64 464 -112 b 528 -204 464 -192 485 -204 b 611 -193 553 -204 585 -200 l 611 -249 b 503 -267 579 -258 542 -267 b 389 -176 428 -267 389 -239 b 526 0 389 -114 429 -64 l 515 0 l 515 75 l 513 75 b 314 -8 482 15 431 -8 l 299 -8 b 67 192 115 -8 67 35 l 67 211 b 294 407 67 363 126 407 l 308 407 b 511 343 432 407 483 390 l 514 343 l 514 386 b 350 596 514 575 499 596 l 335 596 b 185 486 211 596 185 575 l 185 472 l 86 472 l 86 486 b 339 675 86 642 147 675 l 358 675 b 617 372 583 675 617 635 m 346 71 b 515 194 475 71 515 94 l 515 208 b 338 332 515 315 481 332 l 325 332 b 168 208 194 332 168 308 l 168 196 b 333 71 168 94 194 71 "},"Ć":{"ha":904,"x_min":0,"x_max":0,"o":"m 450 -8 b 72 433 135 -8 72 71 l 72 513 b 449 953 72 872 143 953 l 474 953 b 824 683 750 953 824 892 l 824 654 l 714 654 l 714 676 b 474 860 714 822 672 860 l 451 860 b 188 513 231 860 188 817 l 188 435 b 454 88 188 128 229 88 l 475 88 b 719 274 678 88 719 121 l 719 294 l 831 294 l 831 264 b 476 -8 831 49 749 -8 m 614 1140 l 368 1031 l 342 1074 l 571 1215 "},"ć":{"ha":701,"x_min":0,"x_max":0,"o":"m 349 -8 b 67 311 128 -8 67 53 l 67 357 b 350 675 67 618 135 675 l 374 675 b 633 453 578 675 633 622 l 633 433 l 533 433 l 533 447 b 372 592 533 563 501 592 l 353 592 b 174 357 207 592 174 557 l 174 311 b 354 78 174 114 208 78 l 375 78 b 536 225 506 78 536 108 l 536 240 l 638 240 l 638 222 b 371 -8 638 46 575 -8 m 281 761 l 249 801 l 447 983 l 501 915 "},"Ĉ":{"ha":904,"x_min":0,"x_max":0,"o":"m 450 -8 b 72 433 135 -8 72 71 l 72 513 b 449 953 72 872 143 953 l 474 953 b 824 683 750 953 824 892 l 824 654 l 714 654 l 714 676 b 474 860 714 822 672 860 l 451 860 b 188 513 231 860 188 817 l 188 435 b 454 88 188 128 229 88 l 475 88 b 719 274 678 88 719 121 l 719 294 l 831 294 l 831 264 b 476 -8 831 49 749 -8 m 604 1036 l 460 1138 l 317 1036 l 278 1078 l 460 1225 l 643 1078 "},"ĉ":{"ha":701,"x_min":0,"x_max":0,"o":"m 349 -8 b 67 311 128 -8 67 53 l 67 357 b 350 675 67 618 135 675 l 374 675 b 633 453 578 675 633 622 l 633 433 l 533 433 l 533 447 b 372 592 533 563 501 592 l 353 592 b 174 357 207 592 174 557 l 174 311 b 354 78 174 114 208 78 l 375 78 b 536 225 506 78 536 108 l 536 240 l 638 240 l 638 222 b 371 -8 638 46 575 -8 m 492 776 l 353 893 l 215 776 l 175 818 l 353 981 l 532 818 "},"Ċ":{"ha":904,"x_min":0,"x_max":0,"o":"m 450 -8 b 72 433 135 -8 72 71 l 72 513 b 449 953 72 872 143 953 l 474 953 b 824 683 750 953 824 892 l 824 654 l 714 654 l 714 676 b 474 860 714 822 672 860 l 451 860 b 188 513 231 860 188 817 l 188 435 b 454 88 188 128 229 88 l 475 88 b 719 274 678 88 719 121 l 719 294 l 831 294 l 831 264 b 476 -8 831 49 749 -8 m 511 1054 l 404 1054 l 404 1176 l 511 1176 "},"ċ":{"ha":701,"x_min":0,"x_max":0,"o":"m 349 -8 b 67 311 128 -8 67 53 l 67 357 b 350 675 67 618 135 675 l 374 675 b 633 453 578 675 633 622 l 633 433 l 533 433 l 533 447 b 372 592 533 563 501 592 l 353 592 b 174 357 207 592 174 557 l 174 311 b 354 78 174 114 208 78 l 375 78 b 536 225 506 78 536 108 l 536 240 l 638 240 l 638 222 b 371 -8 638 46 575 -8 m 406 822 l 299 822 l 299 944 l 406 944 "},"Č":{"ha":904,"x_min":0,"x_max":0,"o":"m 450 -8 b 72 433 135 -8 72 71 l 72 513 b 449 953 72 872 143 953 l 474 953 b 824 683 750 953 824 892 l 824 654 l 714 654 l 714 676 b 474 860 714 822 672 860 l 451 860 b 188 513 231 860 188 817 l 188 435 b 454 88 188 128 229 88 l 475 88 b 719 274 678 88 719 121 l 719 294 l 831 294 l 831 264 b 476 -8 831 49 749 -8 m 461 1017 l 279 1163 l 318 1204 l 461 1103 l 606 1204 l 644 1163 "},"č":{"ha":701,"x_min":0,"x_max":0,"o":"m 349 -8 b 67 311 128 -8 67 53 l 67 357 b 350 675 67 618 135 675 l 374 675 b 633 453 578 675 633 622 l 633 433 l 533 433 l 533 447 b 372 592 533 563 501 592 l 353 592 b 174 357 207 592 174 557 l 174 311 b 354 78 174 114 208 78 l 375 78 b 536 225 506 78 536 108 l 536 240 l 638 240 l 638 222 b 371 -8 638 46 575 -8 m 353 761 l 174 924 l 213 964 l 353 849 l 492 963 l 531 924 "},"Ď":{"ha":954,"x_min":0,"x_max":0,"o":"m 876 429 b 475 0 876 61 815 0 l 96 0 l 96 944 l 475 944 b 876 517 807 944 876 890 m 471 93 b 761 436 722 93 761 131 l 761 513 b 471 853 761 818 717 853 l 211 853 l 211 93 m 463 1017 l 281 1163 l 319 1204 l 463 1103 l 607 1204 l 646 1163 "},"ď":{"ha":742,"x_min":0,"x_max":0,"o":"m 651 0 l 549 0 l 549 96 l 546 96 b 333 -8 514 18 456 -8 l 318 -8 b 67 318 124 -8 67 61 l 67 353 b 315 675 67 614 129 675 l 335 675 b 543 576 454 675 514 649 l 544 576 l 544 944 l 651 944 m 367 78 b 549 296 511 78 549 114 l 549 374 b 367 592 549 549 511 592 l 349 592 b 174 354 210 592 174 554 l 174 315 b 349 78 174 118 210 78 m 824 843 b 725 694 824 736 797 701 l 725 743 b 761 831 753 750 761 763 l 761 840 l 731 840 l 731 944 l 824 944 "},"Đ":{"ha":954,"x_min":0,"x_max":0,"o":"m 25 524 l 96 524 l 96 944 l 475 944 b 876 517 807 944 876 890 l 876 429 b 475 0 876 61 815 0 l 96 0 l 96 453 l 25 453 m 471 93 b 761 436 722 93 761 131 l 761 513 b 471 853 761 818 717 853 l 211 853 l 211 524 l 439 524 l 439 453 l 211 453 l 211 93 "},"đ":{"ha":742,"x_min":0,"x_max":0,"o":"m 651 0 l 549 0 l 549 96 l 546 96 b 333 -8 514 18 456 -8 l 318 -8 b 67 318 124 -8 67 61 l 67 353 b 315 675 67 614 129 675 l 335 675 b 543 576 454 675 514 649 l 544 576 l 544 767 l 342 767 l 342 832 l 544 832 l 544 944 l 651 944 l 651 832 l 706 832 l 706 767 l 651 767 m 367 78 b 549 296 511 78 549 114 l 549 374 b 367 592 549 549 511 592 l 349 592 b 174 354 210 592 174 554 l 174 315 b 349 78 174 118 210 78 "},"Ē":{"ha":757,"x_min":0,"x_max":0,"o":"m 711 0 l 96 0 l 96 944 l 707 944 l 707 853 l 211 853 l 211 533 l 679 533 l 679 444 l 211 444 l 211 93 l 711 93 m 553 1081 l 247 1081 l 247 1153 l 553 1153 "},"ē":{"ha":703,"x_min":0,"x_max":0,"o":"m 346 -8 b 67 311 121 -8 67 50 l 67 354 b 342 675 67 619 128 675 l 364 675 b 632 399 578 675 632 618 l 632 319 l 171 319 l 171 296 b 351 76 171 111 200 76 l 369 76 b 536 213 506 76 536 103 l 536 225 l 636 225 l 636 210 b 371 -8 636 42 565 -8 m 531 392 l 531 415 b 363 594 531 561 507 594 l 347 594 b 169 392 199 594 172 565 m 508 844 l 203 844 l 203 917 l 508 917 "},"Ĕ":{"ha":757,"x_min":0,"x_max":0,"o":"m 711 0 l 96 0 l 96 944 l 707 944 l 707 853 l 211 853 l 211 533 l 679 533 l 679 444 l 211 444 l 211 93 l 711 93 m 576 1190 b 401 1028 572 1076 507 1028 b 225 1190 293 1028 229 1076 l 286 1190 b 401 1097 296 1117 336 1097 b 517 1190 468 1097 507 1115 "},"ĕ":{"ha":703,"x_min":0,"x_max":0,"o":"m 346 -8 b 67 311 121 -8 67 50 l 67 354 b 342 675 67 619 128 675 l 364 675 b 632 399 578 675 632 618 l 632 319 l 171 319 l 171 296 b 351 76 171 111 200 76 l 369 76 b 536 213 506 76 536 103 l 536 225 l 636 225 l 636 210 b 371 -8 636 42 565 -8 m 531 392 l 531 415 b 363 594 531 561 507 594 l 347 594 b 169 392 199 594 172 565 m 531 947 b 356 785 526 833 461 785 b 179 947 247 785 183 833 l 240 947 b 356 854 250 874 290 854 b 471 947 422 854 461 872 "},"Ė":{"ha":757,"x_min":0,"x_max":0,"o":"m 711 0 l 96 0 l 96 944 l 707 944 l 707 853 l 211 853 l 211 533 l 679 533 l 679 444 l 211 444 l 211 93 l 711 93 m 447 1054 l 340 1054 l 340 1176 l 447 1176 "},"ė":{"ha":703,"x_min":0,"x_max":0,"o":"m 346 -8 b 67 311 121 -8 67 50 l 67 354 b 342 675 67 619 128 675 l 364 675 b 632 399 578 675 632 618 l 632 319 l 171 319 l 171 296 b 351 76 171 111 200 76 l 369 76 b 536 213 506 76 536 103 l 536 225 l 636 225 l 636 210 b 371 -8 636 42 565 -8 m 531 392 l 531 415 b 363 594 531 561 507 594 l 347 594 b 169 392 199 594 172 565 m 406 822 l 299 822 l 299 944 l 406 944 "},"Ę":{"ha":757,"x_min":0,"x_max":0,"o":"m 692 -249 b 582 -267 660 -258 621 -267 b 468 -176 506 -267 468 -239 b 593 0 468 -114 511 -61 l 96 0 l 96 944 l 707 944 l 707 853 l 211 853 l 211 533 l 679 533 l 679 444 l 211 444 l 211 93 l 711 93 l 711 0 l 667 0 b 542 -156 576 -62 542 -110 b 607 -204 542 -192 564 -204 b 692 -193 632 -204 661 -200 "},"ę":{"ha":703,"x_min":0,"x_max":0,"o":"m 532 13 b 390 -156 425 -62 390 -114 b 454 -204 390 -192 411 -204 b 538 -193 479 -204 511 -200 l 538 -249 b 431 -267 507 -258 468 -267 b 315 -176 354 -267 315 -239 b 436 -6 315 -117 353 -68 b 371 -8 415 -7 394 -8 l 346 -8 b 67 311 121 -8 67 50 l 67 354 b 342 675 67 619 128 675 l 364 675 b 632 399 578 675 632 618 l 632 319 l 171 319 l 171 296 b 351 76 171 111 200 76 l 369 76 b 536 213 506 76 536 103 l 536 225 l 636 225 l 636 210 b 532 13 636 100 606 40 m 531 392 l 531 415 b 363 594 531 561 507 594 l 347 594 b 169 392 199 594 172 565 "},"Ě":{"ha":757,"x_min":0,"x_max":0,"o":"m 711 0 l 96 0 l 96 944 l 707 944 l 707 853 l 211 853 l 211 533 l 679 533 l 679 444 l 211 444 l 211 93 l 711 93 m 397 1017 l 215 1163 l 254 1204 l 397 1103 l 542 1204 l 581 1163 "},"ě":{"ha":703,"x_min":0,"x_max":0,"o":"m 346 -8 b 67 311 121 -8 67 50 l 67 354 b 342 675 67 619 128 675 l 364 675 b 632 399 578 675 632 618 l 632 319 l 171 319 l 171 296 b 351 76 171 111 200 76 l 369 76 b 536 213 506 76 536 103 l 536 225 l 636 225 l 636 210 b 371 -8 636 42 565 -8 m 531 392 l 531 415 b 363 594 531 561 507 594 l 347 594 b 169 392 199 594 172 565 m 356 761 l 176 924 l 215 964 l 356 849 l 494 963 l 533 924 "},"Ĝ":{"ha":907,"x_min":0,"x_max":0,"o":"m 451 -8 b 75 433 146 -8 75 71 l 75 514 b 453 953 75 885 157 953 l 478 953 b 828 689 754 953 828 889 l 828 667 l 717 667 l 717 686 b 476 860 717 826 675 860 l 456 860 b 190 513 233 860 190 819 l 190 433 b 456 88 190 133 236 88 l 476 88 b 725 297 679 88 725 119 l 725 382 l 431 382 l 431 468 l 836 468 l 836 310 b 476 -8 836 60 763 -8 m 603 1036 l 458 1138 l 315 1036 l 276 1078 l 458 1225 l 642 1078 "},"ĝ":{"ha":738,"x_min":0,"x_max":0,"o":"m 336 -244 b 79 -47 135 -244 79 -208 l 79 -31 l 179 -31 l 179 -43 b 336 -160 179 -137 203 -160 l 360 -160 b 543 39 525 -160 543 -142 l 543 133 l 540 133 b 326 33 511 63 457 33 l 311 33 b 67 333 129 33 67 94 l 67 364 b 311 675 67 611 129 675 l 328 675 b 543 575 451 675 510 650 l 544 575 l 544 667 l 649 667 l 649 46 b 360 -244 649 -204 594 -244 m 361 117 b 544 333 513 117 544 157 l 544 365 b 363 592 544 551 511 592 l 343 592 b 172 365 207 592 172 551 l 172 333 b 343 117 172 157 210 117 m 488 776 l 349 893 l 211 776 l 171 818 l 349 981 l 528 818 "},"Ğ":{"ha":907,"x_min":0,"x_max":0,"o":"m 451 -8 b 75 433 146 -8 75 71 l 75 514 b 453 953 75 885 157 953 l 478 953 b 828 689 754 953 828 889 l 828 667 l 717 667 l 717 686 b 476 860 717 826 675 860 l 456 860 b 190 513 233 860 190 819 l 190 433 b 456 88 190 133 236 88 l 476 88 b 725 297 679 88 725 119 l 725 382 l 431 382 l 431 468 l 836 468 l 836 310 b 476 -8 836 60 763 -8 m 635 1190 b 460 1028 631 1076 565 1028 b 283 1190 351 1028 288 1076 l 344 1190 b 460 1097 354 1117 394 1097 b 575 1190 526 1097 565 1115 "},"ğ":{"ha":738,"x_min":0,"x_max":0,"o":"m 336 -244 b 79 -47 135 -244 79 -208 l 79 -31 l 179 -31 l 179 -43 b 336 -160 179 -137 203 -160 l 360 -160 b 543 39 525 -160 543 -142 l 543 133 l 540 133 b 326 33 511 63 457 33 l 311 33 b 67 333 129 33 67 94 l 67 364 b 311 675 67 611 129 675 l 328 675 b 543 575 451 675 510 650 l 544 575 l 544 667 l 649 667 l 649 46 b 360 -244 649 -204 594 -244 m 361 117 b 544 333 513 117 544 157 l 544 365 b 363 592 544 551 511 592 l 343 592 b 172 365 207 592 172 551 l 172 333 b 343 117 172 157 210 117 m 528 947 b 353 785 524 833 458 785 b 176 947 244 785 181 833 l 238 947 b 353 854 247 874 288 854 b 468 947 419 854 458 872 "},"Ġ":{"ha":907,"x_min":0,"x_max":0,"o":"m 451 -8 b 75 433 146 -8 75 71 l 75 514 b 453 953 75 885 157 953 l 478 953 b 828 689 754 953 828 889 l 828 667 l 717 667 l 717 686 b 476 860 717 826 675 860 l 456 860 b 190 513 233 860 190 819 l 190 433 b 456 88 190 133 236 88 l 476 88 b 725 297 679 88 725 119 l 725 382 l 431 382 l 431 468 l 836 468 l 836 310 b 476 -8 836 60 763 -8 m 513 1054 l 406 1054 l 406 1176 l 513 1176 "},"ġ":{"ha":738,"x_min":0,"x_max":0,"o":"m 336 -244 b 79 -47 135 -244 79 -208 l 79 -31 l 179 -31 l 179 -43 b 336 -160 179 -137 203 -160 l 360 -160 b 543 39 525 -160 543 -142 l 543 133 l 540 133 b 326 33 511 63 457 33 l 311 33 b 67 333 129 33 67 94 l 67 364 b 311 675 67 611 129 675 l 328 675 b 543 575 451 675 510 650 l 544 575 l 544 667 l 649 667 l 649 46 b 360 -244 649 -204 594 -244 m 361 117 b 544 333 513 117 544 157 l 544 365 b 363 592 544 551 511 592 l 343 592 b 172 365 207 592 172 551 l 172 333 b 343 117 172 157 210 117 m 403 822 l 296 822 l 296 944 l 403 944 "},"Ģ":{"ha":907,"x_min":0,"x_max":0,"o":"m 451 -8 b 75 433 146 -8 75 71 l 75 514 b 453 953 75 885 157 953 l 478 953 b 828 689 754 953 828 889 l 828 667 l 717 667 l 717 686 b 476 860 717 826 675 860 l 456 860 b 190 513 233 860 190 819 l 190 433 b 456 88 190 133 236 88 l 476 88 b 725 297 679 88 725 119 l 725 382 l 431 382 l 431 468 l 836 468 l 836 310 b 476 -8 836 60 763 -8 m 518 -174 b 404 -310 518 -271 496 -304 l 404 -265 b 456 -181 446 -260 456 -246 l 456 -172 l 425 -172 l 425 -68 l 518 -68 "},"ģ":{"ha":738,"x_min":0,"x_max":0,"o":"m 336 -244 b 79 -47 135 -244 79 -208 l 79 -31 l 179 -31 l 179 -43 b 336 -160 179 -137 203 -160 l 360 -160 b 543 39 525 -160 543 -142 l 543 133 l 540 133 b 326 33 511 63 457 33 l 311 33 b 67 333 129 33 67 94 l 67 364 b 311 675 67 611 129 675 l 328 675 b 543 575 451 675 510 650 l 544 575 l 544 667 l 649 667 l 649 46 b 360 -244 649 -204 594 -244 m 361 117 b 544 333 513 117 544 157 l 544 365 b 363 592 544 551 511 592 l 343 592 b 172 365 207 592 172 551 l 172 333 b 343 117 172 157 210 117 m 393 758 l 300 758 l 300 864 b 414 1000 300 961 322 994 l 414 956 b 363 871 372 950 363 936 l 363 863 l 393 863 "},"Ĥ":{"ha":939,"x_min":0,"x_max":0,"o":"m 843 0 l 728 0 l 728 440 l 211 440 l 211 0 l 96 0 l 96 944 l 211 944 l 211 542 l 728 542 l 728 944 l 843 944 m 614 1036 l 469 1138 l 326 1036 l 288 1078 l 469 1225 l 653 1078 "},"ĥ":{"ha":749,"x_min":0,"x_max":0,"o":"m 663 0 l 556 0 l 556 393 b 393 589 556 560 533 589 l 379 589 b 197 393 251 589 197 553 l 197 0 l 90 0 l 90 944 l 197 944 l 197 560 l 199 560 b 415 675 228 635 279 675 l 428 675 b 663 419 614 675 663 626 m 293 1036 l 149 1138 l 6 1036 l -33 1078 l 149 1225 l 332 1078 "},"Ħ":{"ha":939,"x_min":0,"x_max":0,"o":"m 843 0 l 728 0 l 728 440 l 211 440 l 211 0 l 96 0 l 96 699 l 35 699 l 35 765 l 96 765 l 96 944 l 211 944 l 211 765 l 728 765 l 728 944 l 843 944 l 843 765 l 904 765 l 904 699 l 843 699 m 728 542 l 728 699 l 211 699 l 211 542 "},"ħ":{"ha":749,"x_min":0,"x_max":0,"o":"m 33 832 l 90 832 l 90 944 l 197 944 l 197 832 l 397 832 l 397 767 l 197 767 l 197 560 l 199 560 b 415 675 228 635 279 675 l 428 675 b 663 419 614 675 663 626 l 663 0 l 556 0 l 556 393 b 393 589 556 560 533 589 l 379 589 b 197 393 251 589 197 553 l 197 0 l 90 0 l 90 767 l 33 767 "},"Ĩ":{"ha":307,"x_min":0,"x_max":0,"o":"m 211 0 l 96 0 l 96 944 l 211 944 m 329 1181 b 229 1054 322 1099 292 1054 b 144 1089 196 1054 171 1069 b 79 1117 118 1107 100 1117 b 25 1053 53 1117 33 1103 l -22 1064 b 76 1188 -17 1143 17 1188 b 158 1157 107 1188 132 1175 b 228 1126 186 1138 207 1126 b 281 1190 258 1126 275 1144 "},"ĩ":{"ha":288,"x_min":0,"x_max":0,"o":"m 197 0 l 90 0 l 90 667 l 197 667 m 319 936 b 219 810 313 854 282 810 b 135 844 186 810 161 825 b 69 872 108 863 90 872 b 15 808 43 872 24 858 l -32 819 b 67 943 -26 899 7 943 b 149 913 97 943 122 931 b 218 882 176 893 197 882 b 271 946 249 882 265 900 "},"Ī":{"ha":307,"x_min":0,"x_max":0,"o":"m 211 0 l 96 0 l 96 944 l 211 944 m 306 1081 l 0 1081 l 0 1153 l 306 1153 "},"ī":{"ha":288,"x_min":0,"x_max":0,"o":"m 197 0 l 90 0 l 90 667 l 197 667 m 296 844 l -10 844 l -10 917 l 296 917 "},"Į":{"ha":307,"x_min":0,"x_max":0,"o":"m 233 -250 b 132 -267 204 -260 169 -267 b 18 -176 60 -267 18 -242 b 126 0 18 -114 56 -62 l 96 0 l 96 944 l 211 944 l 211 0 l 190 0 b 92 -157 118 -67 92 -118 b 156 -204 92 -193 114 -204 b 233 -194 181 -204 208 -201 "},"į":{"ha":288,"x_min":0,"x_max":0,"o":"m 224 -250 b 121 -267 193 -260 158 -267 b 7 -176 47 -267 7 -242 b 115 0 7 -115 46 -61 l 90 1 l 90 667 l 197 667 l 197 0 l 179 0 b 81 -157 107 -67 81 -118 b 144 -204 81 -193 103 -204 b 224 -194 169 -204 197 -201 m 197 822 l 90 822 l 90 944 l 197 944 "},"İ":{"ha":307,"x_min":0,"x_max":0,"o":"m 211 0 l 96 0 l 96 944 l 211 944 m 207 1054 l 100 1054 l 100 1176 l 207 1176 "},"ı":{"ha":288,"x_min":0,"x_max":0,"o":"m 197 0 l 90 0 l 90 667 l 197 667 "},"Ĳ":{"ha":1058,"x_min":0,"x_max":0,"o":"m 211 0 l 96 0 l 96 944 l 211 944 m 639 -8 b 365 282 408 -8 365 35 l 365 319 l 471 319 l 471 290 b 643 88 471 110 493 88 l 664 88 b 854 313 833 88 854 111 l 854 944 l 969 944 l 969 319 b 665 -8 969 42 924 -8 "},"ĳ":{"ha":574,"x_min":0,"x_max":0,"o":"m 197 0 l 90 0 l 90 667 l 197 667 m 197 822 l 90 822 l 90 944 l 197 944 m 485 -62 b 343 -240 485 -200 443 -240 b 293 -236 328 -240 311 -240 l 293 -151 b 322 -153 307 -153 315 -153 b 378 -50 365 -153 378 -142 l 378 667 l 485 667 m 485 822 l 378 822 l 378 944 l 485 944 "},"Ĵ":{"ha":726,"x_min":0,"x_max":0,"o":"m 307 -8 b 33 282 76 -8 33 35 l 33 319 l 139 319 l 139 290 b 311 88 139 110 161 88 l 332 88 b 522 313 501 88 522 111 l 522 944 l 638 944 l 638 319 b 333 -8 638 42 592 -8 m 721 1036 l 576 1138 l 433 1036 l 394 1078 l 576 1225 l 760 1078 "},"ĵ":{"ha":286,"x_min":0,"x_max":0,"o":"m 197 -62 b 56 -240 197 -200 156 -240 b 6 -236 40 -240 24 -240 l 6 -151 b 35 -153 19 -153 28 -153 b 90 -50 78 -153 90 -142 l 90 667 l 197 667 m 281 776 l 142 893 l 4 776 l -36 818 l 142 981 l 321 818 "},"Ķ":{"ha":864,"x_min":0,"x_max":0,"o":"m 851 0 l 701 0 l 311 438 l 210 438 l 210 0 l 96 0 l 96 944 l 210 944 l 210 526 l 315 526 l 686 944 l 825 944 l 407 485 m 471 -174 b 357 -310 471 -271 449 -304 l 357 -265 b 408 -181 399 -260 408 -246 l 408 -172 l 378 -172 l 378 -68 l 471 -68 "},"ķ":{"ha":651,"x_min":0,"x_max":0,"o":"m 639 0 l 511 0 l 233 322 l 197 322 l 197 0 l 90 0 l 90 944 l 197 944 l 197 390 l 239 390 l 482 667 l 608 667 l 322 357 m 381 -174 b 267 -310 381 -271 358 -304 l 267 -265 b 318 -181 308 -260 318 -246 l 318 -172 l 288 -172 l 288 -68 l 381 -68 "},"Ĺ":{"ha":681,"x_min":0,"x_max":0,"o":"m 664 0 l 96 0 l 96 944 l 211 944 l 211 94 l 664 94 m 400 1140 l 154 1031 l 128 1074 l 357 1215 "},"ĺ":{"ha":288,"x_min":0,"x_max":0,"o":"m 197 0 l 90 0 l 90 944 l 197 944 m 375 1140 l 129 1031 l 103 1074 l 332 1215 "},"Ļ":{"ha":681,"x_min":0,"x_max":0,"o":"m 664 0 l 96 0 l 96 944 l 211 944 l 211 94 l 664 94 m 431 -174 b 317 -310 431 -271 408 -304 l 317 -265 b 368 -181 358 -260 368 -246 l 368 -172 l 338 -172 l 338 -68 l 431 -68 "},"ļ":{"ha":288,"x_min":0,"x_max":0,"o":"m 197 0 l 90 0 l 90 944 l 197 944 m 192 -174 b 78 -310 192 -271 169 -304 l 78 -265 b 129 -181 119 -260 129 -246 l 129 -172 l 99 -172 l 99 -68 l 192 -68 "},"Ľ":{"ha":681,"x_min":0,"x_max":0,"o":"m 664 0 l 96 0 l 96 944 l 211 944 l 211 94 l 664 94 m 418 843 b 319 694 418 736 392 701 l 319 743 b 356 831 347 750 356 763 l 356 840 l 325 840 l 325 944 l 418 944 "},"ľ":{"ha":288,"x_min":0,"x_max":0,"o":"m 197 0 l 90 0 l 90 944 l 197 944 m 369 843 b 271 694 369 736 343 701 l 271 743 b 307 831 299 750 307 763 l 307 840 l 276 840 l 276 944 l 369 944 "},"Ŀ":{"ha":681,"x_min":0,"x_max":0,"o":"m 664 0 l 96 0 l 96 944 l 211 944 l 211 94 l 664 94 m 563 425 l 449 425 l 449 572 l 563 572 "},"ŀ":{"ha":415,"x_min":0,"x_max":0,"o":"m 197 0 l 90 0 l 90 944 l 197 944 m 408 411 l 294 411 l 294 558 l 408 558 "},"Ł":{"ha":681,"x_min":0,"x_max":0,"o":"m 664 0 l 96 0 l 96 392 l 15 349 l 15 426 l 96 469 l 96 944 l 211 944 l 211 525 l 415 633 l 415 556 l 211 447 l 211 94 l 664 94 "},"ł":{"ha":288,"x_min":0,"x_max":0,"o":"m 197 0 l 90 0 l 90 413 l 22 357 l 22 439 l 90 493 l 90 944 l 197 944 l 197 554 l 265 610 l 265 531 l 197 474 "},"Ń":{"ha":981,"x_min":0,"x_max":0,"o":"m 885 0 l 710 0 l 208 846 l 203 846 l 204 0 l 96 0 l 96 944 l 274 944 l 774 101 l 778 101 l 775 944 l 885 944 m 647 1140 l 401 1031 l 375 1074 l 604 1215 "},"ń":{"ha":749,"x_min":0,"x_max":0,"o":"m 663 0 l 556 0 l 556 392 b 393 589 556 558 533 589 l 379 589 b 197 392 253 589 197 551 l 197 0 l 90 0 l 90 667 l 196 667 l 196 560 l 197 560 b 415 675 226 635 278 675 l 428 675 b 663 419 614 675 663 624 m 306 761 l 274 801 l 472 983 l 526 915 "},"Ņ":{"ha":981,"x_min":0,"x_max":0,"o":"m 885 0 l 710 0 l 208 846 l 203 846 l 204 0 l 96 0 l 96 944 l 274 944 l 774 101 l 778 101 l 775 944 l 885 944 m 553 -174 b 439 -310 553 -271 531 -304 l 439 -265 b 490 -181 481 -260 490 -246 l 490 -172 l 460 -172 l 460 -68 l 553 -68 "},"ņ":{"ha":749,"x_min":0,"x_max":0,"o":"m 663 0 l 556 0 l 556 392 b 393 589 556 558 533 589 l 379 589 b 197 392 253 589 197 551 l 197 0 l 90 0 l 90 667 l 196 667 l 196 560 l 197 560 b 415 675 226 635 278 675 l 428 675 b 663 419 614 675 663 624 m 431 -174 b 317 -310 431 -271 408 -304 l 317 -265 b 368 -181 358 -260 368 -246 l 368 -172 l 338 -172 l 338 -68 l 431 -68 "},"Ň":{"ha":981,"x_min":0,"x_max":0,"o":"m 885 0 l 710 0 l 208 846 l 203 846 l 204 0 l 96 0 l 96 944 l 274 944 l 774 101 l 778 101 l 775 944 l 885 944 m 501 1017 l 319 1163 l 358 1204 l 501 1103 l 646 1204 l 685 1163 "},"ň":{"ha":749,"x_min":0,"x_max":0,"o":"m 663 0 l 556 0 l 556 392 b 393 589 556 558 533 589 l 379 589 b 197 392 253 589 197 551 l 197 0 l 90 0 l 90 667 l 196 667 l 196 560 l 197 560 b 415 675 226 635 278 675 l 428 675 b 663 419 614 675 663 624 m 389 761 l 210 924 l 249 964 l 389 849 l 528 963 l 567 924 "},"ŉ":{"ha":764,"x_min":0,"x_max":0,"o":"m 678 0 l 571 0 l 571 392 b 408 589 571 558 549 589 l 394 589 b 213 392 268 589 213 551 l 213 0 l 106 0 l 106 667 l 211 667 l 211 560 l 213 560 b 431 675 242 635 293 675 l 443 675 b 678 419 629 675 678 624 m 94 829 b -4 681 94 722 68 688 l -4 729 b 32 817 24 736 32 749 l 32 826 l 1 826 l 1 931 l 94 931 "},"Ō":{"ha":943,"x_min":0,"x_max":0,"o":"m 74 513 b 458 953 74 875 147 953 l 485 953 b 869 513 796 953 869 875 l 869 432 b 485 -8 869 69 796 -8 l 458 -8 b 74 432 147 -8 74 69 m 189 433 b 460 88 189 131 232 88 l 485 88 b 754 433 711 88 754 131 l 754 513 b 485 860 754 815 711 860 l 460 860 b 189 513 232 860 189 815 m 624 1081 l 318 1081 l 318 1153 l 624 1153 "},"ō":{"ha":729,"x_min":0,"x_max":0,"o":"m 353 -8 b 67 311 131 -8 67 58 l 67 357 b 353 675 67 607 131 675 l 376 675 b 663 357 599 675 663 607 l 663 311 b 376 -8 663 58 599 -8 m 374 76 b 557 311 526 76 557 117 l 557 357 b 374 592 557 551 526 592 l 356 592 b 172 357 203 592 172 551 l 172 311 b 356 76 172 117 203 76 m 521 844 l 215 844 l 215 917 l 521 917 "},"Ŏ":{"ha":943,"x_min":0,"x_max":0,"o":"m 74 513 b 458 953 74 875 147 953 l 485 953 b 869 513 796 953 869 875 l 869 432 b 485 -8 869 69 796 -8 l 458 -8 b 74 432 147 -8 74 69 m 189 433 b 460 88 189 131 232 88 l 485 88 b 754 433 711 88 754 131 l 754 513 b 485 860 754 815 711 860 l 460 860 b 189 513 232 860 189 815 m 647 1190 b 472 1028 643 1076 578 1028 b 296 1190 364 1028 300 1076 l 357 1190 b 472 1097 367 1117 407 1097 b 588 1190 539 1097 578 1115 "},"ŏ":{"ha":729,"x_min":0,"x_max":0,"o":"m 353 -8 b 67 311 131 -8 67 58 l 67 357 b 353 675 67 607 131 675 l 376 675 b 663 357 599 675 663 607 l 663 311 b 376 -8 663 58 599 -8 m 374 76 b 557 311 526 76 557 117 l 557 357 b 374 592 557 551 526 592 l 356 592 b 172 357 203 592 172 551 l 172 311 b 356 76 172 117 203 76 m 543 947 b 368 785 539 833 474 785 b 192 947 260 785 196 833 l 253 947 b 368 854 263 874 303 854 b 483 947 435 854 474 872 "},"Ő":{"ha":943,"x_min":0,"x_max":0,"o":"m 74 513 b 458 953 74 875 147 953 l 485 953 b 869 513 796 953 869 875 l 869 432 b 485 -8 869 69 796 -8 l 458 -8 b 74 432 147 -8 74 69 m 189 433 b 460 88 189 131 232 88 l 485 88 b 754 433 711 88 754 131 l 754 513 b 485 860 754 815 711 860 l 460 860 b 189 513 232 860 189 815 m 361 1014 l 329 1053 l 500 1228 l 550 1172 m 553 1013 l 521 1051 l 693 1226 l 743 1172 "},"ő":{"ha":729,"x_min":0,"x_max":0,"o":"m 353 -8 b 67 311 131 -8 67 58 l 67 357 b 353 675 67 607 131 675 l 376 675 b 663 357 599 675 663 607 l 663 311 b 376 -8 663 58 599 -8 m 374 76 b 557 311 526 76 557 117 l 557 357 b 374 592 557 551 526 592 l 356 592 b 172 357 203 592 172 551 l 172 311 b 356 76 172 117 203 76 m 450 935 l 271 764 l 236 801 l 396 986 m 639 933 l 457 763 l 422 800 l 585 985 "},"Ŕ":{"ha":883,"x_min":0,"x_max":0,"o":"m 519 461 b 683 635 646 461 683 503 l 683 669 b 475 853 683 824 651 853 l 210 853 l 210 461 m 799 0 l 683 0 l 683 128 b 482 371 683 344 664 371 l 210 371 l 210 0 l 96 0 l 96 944 l 499 944 b 799 683 746 944 799 888 l 799 651 b 667 425 799 496 757 443 l 667 422 b 799 169 772 403 799 354 m 586 1140 l 340 1031 l 314 1074 l 543 1215 "},"ŕ":{"ha":610,"x_min":0,"x_max":0,"o":"m 197 0 l 90 0 l 90 667 l 194 667 l 194 550 l 197 550 b 389 675 224 636 275 675 l 399 675 b 579 475 549 675 579 626 l 579 417 l 485 417 l 485 451 b 358 586 485 563 464 586 l 347 586 b 197 378 251 586 197 547 m 242 761 l 210 801 l 408 983 l 463 915 "},"Ŗ":{"ha":883,"x_min":0,"x_max":0,"o":"m 519 461 b 683 635 646 461 683 503 l 683 669 b 475 853 683 824 651 853 l 210 853 l 210 461 m 799 0 l 683 0 l 683 128 b 482 371 683 344 664 371 l 210 371 l 210 0 l 96 0 l 96 944 l 499 944 b 799 683 746 944 799 888 l 799 651 b 667 425 799 496 757 443 l 667 422 b 799 169 772 403 799 354 m 500 -174 b 386 -310 500 -271 478 -304 l 386 -265 b 438 -181 428 -260 438 -246 l 438 -172 l 407 -172 l 407 -68 l 500 -68 "},"ŗ":{"ha":610,"x_min":0,"x_max":0,"o":"m 197 0 l 90 0 l 90 667 l 194 667 l 194 550 l 197 550 b 389 675 224 636 275 675 l 399 675 b 579 475 549 675 579 626 l 579 417 l 485 417 l 485 451 b 358 586 485 563 464 586 l 347 586 b 197 378 251 586 197 547 m 192 -174 b 78 -310 192 -271 169 -304 l 78 -265 b 129 -181 119 -260 129 -246 l 129 -172 l 99 -172 l 99 -68 l 192 -68 "},"Ř":{"ha":883,"x_min":0,"x_max":0,"o":"m 519 461 b 683 635 646 461 683 503 l 683 669 b 475 853 683 824 651 853 l 210 853 l 210 461 m 799 0 l 683 0 l 683 128 b 482 371 683 344 664 371 l 210 371 l 210 0 l 96 0 l 96 944 l 499 944 b 799 683 746 944 799 888 l 799 651 b 667 425 799 496 757 443 l 667 422 b 799 169 772 403 799 354 m 436 1017 l 254 1163 l 293 1204 l 436 1103 l 581 1204 l 619 1163 "},"ř":{"ha":610,"x_min":0,"x_max":0,"o":"m 197 0 l 90 0 l 90 667 l 194 667 l 194 550 l 197 550 b 389 675 224 636 275 675 l 399 675 b 579 475 549 675 579 626 l 579 417 l 485 417 l 485 451 b 358 586 485 563 464 586 l 347 586 b 197 378 251 586 197 547 m 318 761 l 139 924 l 178 964 l 318 849 l 457 963 l 496 924 "},"Ś":{"ha":860,"x_min":0,"x_max":0,"o":"m 788 258 b 465 -8 788 46 719 -8 l 433 -8 b 76 257 126 -8 76 38 l 76 296 l 185 296 l 185 263 b 426 83 185 115 219 83 l 453 83 b 674 254 638 83 674 111 l 674 274 b 415 436 674 390 650 418 b 86 685 143 457 86 513 l 86 707 b 400 953 86 890 151 953 l 428 953 b 765 693 713 953 765 896 l 765 663 l 656 663 l 656 688 b 433 863 656 828 624 863 l 410 863 b 199 706 233 863 199 833 l 199 686 b 453 533 199 581 228 551 b 788 281 733 511 788 457 m 588 1140 l 342 1031 l 315 1074 l 544 1215 "},"ś":{"ha":686,"x_min":0,"x_max":0,"o":"m 335 -8 b 68 182 113 -8 68 31 l 68 203 l 168 203 l 168 192 b 335 74 168 93 190 74 l 367 74 b 521 182 497 74 521 94 l 521 193 b 324 303 521 268 500 290 b 81 481 125 317 81 360 l 81 497 b 319 675 81 631 136 675 l 347 675 b 603 488 556 675 603 639 l 603 472 l 506 472 l 506 483 b 353 594 506 575 482 594 l 329 594 b 182 497 203 594 182 574 l 182 482 b 356 390 182 422 203 401 b 624 203 569 375 624 331 l 624 185 b 369 -8 624 35 563 -8 m 265 761 l 233 801 l 432 983 l 486 915 "},"Ŝ":{"ha":860,"x_min":0,"x_max":0,"o":"m 788 258 b 465 -8 788 46 719 -8 l 433 -8 b 76 257 126 -8 76 38 l 76 296 l 185 296 l 185 263 b 426 83 185 115 219 83 l 453 83 b 674 254 638 83 674 111 l 674 274 b 415 436 674 390 650 418 b 86 685 143 457 86 513 l 86 707 b 400 953 86 890 151 953 l 428 953 b 765 693 713 953 765 896 l 765 663 l 656 663 l 656 688 b 433 863 656 828 624 863 l 410 863 b 199 706 233 863 199 833 l 199 686 b 453 533 199 581 228 551 b 788 281 733 511 788 457 m 574 1036 l 429 1138 l 286 1036 l 247 1078 l 429 1225 l 613 1078 "},"ŝ":{"ha":686,"x_min":0,"x_max":0,"o":"m 335 -8 b 68 182 113 -8 68 31 l 68 203 l 168 203 l 168 192 b 335 74 168 93 190 74 l 367 74 b 521 182 497 74 521 94 l 521 193 b 324 303 521 268 500 290 b 81 481 125 317 81 360 l 81 497 b 319 675 81 631 136 675 l 347 675 b 603 488 556 675 603 639 l 603 472 l 506 472 l 506 483 b 353 594 506 575 482 594 l 329 594 b 182 497 203 594 182 574 l 182 482 b 356 390 182 422 203 401 b 624 203 569 375 624 331 l 624 185 b 369 -8 624 35 563 -8 m 478 776 l 339 893 l 201 776 l 161 818 l 339 981 l 518 818 "},"Ş":{"ha":860,"x_min":0,"x_max":0,"o":"m 788 258 b 465 -8 788 46 719 -8 l 433 -8 b 76 257 126 -8 76 38 l 76 296 l 185 296 l 185 263 b 426 83 185 115 219 83 l 453 83 b 674 254 638 83 674 111 l 674 274 b 415 436 674 390 650 418 b 86 685 143 457 86 513 l 86 707 b 400 953 86 890 151 953 l 428 953 b 765 693 713 953 765 896 l 765 663 l 656 663 l 656 688 b 433 863 656 828 624 863 l 410 863 b 199 706 233 863 199 833 l 199 686 b 453 533 199 581 228 551 b 788 281 733 511 788 457 m 311 -239 l 276 -204 l 456 -10 l 514 -71 "},"ş":{"ha":686,"x_min":0,"x_max":0,"o":"m 335 -8 b 68 182 113 -8 68 31 l 68 203 l 168 203 l 168 192 b 335 74 168 93 190 74 l 367 74 b 521 182 497 74 521 94 l 521 193 b 324 303 521 268 500 290 b 81 481 125 317 81 360 l 81 497 b 319 675 81 631 136 675 l 347 675 b 603 488 556 675 603 639 l 603 472 l 506 472 l 506 483 b 353 594 506 575 482 594 l 329 594 b 182 497 203 594 182 574 l 182 482 b 356 390 182 422 203 401 b 624 203 569 375 624 331 l 624 185 b 369 -8 624 35 563 -8 m 225 -239 l 190 -204 l 369 -10 l 428 -71 "},"Ţ":{"ha":749,"x_min":0,"x_max":0,"o":"m 432 0 l 317 0 l 317 851 l 17 851 l 17 944 l 732 944 l 732 851 l 432 851 m 424 -174 b 310 -310 424 -271 401 -304 l 310 -265 b 361 -181 351 -260 361 -246 l 361 -172 l 331 -172 l 331 -68 l 424 -68 "},"ţ":{"ha":563,"x_min":0,"x_max":0,"o":"m 301 -8 b 110 253 149 -8 110 26 l 110 588 l 17 588 l 17 667 l 110 667 l 110 840 l 215 840 l 215 667 l 519 667 l 519 588 l 215 588 l 215 260 b 317 78 215 92 229 78 l 332 78 b 435 247 422 78 435 97 l 435 300 l 524 300 l 524 229 b 324 -8 524 32 483 -8 m 368 -174 b 254 -310 368 -271 346 -304 l 254 -265 b 306 -181 296 -260 306 -246 l 306 -172 l 275 -172 l 275 -68 l 368 -68 "},"Ť":{"ha":749,"x_min":0,"x_max":0,"o":"m 432 0 l 317 0 l 317 851 l 17 851 l 17 944 l 732 944 l 732 851 l 432 851 m 376 1017 l 194 1163 l 233 1204 l 376 1103 l 521 1204 l 560 1163 "},"ť":{"ha":563,"x_min":0,"x_max":0,"o":"m 308 -8 b 117 253 156 -8 117 26 l 117 588 l 24 588 l 24 667 l 117 667 l 117 840 l 222 840 l 222 667 l 454 667 l 454 588 l 222 588 l 222 260 b 324 78 222 92 236 78 l 339 78 b 442 247 429 78 442 97 l 442 300 l 531 300 l 531 229 b 331 -8 531 32 490 -8 m 592 843 b 493 694 592 736 565 701 l 493 743 b 529 831 521 750 529 763 l 529 840 l 499 840 l 499 944 l 592 944 "},"Ŧ":{"ha":749,"x_min":0,"x_max":0,"o":"m 432 0 l 317 0 l 317 596 l 101 596 l 101 665 l 317 665 l 317 851 l 17 851 l 17 944 l 732 944 l 732 851 l 432 851 l 432 665 l 651 665 l 651 596 l 432 596 "},"ŧ":{"ha":563,"x_min":0,"x_max":0,"o":"m 42 483 l 110 483 l 110 588 l 17 588 l 17 667 l 110 667 l 110 840 l 215 840 l 215 667 l 519 667 l 519 588 l 215 588 l 215 483 l 401 483 l 401 429 l 215 429 l 215 260 b 317 78 215 92 229 78 l 332 78 b 435 247 422 78 435 97 l 435 300 l 524 300 l 524 229 b 324 -8 524 32 483 -8 l 301 -8 b 110 253 149 -8 110 26 l 110 429 l 42 429 "},"Ũ":{"ha":926,"x_min":0,"x_max":0,"o":"m 451 -8 b 89 307 154 -8 89 39 l 89 944 l 204 944 l 204 317 b 449 88 204 113 246 88 l 475 88 b 722 317 678 88 722 113 l 722 944 l 838 944 l 838 307 b 472 -8 838 39 769 -8 m 639 1181 b 539 1054 632 1099 601 1054 b 454 1089 506 1054 481 1069 b 389 1117 428 1107 410 1117 b 335 1053 363 1117 343 1103 l 288 1064 b 386 1188 293 1143 326 1188 b 468 1157 417 1188 442 1175 b 538 1126 496 1138 517 1126 b 590 1190 568 1126 585 1144 "},"ũ":{"ha":743,"x_min":0,"x_max":0,"o":"m 653 0 l 547 0 l 547 108 l 546 108 b 328 -8 517 33 464 -8 l 315 -8 b 81 251 132 -8 81 47 l 81 667 l 188 667 l 188 278 b 350 76 188 108 213 76 l 363 76 b 546 275 490 76 546 113 l 546 667 l 653 667 m 547 936 b 447 810 540 854 510 810 b 363 844 414 810 389 825 b 297 872 336 863 318 872 b 243 808 271 872 251 858 l 196 819 b 294 943 201 899 235 943 b 376 913 325 943 350 931 b 446 882 404 893 425 882 b 499 946 476 882 493 900 "},"Ū":{"ha":926,"x_min":0,"x_max":0,"o":"m 451 -8 b 89 307 154 -8 89 39 l 89 944 l 204 944 l 204 317 b 449 88 204 113 246 88 l 475 88 b 722 317 678 88 722 113 l 722 944 l 838 944 l 838 307 b 472 -8 838 39 769 -8 m 615 1081 l 310 1081 l 310 1153 l 615 1153 "},"ū":{"ha":743,"x_min":0,"x_max":0,"o":"m 653 0 l 547 0 l 547 108 l 546 108 b 328 -8 517 33 464 -8 l 315 -8 b 81 251 132 -8 81 47 l 81 667 l 188 667 l 188 278 b 350 76 188 108 213 76 l 363 76 b 546 275 490 76 546 113 l 546 667 l 653 667 m 526 844 l 221 844 l 221 917 l 526 917 "},"Ŭ":{"ha":926,"x_min":0,"x_max":0,"o":"m 451 -8 b 89 307 154 -8 89 39 l 89 944 l 204 944 l 204 317 b 449 88 204 113 246 88 l 475 88 b 722 317 678 88 722 113 l 722 944 l 838 944 l 838 307 b 472 -8 838 39 769 -8 m 639 1190 b 464 1028 635 1076 569 1028 b 288 1190 356 1028 292 1076 l 349 1190 b 464 1097 358 1117 399 1097 b 579 1190 531 1097 569 1115 "},"ŭ":{"ha":743,"x_min":0,"x_max":0,"o":"m 653 0 l 547 0 l 547 108 l 546 108 b 328 -8 517 33 464 -8 l 315 -8 b 81 251 132 -8 81 47 l 81 667 l 188 667 l 188 278 b 350 76 188 108 213 76 l 363 76 b 546 275 490 76 546 113 l 546 667 l 653 667 m 549 947 b 374 785 544 833 479 785 b 197 947 265 785 201 833 l 258 947 b 374 854 268 874 308 854 b 489 947 440 854 479 872 "},"Ů":{"ha":926,"x_min":0,"x_max":0,"o":"m 451 -8 b 89 307 154 -8 89 39 l 89 944 l 204 944 l 204 317 b 449 88 204 113 246 88 l 475 88 b 722 317 678 88 722 113 l 722 944 l 838 944 l 838 307 b 472 -8 838 39 769 -8 m 458 1008 b 321 1113 356 1008 321 1038 l 321 1121 b 458 1225 321 1196 356 1225 l 467 1225 b 604 1121 569 1225 604 1196 l 604 1113 b 467 1008 604 1038 569 1008 m 467 1051 b 551 1114 531 1051 551 1067 l 551 1122 b 467 1183 551 1169 531 1183 l 458 1183 b 374 1122 393 1183 374 1169 l 374 1114 b 458 1051 374 1067 393 1051 "},"ů":{"ha":743,"x_min":0,"x_max":0,"o":"m 653 0 l 547 0 l 547 108 l 546 108 b 328 -8 517 33 464 -8 l 315 -8 b 81 251 132 -8 81 47 l 81 667 l 188 667 l 188 278 b 350 76 188 108 213 76 l 363 76 b 546 275 490 76 546 113 l 546 667 l 653 667 m 367 767 b 229 871 264 767 229 796 l 229 879 b 367 983 229 954 264 983 l 375 983 b 513 879 478 983 513 954 l 513 871 b 375 767 513 796 478 767 m 375 810 b 460 872 439 810 460 825 l 460 881 b 375 942 460 928 439 942 l 367 942 b 282 881 301 942 282 928 l 282 872 b 367 810 282 825 301 810 "},"Ű":{"ha":926,"x_min":0,"x_max":0,"o":"m 451 -8 b 89 307 154 -8 89 39 l 89 944 l 204 944 l 204 317 b 449 88 204 113 246 88 l 475 88 b 722 317 678 88 722 113 l 722 944 l 838 944 l 838 307 b 472 -8 838 39 769 -8 m 350 1014 l 318 1053 l 489 1228 l 539 1172 m 542 1013 l 510 1051 l 682 1226 l 732 1172 "},"ű":{"ha":743,"x_min":0,"x_max":0,"o":"m 653 0 l 547 0 l 547 108 l 546 108 b 328 -8 517 33 464 -8 l 315 -8 b 81 251 132 -8 81 47 l 81 667 l 188 667 l 188 278 b 350 76 188 108 213 76 l 363 76 b 546 275 490 76 546 113 l 546 667 l 653 667 m 446 935 l 267 764 l 232 801 l 392 986 m 635 933 l 453 763 l 418 800 l 581 985 "},"Ų":{"ha":926,"x_min":0,"x_max":0,"o":"m 572 -249 b 464 -267 542 -258 501 -267 b 350 -176 386 -267 350 -239 b 456 -8 350 -117 388 -67 b 89 307 154 -8 89 39 l 89 944 l 204 944 l 204 317 b 449 86 204 111 246 86 l 475 86 b 722 317 678 86 722 111 l 722 944 l 838 944 l 838 307 b 525 -7 838 56 776 -1 b 424 -157 450 -69 424 -112 b 488 -204 424 -193 444 -204 b 572 -193 513 -204 543 -200 "},"ų":{"ha":743,"x_min":0,"x_max":0,"o":"m 653 0 l 639 0 b 499 -156 533 -64 499 -112 b 561 -204 499 -192 519 -204 b 646 -193 588 -204 618 -200 l 646 -249 b 538 -267 614 -258 576 -267 b 424 -176 463 -267 424 -239 b 561 0 424 -114 464 -64 l 547 0 l 547 108 l 546 108 b 328 -8 517 33 464 -8 l 315 -8 b 81 251 132 -8 81 47 l 81 667 l 188 667 l 188 278 b 350 76 188 108 213 76 l 363 76 b 546 275 490 76 546 113 l 546 667 l 653 667 "},"Ŵ":{"ha":1300,"x_min":0,"x_max":0,"o":"m 1019 0 l 871 0 l 653 839 l 650 839 l 429 0 l 282 0 l 31 944 l 146 944 l 358 94 l 363 94 l 585 944 l 719 944 l 942 94 l 946 94 l 1156 944 l 1269 944 m 797 1036 l 653 1138 l 510 1036 l 471 1078 l 653 1225 l 836 1078 "},"ŵ":{"ha":1021,"x_min":0,"x_max":0,"o":"m 804 0 l 660 0 l 513 565 l 510 565 l 361 0 l 217 0 l 22 667 l 135 667 l 290 79 l 294 79 l 451 667 l 574 667 l 732 79 l 736 79 l 890 667 l 999 667 m 650 776 l 511 893 l 374 776 l 333 818 l 511 981 l 690 818 "},"Ŷ":{"ha":839,"x_min":0,"x_max":0,"o":"m 476 0 l 361 0 l 361 332 l 14 944 l 139 944 l 419 436 l 422 436 l 699 944 l 825 944 l 476 332 m 567 1036 l 422 1138 l 279 1036 l 240 1078 l 422 1225 l 606 1078 "},"ŷ":{"ha":635,"x_min":0,"x_max":0,"o":"m 89 -156 b 140 -158 104 -157 129 -158 b 300 14 224 -158 250 -136 l 247 14 l 13 667 l 124 667 l 325 90 l 329 90 l 513 667 l 622 667 l 425 75 b 158 -240 336 -192 293 -240 b 89 -237 136 -240 110 -239 m 465 776 l 326 893 l 189 776 l 149 818 l 326 981 l 506 818 "},"Ź":{"ha":813,"x_min":0,"x_max":0,"o":"m 760 0 l 54 0 l 54 93 l 622 854 l 622 856 l 75 856 l 75 944 l 754 944 l 754 850 l 189 93 l 189 90 l 760 90 m 565 1140 l 319 1031 l 293 1074 l 522 1215 "},"ź":{"ha":576,"x_min":0,"x_max":0,"o":"m 540 0 l 39 0 l 39 83 l 413 585 l 413 586 l 56 586 l 56 667 l 536 667 l 536 583 l 165 83 l 165 82 l 540 82 m 218 761 l 186 801 l 385 983 l 439 915 "},"Ż":{"ha":813,"x_min":0,"x_max":0,"o":"m 760 0 l 54 0 l 54 93 l 622 854 l 622 856 l 75 856 l 75 944 l 754 944 l 754 850 l 189 93 l 189 90 l 760 90 m 457 1054 l 350 1054 l 350 1176 l 457 1176 "},"ż":{"ha":576,"x_min":0,"x_max":0,"o":"m 540 0 l 39 0 l 39 83 l 413 585 l 413 586 l 56 586 l 56 667 l 536 667 l 536 583 l 165 83 l 165 82 l 540 82 m 343 822 l 236 822 l 236 944 l 343 944 "},"Ș":{"ha":860,"x_min":0,"x_max":0,"o":"m 788 258 b 465 -8 788 46 719 -8 l 433 -8 b 76 257 126 -8 76 38 l 76 296 l 185 296 l 185 263 b 426 83 185 115 219 83 l 453 83 b 674 254 638 83 674 111 l 674 274 b 415 436 674 390 650 418 b 86 685 143 457 86 513 l 86 707 b 400 953 86 890 151 953 l 428 953 b 765 693 713 953 765 896 l 765 663 l 656 663 l 656 688 b 433 863 656 828 624 863 l 410 863 b 199 706 233 863 199 833 l 199 686 b 453 533 199 581 228 551 b 788 281 733 511 788 457 m 497 -174 b 383 -310 497 -271 475 -304 l 383 -265 b 435 -181 425 -260 435 -246 l 435 -172 l 404 -172 l 404 -68 l 497 -68 "},"ș":{"ha":686,"x_min":0,"x_max":0,"o":"m 335 -8 b 68 182 113 -8 68 31 l 68 203 l 168 203 l 168 192 b 335 74 168 93 190 74 l 367 74 b 521 182 497 74 521 94 l 521 193 b 324 303 521 268 500 290 b 81 481 125 317 81 360 l 81 497 b 319 675 81 631 136 675 l 347 675 b 603 488 556 675 603 639 l 603 472 l 506 472 l 506 483 b 353 594 506 575 482 594 l 329 594 b 182 497 203 594 182 574 l 182 482 b 356 390 182 422 203 401 b 624 203 569 375 624 331 l 624 185 b 369 -8 624 35 563 -8 m 404 -174 b 290 -310 404 -271 382 -304 l 290 -265 b 342 -181 332 -260 342 -246 l 342 -172 l 311 -172 l 311 -68 l 404 -68 "},"Ț":{"ha":749,"x_min":0,"x_max":0,"o":"m 432 0 l 317 0 l 317 851 l 17 851 l 17 944 l 732 944 l 732 851 l 432 851 m 424 -174 b 310 -310 424 -271 401 -304 l 310 -265 b 361 -181 351 -260 361 -246 l 361 -172 l 331 -172 l 331 -68 l 424 -68 "},"ț":{"ha":563,"x_min":0,"x_max":0,"o":"m 301 -8 b 110 253 149 -8 110 26 l 110 588 l 17 588 l 17 667 l 110 667 l 110 840 l 215 840 l 215 667 l 519 667 l 519 588 l 215 588 l 215 260 b 317 78 215 92 229 78 l 332 78 b 435 247 422 78 435 97 l 435 300 l 524 300 l 524 229 b 324 -8 524 32 483 -8 m 368 -174 b 254 -310 368 -271 346 -304 l 254 -265 b 306 -181 296 -260 306 -246 l 306 -172 l 275 -172 l 275 -68 l 368 -68 "},"ȷ":{"ha":286,"x_min":0,"x_max":0,"o":"m 197 -62 b 56 -240 197 -200 156 -240 b 6 -236 40 -240 24 -240 l 6 -151 b 35 -153 19 -153 28 -153 b 90 -50 78 -153 90 -142 l 90 667 l 197 667 "},"ˇ":{"ha":531,"x_min":0,"x_max":0,"o":"m 268 761 l 89 924 l 128 964 l 268 849 l 407 963 l 446 924 "},"ˉ":{"ha":531,"x_min":0,"x_max":0,"o":"m 422 1081 l 117 1081 l 117 1153 l 422 1153 "},"˘":{"ha":531,"x_min":0,"x_max":0,"o":"m 447 947 b 272 785 443 833 378 785 b 96 947 164 785 100 833 l 157 947 b 272 854 167 874 207 854 b 388 947 339 854 378 872 "},"˙":{"ha":531,"x_min":0,"x_max":0,"o":"m 318 822 l 211 822 l 211 944 l 318 944 "},"˚":{"ha":531,"x_min":0,"x_max":0,"o":"m 265 767 b 128 871 163 767 128 796 l 128 879 b 265 983 128 954 163 983 l 274 983 b 411 879 376 983 411 954 l 411 871 b 274 767 411 796 376 767 m 274 810 b 358 872 338 810 358 825 l 358 881 b 274 942 358 928 338 942 l 265 942 b 181 881 200 942 181 928 l 181 872 b 265 810 181 825 200 810 "},"˛":{"ha":469,"x_min":0,"x_max":0,"o":"m 343 -249 b 235 -267 311 -258 272 -267 b 119 -176 161 -267 119 -242 b 244 0 119 -112 164 -62 l 308 0 b 193 -156 219 -74 193 -115 b 258 -204 193 -192 215 -204 b 343 -193 283 -204 314 -200 "},"˝":{"ha":531,"x_min":0,"x_max":0,"o":"m 313 935 l 133 764 l 99 801 l 258 986 m 501 933 l 319 763 l 285 800 l 447 985 "},"Δ":{"ha":846,"x_min":0,"x_max":0,"o":"m 817 0 l 28 0 l 360 944 l 488 944 m 675 90 l 425 850 l 421 850 l 167 90 "},"Ω":{"ha":917,"x_min":0,"x_max":0,"o":"m 829 0 l 535 0 l 535 250 b 735 557 663 283 735 401 b 458 865 735 740 631 864 b 183 557 288 865 183 740 b 383 250 183 401 256 283 l 383 0 l 89 0 l 89 89 l 301 89 l 301 194 b 69 558 157 247 69 375 b 458 953 69 792 218 953 b 847 558 700 953 847 792 b 615 194 847 375 760 247 l 615 89 l 829 89 "},"μ":{"ha":758,"x_min":0,"x_max":0,"o":"m 668 0 l 563 0 l 563 111 l 561 111 b 365 -7 535 35 485 -7 l 353 -7 b 199 64 263 -7 221 17 l 197 64 l 197 -249 l 90 -249 l 90 667 l 197 667 l 197 274 b 368 75 197 111 242 75 l 382 75 b 561 274 508 75 561 114 l 561 667 l 668 667 "},"π":{"ha":792,"x_min":0,"x_max":0,"o":"m 735 6 b 665 -8 717 -3 693 -8 b 550 154 583 -8 550 31 l 550 579 l 235 579 l 235 0 l 128 0 l 128 579 l 54 579 l 54 667 l 738 667 l 738 579 l 657 579 l 657 167 b 703 75 657 92 667 75 b 735 81 715 75 726 78 "},"⁄":{"ha":165,"x_min":0,"x_max":0,"o":"m -62 0 l -133 0 l 229 944 l 299 944 "},"⁰":{"ha":543,"x_min":0,"x_max":0,"o":"m 279 686 b 414 865 394 686 414 713 l 414 910 b 279 1090 414 1063 393 1090 l 264 1090 b 129 910 149 1090 129 1063 l 129 865 b 264 686 129 713 149 686 m 263 625 b 56 868 89 625 56 672 l 56 910 b 263 1150 56 1100 89 1150 l 279 1150 b 488 910 457 1150 488 1100 l 488 868 b 279 625 488 674 456 625 "},"⁴":{"ha":543,"x_min":0,"x_max":0,"o":"m 438 629 l 361 629 l 361 744 l 44 744 l 44 818 l 329 1146 l 438 1146 l 438 803 l 503 803 l 503 744 l 438 744 m 361 803 l 361 1086 l 358 1086 l 117 804 l 117 803 "},"⁵":{"ha":532,"x_min":0,"x_max":0,"o":"m 257 625 b 61 771 96 625 61 653 l 61 788 l 132 788 l 132 772 b 254 685 132 701 151 685 l 272 685 b 410 792 390 685 410 700 l 410 810 b 285 915 410 899 392 915 l 267 915 b 140 875 174 915 154 907 l 68 875 l 68 1146 l 472 1146 l 472 1085 l 142 1085 l 142 932 l 143 932 b 286 974 161 961 193 974 l 303 974 b 483 814 449 974 483 940 l 483 792 b 274 625 483 656 438 625 "},"⁶":{"ha":533,"x_min":0,"x_max":0,"o":"m 278 685 b 408 778 393 685 408 699 l 408 792 b 276 882 408 868 392 882 l 263 882 b 132 801 158 882 132 869 l 132 786 b 264 685 132 700 149 685 m 261 625 b 57 810 88 625 57 658 l 57 925 b 267 1150 57 1115 96 1150 l 283 1150 b 472 1006 435 1150 472 1122 l 472 990 l 401 990 l 401 1006 b 281 1092 401 1076 379 1092 l 267 1092 b 132 938 154 1092 132 1074 l 132 896 l 133 896 b 272 940 149 924 182 940 l 289 940 b 482 799 444 940 482 913 l 482 778 b 279 625 482 654 442 625 "},"⁷":{"ha":508,"x_min":0,"x_max":0,"o":"m 200 629 l 115 629 l 374 1082 l 374 1083 l 44 1083 l 44 1146 l 461 1146 l 461 1089 "},"⁸":{"ha":533,"x_min":0,"x_max":0,"o":"m 256 625 b 54 760 89 625 54 651 l 54 772 b 131 896 54 857 79 885 l 131 897 b 60 1010 81 908 60 933 l 60 1025 b 254 1150 60 1122 96 1150 l 275 1150 b 471 1025 433 1150 471 1122 l 471 1010 b 399 897 471 933 450 908 l 399 896 b 476 772 451 885 476 857 l 476 760 b 275 625 476 651 442 625 m 274 925 b 397 1004 381 925 397 938 l 397 1017 b 274 1093 397 1079 381 1093 l 256 1093 b 133 1017 150 1093 133 1079 l 133 1004 b 256 925 133 938 150 925 m 274 683 b 403 767 389 683 403 697 l 403 781 b 274 868 403 856 386 868 l 256 868 b 128 781 144 868 128 856 l 128 767 b 256 683 128 697 142 683 "},"⁹":{"ha":538,"x_min":0,"x_max":0,"o":"m 275 893 b 406 974 379 893 406 906 l 406 989 b 274 1092 406 1075 388 1092 l 258 1092 b 129 1000 147 1092 129 1076 l 129 986 b 261 893 129 908 147 893 m 253 625 b 60 769 97 625 60 651 l 60 785 l 132 785 l 132 769 b 256 685 132 700 150 685 l 268 685 b 406 838 389 685 406 700 l 406 879 l 404 879 b 265 835 389 851 356 835 l 249 835 b 54 982 92 835 54 863 l 54 1001 b 258 1150 54 1121 96 1150 l 275 1150 b 479 965 449 1150 479 1117 l 479 850 b 269 625 479 658 446 625 "},"₀":{"ha":543,"x_min":0,"x_max":0,"o":"m 279 -157 b 414 22 394 -157 414 -131 l 414 67 b 279 247 414 219 393 247 l 264 247 b 129 67 149 247 129 219 l 129 22 b 264 -157 129 -131 149 -157 m 263 -218 b 56 25 89 -218 56 -171 l 56 67 b 263 307 56 257 89 307 l 279 307 b 488 67 457 307 488 257 l 488 25 b 279 -218 488 -169 456 -218 "},"₁":{"ha":383,"x_min":0,"x_max":0,"o":"m 275 -214 l 197 -214 l 197 224 l 196 224 l 72 94 l 29 143 l 183 303 l 275 303 "},"₂":{"ha":526,"x_min":0,"x_max":0,"o":"m 479 -214 l 58 -214 l 58 -140 b 261 46 58 -6 92 24 b 400 147 385 61 400 78 l 400 163 b 269 247 400 231 383 247 l 260 247 b 138 154 154 247 138 229 l 138 132 l 65 132 l 65 156 b 260 307 65 276 99 307 l 271 307 b 476 164 442 307 476 278 l 476 150 b 279 -15 476 39 444 6 b 133 -131 147 -32 133 -43 l 133 -153 l 479 -153 "},"₃":{"ha":535,"x_min":0,"x_max":0,"o":"m 258 -218 b 54 -62 86 -218 54 -193 l 54 -43 l 126 -43 l 126 -62 b 258 -158 126 -147 143 -158 l 271 -158 b 408 -74 393 -158 408 -144 l 408 -60 b 315 24 408 4 389 24 l 207 24 l 207 79 l 315 79 b 397 153 381 79 397 97 l 397 169 b 271 247 397 235 378 247 l 260 247 b 135 158 153 247 135 238 l 135 133 l 64 133 l 64 158 b 261 307 64 281 97 307 l 274 307 b 474 175 439 307 474 278 l 474 161 b 410 53 474 92 456 67 l 410 51 b 485 -62 457 42 485 18 l 485 -79 b 275 -218 485 -190 443 -218 "},"₄":{"ha":543,"x_min":0,"x_max":0,"o":"m 438 -214 l 361 -214 l 361 -99 l 44 -99 l 44 -25 l 329 303 l 438 303 l 438 -40 l 503 -40 l 503 -99 l 438 -99 m 361 -40 l 361 243 l 358 243 l 117 -39 l 117 -40 "},"₅":{"ha":532,"x_min":0,"x_max":0,"o":"m 257 -218 b 61 -72 96 -218 61 -190 l 61 -56 l 132 -56 l 132 -71 b 254 -158 132 -142 151 -158 l 272 -158 b 410 -51 390 -158 410 -143 l 410 -33 b 285 72 410 56 392 72 l 267 72 b 140 32 174 72 154 64 l 68 32 l 68 303 l 472 303 l 472 242 l 142 242 l 142 89 l 143 89 b 286 131 161 118 193 131 l 303 131 b 483 -29 449 131 483 97 l 483 -51 b 274 -218 483 -187 438 -218 "},"₆":{"ha":533,"x_min":0,"x_max":0,"o":"m 278 -158 b 408 -65 393 -158 408 -144 l 408 -51 b 276 39 408 25 392 39 l 263 39 b 132 -42 158 39 132 26 l 132 -57 b 264 -158 132 -143 149 -158 m 261 -218 b 57 -33 88 -218 57 -185 l 57 82 b 267 307 57 272 96 307 l 283 307 b 472 163 435 307 472 279 l 472 147 l 401 147 l 401 163 b 281 249 401 233 379 249 l 267 249 b 132 94 154 249 132 231 l 132 53 l 133 53 b 272 97 149 81 182 97 l 289 97 b 482 -44 444 97 482 69 l 482 -65 b 279 -218 482 -189 442 -218 "},"₇":{"ha":508,"x_min":0,"x_max":0,"o":"m 200 -214 l 115 -214 l 374 239 l 374 240 l 44 240 l 44 303 l 461 303 l 461 246 "},"₈":{"ha":533,"x_min":0,"x_max":0,"o":"m 256 -218 b 54 -83 89 -218 54 -192 l 54 -71 b 131 53 54 14 79 42 l 131 54 b 60 167 81 65 60 90 l 60 182 b 254 307 60 279 96 307 l 275 307 b 471 182 433 307 471 279 l 471 167 b 399 54 471 90 450 65 l 399 53 b 476 -71 451 42 476 14 l 476 -83 b 275 -218 476 -192 442 -218 m 274 82 b 397 161 381 82 397 94 l 397 174 b 274 250 397 236 381 250 l 256 250 b 133 174 150 250 133 236 l 133 161 b 256 82 133 94 150 82 m 274 -160 b 403 -76 389 -160 403 -146 l 403 -62 b 274 25 403 13 386 25 l 256 25 b 128 -62 144 25 128 13 l 128 -76 b 256 -160 128 -146 142 -160 "},"₉":{"ha":538,"x_min":0,"x_max":0,"o":"m 275 50 b 406 131 379 50 406 63 l 406 146 b 274 249 406 232 388 249 l 258 249 b 129 157 147 249 129 233 l 129 143 b 261 50 129 65 147 50 m 253 -218 b 60 -74 97 -218 60 -192 l 60 -58 l 132 -58 l 132 -74 b 256 -158 132 -143 150 -158 l 268 -158 b 406 -6 389 -158 406 -143 l 406 36 l 404 36 b 265 -8 389 8 356 -8 l 249 -8 b 54 139 92 -8 54 19 l 54 158 b 258 307 54 278 96 307 l 275 307 b 479 122 449 307 479 274 l 479 7 b 269 -218 479 -185 446 -218 "},"ℓ":{"ha":544,"x_min":0,"x_max":0,"o":"m 458 68 b 297 -8 408 18 357 -8 b 156 188 201 -8 156 50 l 156 289 b 97 228 138 268 118 249 l 64 283 b 154 379 96 315 128 349 l 154 661 b 324 999 154 918 218 999 b 458 825 414 999 458 933 b 242 356 458 668 374 514 l 242 213 b 322 65 242 104 264 65 b 422 118 357 65 392 88 m 242 460 b 383 819 326 576 383 694 b 324 933 383 894 364 933 b 242 671 275 933 242 879 "},"Ω":{"ha":917,"x_min":0,"x_max":0,"o":"m 829 0 l 535 0 l 535 250 b 735 557 663 283 735 401 b 458 865 735 740 631 864 b 183 557 288 865 183 740 b 383 250 183 401 256 283 l 383 0 l 89 0 l 89 89 l 301 89 l 301 194 b 69 558 157 247 69 375 b 458 953 69 792 218 953 b 847 558 700 953 847 792 b 615 194 847 375 760 247 l 615 89 l 829 89 "},"℮":{"ha":1022,"x_min":0,"x_max":0,"o":"m 903 228 b 508 -4 799 68 692 -4 b 64 475 239 -4 64 210 b 508 949 64 742 239 949 b 958 475 778 949 957 756 l 260 475 l 260 161 b 508 61 325 94 411 61 b 843 267 653 61 758 121 m 763 536 l 763 785 b 508 892 690 856 606 892 b 260 785 411 892 325 856 l 260 536 "},"∂":{"ha":696,"x_min":0,"x_max":0,"o":"m 110 913 b 324 999 161 965 233 999 b 639 510 525 999 639 813 b 325 -8 639 168 532 -8 b 61 285 160 -8 61 96 b 335 597 61 456 154 597 b 544 479 429 597 506 556 l 546 479 b 544 542 546 500 546 522 b 319 914 533 782 444 914 b 147 843 256 914 203 896 m 540 389 b 347 517 497 478 425 517 b 160 283 225 517 160 422 b 332 75 160 150 229 75 b 540 389 467 75 526 201 "},"∆":{"ha":846,"x_min":0,"x_max":0,"o":"m 817 0 l 28 0 l 360 944 l 488 944 m 675 90 l 425 850 l 421 850 l 167 90 "},"∏":{"ha":975,"x_min":0,"x_max":0,"o":"m 832 -297 l 725 -297 l 725 996 l 250 996 l 250 -297 l 143 -297 l 143 996 l 74 996 l 74 1092 l 901 1092 l 901 996 l 832 996 "},"∑":{"ha":779,"x_min":0,"x_max":0,"o":"m 708 -297 l 68 -297 l 68 -218 l 447 442 l 82 1013 l 82 1092 l 694 1092 l 694 996 l 219 996 l 219 993 l 564 443 l 197 -199 l 197 -200 l 708 -200 "},"−":{"ha":732,"x_min":0,"x_max":0,"o":"m 650 382 l 82 382 l 82 465 l 650 465 "},"∕":{"ha":167,"x_min":0,"x_max":0,"o":"m -62 0 l -133 0 l 229 944 l 300 944 "},"∙":{"ha":281,"x_min":0,"x_max":0,"o":"m 197 296 l 83 296 l 83 443 l 197 443 "},"√":{"ha":801,"x_min":0,"x_max":0,"o":"m 469 -299 l 356 -299 l 151 226 l 71 197 l 46 261 l 207 324 l 404 -203 l 407 -203 l 667 1093 l 757 1093 "},"∞":{"ha":1046,"x_min":0,"x_max":0,"o":"m 522 421 b 779 579 607 518 681 579 b 982 369 897 579 982 494 b 779 158 982 244 900 158 b 522 311 683 158 606 217 b 267 158 440 218 367 158 b 64 369 149 158 64 242 b 267 578 64 493 149 578 b 522 421 367 578 443 514 m 472 365 b 272 500 392 458 338 500 b 151 367 196 500 151 440 b 274 236 151 294 197 236 b 472 365 338 236 392 274 m 572 367 b 771 236 653 276 706 236 b 894 367 849 236 894 294 b 771 501 894 442 850 501 b 572 367 707 501 653 458 "},"∫":{"ha":529,"x_min":0,"x_max":0,"o":"m 68 -214 b 118 -218 82 -217 100 -218 b 213 57 183 -218 213 -178 l 213 710 b 400 1096 213 1007 261 1096 b 463 1089 421 1096 451 1093 l 463 1008 b 413 1013 449 1011 431 1013 b 318 738 347 1013 318 972 l 318 85 b 131 -301 318 -212 269 -301 b 68 -294 110 -301 79 -299 "},"≈":{"ha":732,"x_min":0,"x_max":0,"o":"m 649 603 b 501 439 639 497 594 439 b 364 479 456 439 408 458 b 232 521 319 501 274 521 b 150 436 181 521 158 492 l 82 436 b 229 601 93 543 138 601 b 372 558 276 601 326 579 b 500 518 415 538 460 518 b 582 603 550 518 572 547 m 649 358 b 501 193 639 253 594 193 b 364 235 456 193 408 214 b 232 276 319 256 274 276 b 150 192 181 276 158 246 l 82 192 b 229 357 93 299 138 357 b 372 314 276 357 326 335 b 500 274 415 293 460 274 b 582 358 550 274 572 304 "},"≠":{"ha":732,"x_min":0,"x_max":0,"o":"m 650 250 l 318 250 l 221 49 l 157 78 l 242 250 l 82 250 l 82 333 l 282 333 l 364 504 l 82 504 l 82 586 l 404 586 l 499 779 l 563 749 l 483 586 l 650 586 l 650 504 l 443 504 l 360 333 l 650 333 "},"≤":{"ha":732,"x_min":0,"x_max":0,"o":"m 650 171 l 82 418 l 82 503 l 650 750 l 650 661 l 183 461 l 183 458 l 650 261 m 650 29 l 82 29 l 82 113 l 650 113 "},"≥":{"ha":732,"x_min":0,"x_max":0,"o":"m 650 418 l 82 171 l 82 261 l 549 458 l 549 461 l 82 661 l 82 750 l 650 503 m 650 29 l 82 29 l 82 113 l 650 113 "},"◊":{"ha":640,"x_min":0,"x_max":0,"o":"m 322 83 l 490 481 l 321 858 l 319 858 l 151 481 l 321 83 m 358 0 l 282 0 l 67 481 l 282 944 l 358 944 l 574 481 "},"":{"ha":329,"x_min":0,"x_max":0,"o":"m 215 0 l 113 0 l 113 131 l 215 131 m 210 225 l 118 225 l 111 733 l 217 733 "},"":{"ha":710,"x_min":0,"x_max":0,"o":"m 393 -89 l 340 -89 l 340 -8 b 72 203 104 -6 72 32 l 72 233 l 171 233 l 171 206 b 340 76 171 92 190 78 l 340 333 b 82 536 122 354 82 397 l 82 556 b 340 742 82 697 133 742 l 340 811 l 393 811 l 393 742 b 639 538 601 738 639 697 l 639 511 l 542 511 l 542 535 b 393 660 542 642 515 657 l 393 418 b 658 215 614 396 658 360 l 658 196 b 393 -8 658 38 615 -6 m 393 76 b 558 193 539 78 558 94 l 558 210 b 393 325 558 294 535 311 m 181 535 b 340 425 181 460 200 438 l 340 660 b 181 554 206 660 181 643 "},"":{"ha":817,"x_min":0,"x_max":0,"o":"m 199 399 b 67 557 94 399 67 433 l 67 576 b 199 735 67 700 94 735 l 213 735 b 344 576 317 735 344 700 l 344 557 b 213 399 344 433 317 399 m 210 453 b 278 554 265 453 278 467 l 278 579 b 210 681 278 667 265 681 l 201 681 b 133 579 146 681 133 667 l 133 554 b 201 453 133 467 146 453 m 294 0 l 229 0 l 519 733 l 585 733 m 617 54 b 685 156 672 54 685 68 l 685 181 b 617 282 685 268 672 282 l 608 282 b 540 181 553 282 540 268 l 540 156 b 608 54 540 68 553 54 m 606 0 b 474 158 501 0 474 35 l 474 178 b 606 336 474 301 501 336 l 619 336 b 751 178 724 336 751 301 l 751 158 b 619 0 751 35 724 0 "},"":{"ha":803,"x_min":0,"x_max":0,"o":"m 582 294 l 582 376 l 667 376 l 667 306 b 658 153 667 247 664 194 l 779 57 l 726 -7 l 635 64 b 365 -8 604 8 553 -8 l 347 -8 b 71 213 108 -8 71 36 l 71 229 b 183 426 71 358 96 413 b 126 571 143 464 126 496 l 126 583 b 363 742 126 701 174 742 l 382 742 b 617 556 582 742 617 707 l 617 524 l 528 524 l 528 557 b 386 668 528 649 511 668 l 368 668 b 222 578 246 668 222 647 l 222 567 b 306 433 222 507 233 490 l 578 217 b 582 294 581 238 582 269 m 165 236 l 165 222 b 350 68 165 96 190 68 l 364 68 b 563 122 513 68 546 78 l 243 374 b 165 236 179 368 165 335 "},"":{"ha":619,"x_min":0,"x_max":0,"o":"m 333 0 l 229 0 l 229 129 l 333 129 m 326 222 l 233 222 l 233 250 b 347 386 233 333 258 364 b 471 526 456 413 471 433 l 471 540 b 324 665 471 639 447 665 l 308 665 b 150 521 178 665 150 644 l 150 492 l 60 492 l 60 521 b 308 742 60 706 110 742 l 325 742 b 564 546 518 742 564 696 l 564 526 b 404 321 564 397 531 351 b 326 243 340 306 326 293 "},"":{"ha":725,"x_min":0,"x_max":0,"o":"m 708 0 l 599 0 l 540 164 l 182 164 l 125 0 l 17 0 l 292 733 l 435 733 m 515 242 l 365 658 l 360 658 l 210 242 "},"":{"ha":746,"x_min":0,"x_max":0,"o":"m 93 0 l 93 733 l 428 733 b 663 544 611 733 663 697 b 575 383 663 450 639 403 l 575 382 b 683 203 650 364 683 317 b 446 0 683 43 622 0 m 429 78 b 581 211 551 78 581 104 b 460 343 581 317 549 343 l 196 343 l 196 78 m 456 415 b 561 536 535 415 561 442 b 415 657 561 635 538 657 l 196 657 l 196 415 "},"":{"ha":760,"x_min":0,"x_max":0,"o":"m 379 -8 b 71 339 129 -8 71 53 l 71 397 b 378 742 71 674 128 742 l 400 742 b 688 529 633 742 688 686 l 688 501 l 583 501 l 583 524 b 400 657 583 625 554 657 l 383 657 b 178 400 213 657 178 624 l 178 336 b 385 79 178 114 208 79 l 403 79 b 589 213 558 79 589 107 l 589 235 l 693 235 l 693 206 b 400 -8 693 39 632 -8 "},"":{"ha":801,"x_min":0,"x_max":0,"o":"m 731 342 b 404 0 731 54 686 0 l 93 0 l 93 733 l 404 733 b 731 396 679 733 731 683 m 400 83 b 624 338 597 83 624 113 l 624 400 b 400 651 624 621 594 651 l 200 651 l 200 83 "},"":{"ha":646,"x_min":0,"x_max":0,"o":"m 600 0 l 93 0 l 93 733 l 596 733 l 596 653 l 199 653 l 199 418 l 574 418 l 574 340 l 199 340 l 199 82 l 600 82 "},"":{"ha":618,"x_min":0,"x_max":0,"o":"m 564 319 l 200 319 l 200 0 l 93 0 l 93 733 l 585 733 l 585 651 l 200 651 l 200 399 l 564 399 "},"":{"ha":764,"x_min":0,"x_max":0,"o":"m 379 -8 b 71 339 122 -8 71 51 l 71 397 b 385 742 71 681 124 742 l 404 742 b 689 533 635 742 689 686 l 689 513 l 585 513 l 585 529 b 403 657 585 626 561 657 l 385 657 b 178 400 208 657 178 625 l 178 338 b 383 76 178 110 213 76 l 403 76 b 594 236 565 76 594 100 l 594 286 l 367 286 l 367 368 l 694 368 l 694 246 b 400 -8 694 38 639 -8 "},"":{"ha":800,"x_min":0,"x_max":0,"o":"m 707 0 l 600 0 l 600 339 l 200 339 l 200 0 l 93 0 l 93 733 l 200 733 l 200 425 l 600 425 l 600 733 l 707 733 "},"":{"ha":293,"x_min":0,"x_max":0,"o":"m 200 0 l 93 0 l 93 733 l 200 733 "},"":{"ha":619,"x_min":0,"x_max":0,"o":"m 258 -7 b 33 217 68 -7 33 29 l 33 256 l 132 256 l 132 228 b 261 79 132 97 149 79 l 279 79 b 426 244 411 79 426 94 l 426 733 l 533 733 l 533 250 b 281 -7 533 33 494 -7 "},"":{"ha":728,"x_min":0,"x_max":0,"o":"m 715 0 l 579 0 l 272 336 l 197 336 l 197 0 l 93 0 l 93 733 l 197 733 l 197 415 l 275 415 l 567 733 l 693 733 l 356 378 "},"":{"ha":576,"x_min":0,"x_max":0,"o":"m 560 0 l 93 0 l 93 733 l 200 733 l 200 85 l 560 85 "},"":{"ha":1017,"x_min":0,"x_max":0,"o":"m 924 0 l 824 0 l 824 640 l 821 640 l 563 0 l 458 0 l 196 640 l 193 640 l 193 0 l 93 0 l 93 733 l 254 733 l 511 100 l 514 100 l 767 733 l 924 733 "},"":{"ha":833,"x_min":0,"x_max":0,"o":"m 740 0 l 582 0 l 196 644 l 193 644 l 193 0 l 93 0 l 93 733 l 253 733 l 636 90 l 640 90 l 640 733 l 740 733 "},"":{"ha":790,"x_min":0,"x_max":0,"o":"m 385 -8 b 71 336 133 -8 71 60 l 71 396 b 385 742 71 674 133 742 l 406 742 b 719 396 657 742 719 674 l 719 336 b 406 -8 719 60 657 -8 m 403 79 b 614 340 575 79 614 114 l 614 394 b 403 657 614 621 575 657 l 386 657 b 176 394 214 657 176 621 l 176 340 b 386 79 176 114 214 79 "},"":{"ha":722,"x_min":0,"x_max":0,"o":"m 388 350 b 567 490 546 350 567 375 l 567 514 b 388 653 567 635 544 653 l 199 653 l 199 350 m 199 0 l 93 0 l 93 733 l 396 733 b 672 515 622 733 672 696 l 672 490 b 399 269 672 314 618 269 l 199 269 "},"":{"ha":793,"x_min":0,"x_max":0,"o":"m 385 -8 b 71 336 133 -8 71 60 l 71 396 b 385 742 71 674 133 742 l 406 742 b 719 396 657 742 719 674 l 719 336 b 689 111 719 236 711 164 l 761 56 l 708 -12 l 640 44 b 406 -8 592 4 517 -8 m 392 249 l 444 313 l 601 181 b 615 340 611 219 615 271 l 615 394 b 403 657 615 621 575 657 l 386 657 b 176 394 214 657 176 621 l 176 340 b 386 78 176 114 214 78 l 403 78 b 560 111 478 78 528 85 "},"":{"ha":747,"x_min":0,"x_max":0,"o":"m 439 364 b 564 490 538 364 564 396 l 564 518 b 401 653 564 635 542 653 l 199 653 l 199 364 m 669 0 l 564 0 l 564 104 b 407 285 564 267 546 285 l 199 285 l 199 0 l 93 0 l 93 733 l 421 733 b 669 529 626 733 669 694 l 669 501 b 576 331 669 393 639 349 l 576 329 b 669 135 650 313 669 272 "},"":{"ha":721,"x_min":0,"x_max":0,"o":"m 358 -8 b 72 203 114 -8 72 31 l 72 233 l 175 233 l 175 206 b 356 75 175 92 199 75 l 378 75 b 553 200 535 75 553 99 l 553 215 b 351 332 553 296 529 319 b 83 533 131 347 83 394 l 83 554 b 340 742 83 696 140 742 l 364 742 b 638 539 593 742 638 699 l 638 513 l 538 513 l 538 535 b 369 660 538 639 511 660 l 351 660 b 185 553 211 660 185 639 l 185 536 b 383 419 185 457 206 432 b 656 219 610 403 656 357 l 656 201 b 383 -8 656 36 604 -8 "},"":{"ha":622,"x_min":0,"x_max":0,"o":"m 364 0 l 257 0 l 257 649 l 17 649 l 17 733 l 606 733 l 606 649 l 364 649 "},"":{"ha":786,"x_min":0,"x_max":0,"o":"m 385 -7 b 86 242 140 -7 86 35 l 86 733 l 193 733 l 193 250 b 383 79 193 103 219 79 l 404 79 b 593 250 569 79 593 101 l 593 733 l 700 733 l 700 242 b 403 -7 700 35 649 -7 "},"":{"ha":707,"x_min":0,"x_max":0,"o":"m 424 0 l 286 0 l 17 733 l 129 733 l 354 92 l 358 92 l 582 733 l 690 733 "},"":{"ha":1061,"x_min":0,"x_max":0,"o":"m 833 0 l 701 0 l 533 633 l 531 633 l 361 0 l 231 0 l 28 733 l 135 733 l 299 89 l 301 89 l 471 733 l 593 733 l 765 89 l 767 89 l 929 733 l 1033 733 "},"":{"ha":724,"x_min":0,"x_max":0,"o":"m 697 0 l 574 0 l 361 329 l 149 0 l 26 0 l 286 383 l 51 733 l 171 733 l 363 436 l 556 733 l 672 733 l 436 383 "},"":{"ha":693,"x_min":0,"x_max":0,"o":"m 400 0 l 293 0 l 293 258 l 13 733 l 129 733 l 347 347 l 349 347 l 564 733 l 681 733 l 400 258 "},"":{"ha":681,"x_min":0,"x_max":0,"o":"m 631 0 l 53 0 l 53 78 l 499 653 l 499 654 l 69 654 l 69 733 l 625 733 l 625 654 l 181 82 l 181 81 l 631 81 "},"":{"ha":725,"x_min":0,"x_max":0,"o":"m 708 0 l 599 0 l 540 164 l 182 164 l 125 0 l 17 0 l 292 733 l 435 733 m 515 242 l 365 658 l 360 658 l 210 242 m 381 813 l 161 967 l 214 1035 l 413 853 "},"":{"ha":725,"x_min":0,"x_max":0,"o":"m 708 0 l 599 0 l 540 164 l 182 164 l 125 0 l 17 0 l 292 733 l 435 733 m 515 242 l 365 658 l 360 658 l 210 242 m 343 814 l 311 854 l 510 1036 l 564 968 "},"":{"ha":725,"x_min":0,"x_max":0,"o":"m 708 0 l 599 0 l 540 164 l 182 164 l 125 0 l 17 0 l 292 733 l 435 733 m 515 242 l 365 658 l 360 658 l 210 242 m 501 829 l 363 946 l 225 829 l 185 871 l 363 1033 l 542 871 "},"":{"ha":725,"x_min":0,"x_max":0,"o":"m 708 0 l 599 0 l 540 164 l 182 164 l 125 0 l 17 0 l 292 733 l 435 733 m 515 242 l 365 658 l 360 658 l 210 242 m 540 979 b 440 853 533 897 503 853 b 356 888 407 853 382 868 b 290 915 329 906 311 915 b 236 851 264 915 244 901 l 189 863 b 288 986 194 942 228 986 b 369 956 318 986 343 974 b 439 925 397 936 418 925 b 492 989 469 925 486 943 "},"":{"ha":725,"x_min":0,"x_max":0,"o":"m 708 0 l 599 0 l 540 164 l 182 164 l 125 0 l 17 0 l 292 733 l 435 733 m 515 242 l 365 658 l 360 658 l 210 242 m 297 865 l 201 865 l 201 988 l 297 988 m 524 865 l 428 865 l 428 988 l 524 988 "},"":{"ha":725,"x_min":0,"x_max":0,"o":"m 708 0 l 599 0 l 540 164 l 182 164 l 125 0 l 17 0 l 292 733 l 435 733 m 515 242 l 365 658 l 360 658 l 210 242 m 360 818 b 222 922 257 818 222 847 l 222 931 b 360 1035 222 1006 257 1035 l 368 1035 b 506 931 471 1035 506 1006 l 506 922 b 368 818 506 847 471 818 m 368 861 b 453 924 432 861 453 876 l 453 932 b 368 993 453 979 432 993 l 360 993 b 275 932 294 993 275 979 l 275 924 b 360 861 275 876 294 861 "},"":{"ha":725,"x_min":0,"x_max":0,"o":"m 708 0 l 599 0 l 540 164 l 182 164 l 125 0 l 17 0 l 292 733 l 435 733 m 515 242 l 365 658 l 360 658 l 210 242 m 519 890 l 214 890 l 214 963 l 519 963 "},"":{"ha":725,"x_min":0,"x_max":0,"o":"m 708 0 l 599 0 l 540 164 l 182 164 l 125 0 l 17 0 l 292 733 l 435 733 m 515 242 l 365 658 l 360 658 l 210 242 m 540 996 b 365 833 536 882 471 833 b 189 996 257 833 193 882 l 250 996 b 365 903 260 922 300 903 b 481 996 432 903 471 921 "},"":{"ha":725,"x_min":0,"x_max":0,"o":"m 708 0 l 693 0 b 554 -156 589 -64 554 -110 b 618 -204 554 -192 575 -204 b 701 -193 643 -204 675 -200 l 701 -249 b 594 -267 671 -258 632 -267 b 479 -176 518 -267 479 -239 b 617 0 479 -112 519 -62 l 599 0 l 540 164 l 182 164 l 125 0 l 17 0 l 292 733 l 435 733 m 515 242 l 365 658 l 360 658 l 210 242 "},"":{"ha":1082,"x_min":0,"x_max":0,"o":"m 1036 0 l 531 0 l 531 164 l 211 164 l 125 0 l 13 0 l 406 733 l 1032 733 l 1032 653 l 635 653 l 635 418 l 1010 418 l 1010 340 l 635 340 l 635 82 l 1036 82 m 531 242 l 531 654 l 469 654 l 250 242 "},"":{"ha":760,"x_min":0,"x_max":0,"o":"m 379 -8 b 71 339 129 -8 71 53 l 71 397 b 378 742 71 674 128 742 l 400 742 b 688 529 633 742 688 686 l 688 501 l 583 501 l 583 524 b 400 657 583 625 554 657 l 383 657 b 178 400 213 657 178 624 l 178 336 b 385 79 178 114 208 79 l 403 79 b 589 213 558 79 589 107 l 589 235 l 693 235 l 693 206 b 400 -8 693 39 632 -8 m 314 814 l 282 854 l 481 1036 l 535 968 "},"":{"ha":760,"x_min":0,"x_max":0,"o":"m 379 -8 b 71 339 129 -8 71 53 l 71 397 b 378 742 71 674 128 742 l 400 742 b 688 529 633 742 688 686 l 688 501 l 583 501 l 583 524 b 400 657 583 625 554 657 l 383 657 b 178 400 213 657 178 624 l 178 336 b 385 79 178 114 208 79 l 403 79 b 589 213 558 79 589 107 l 589 235 l 693 235 l 693 206 b 400 -8 693 39 632 -8 m 524 829 l 385 946 l 247 829 l 207 871 l 385 1033 l 564 871 "},"":{"ha":760,"x_min":0,"x_max":0,"o":"m 379 -8 b 71 339 129 -8 71 53 l 71 397 b 378 742 71 674 128 742 l 400 742 b 688 529 633 742 688 686 l 688 501 l 583 501 l 583 524 b 400 657 583 625 554 657 l 383 657 b 178 400 213 657 178 624 l 178 336 b 385 79 178 114 208 79 l 403 79 b 589 213 558 79 589 107 l 589 235 l 693 235 l 693 206 b 400 -8 693 39 632 -8 m 385 813 l 206 975 l 244 1015 l 385 900 l 524 1014 l 563 975 "},"":{"ha":760,"x_min":0,"x_max":0,"o":"m 379 -8 b 71 339 129 -8 71 53 l 71 397 b 378 742 71 674 128 742 l 400 742 b 688 529 633 742 688 686 l 688 501 l 583 501 l 583 524 b 400 657 583 625 554 657 l 383 657 b 178 400 213 657 178 624 l 178 336 b 385 79 178 114 208 79 l 403 79 b 589 213 558 79 589 107 l 589 235 l 693 235 l 693 206 b 400 -8 693 39 632 -8 m 435 865 l 328 865 l 328 988 l 435 988 "},"":{"ha":760,"x_min":0,"x_max":0,"o":"m 379 -8 b 71 339 129 -8 71 53 l 71 397 b 378 742 71 674 128 742 l 400 742 b 688 529 633 742 688 686 l 688 501 l 583 501 l 583 524 b 400 657 583 625 554 657 l 383 657 b 178 400 213 657 178 624 l 178 336 b 385 79 178 114 208 79 l 403 79 b 589 213 558 79 589 107 l 589 235 l 693 235 l 693 206 b 400 -8 693 39 632 -8 m 274 -239 l 239 -204 l 418 -10 l 476 -71 "},"":{"ha":801,"x_min":0,"x_max":0,"o":"m 731 342 b 404 0 731 54 686 0 l 93 0 l 93 733 l 404 733 b 731 396 679 733 731 683 m 400 83 b 624 338 597 83 624 113 l 624 400 b 400 651 624 621 594 651 l 200 651 l 200 83 m 392 813 l 213 975 l 251 1015 l 392 900 l 531 1014 l 569 975 "},"":{"ha":801,"x_min":0,"x_max":0,"o":"m 33 410 l 93 410 l 93 733 l 404 733 b 731 396 679 733 731 683 l 731 342 b 404 0 731 54 686 0 l 93 0 l 93 346 l 33 346 m 400 83 b 624 338 597 83 624 113 l 624 400 b 400 651 624 621 594 651 l 200 651 l 200 410 l 372 410 l 372 346 l 200 346 l 200 83 "},"":{"ha":801,"x_min":0,"x_max":0,"o":"m 33 410 l 93 410 l 93 733 l 404 733 b 731 396 679 733 731 683 l 731 342 b 404 0 731 54 686 0 l 93 0 l 93 346 l 33 346 m 400 83 b 624 338 597 83 624 113 l 624 400 b 400 651 624 621 594 651 l 200 651 l 200 410 l 372 410 l 372 346 l 200 346 l 200 83 "},"":{"ha":646,"x_min":0,"x_max":0,"o":"m 600 0 l 93 0 l 93 733 l 596 733 l 596 653 l 199 653 l 199 418 l 574 418 l 574 340 l 199 340 l 199 82 l 600 82 m 419 813 l 200 967 l 253 1035 l 451 853 "},"":{"ha":646,"x_min":0,"x_max":0,"o":"m 600 0 l 93 0 l 93 733 l 596 733 l 596 653 l 199 653 l 199 418 l 574 418 l 574 340 l 199 340 l 199 82 l 600 82 m 249 814 l 217 854 l 415 1036 l 469 968 "},"":{"ha":646,"x_min":0,"x_max":0,"o":"m 600 0 l 93 0 l 93 733 l 596 733 l 596 653 l 199 653 l 199 418 l 574 418 l 574 340 l 199 340 l 199 82 l 600 82 m 485 829 l 346 946 l 208 829 l 168 871 l 346 1033 l 525 871 "},"":{"ha":646,"x_min":0,"x_max":0,"o":"m 600 0 l 93 0 l 93 733 l 596 733 l 596 653 l 199 653 l 199 418 l 574 418 l 574 340 l 199 340 l 199 82 l 600 82 m 342 813 l 163 975 l 201 1015 l 342 900 l 481 1014 l 519 975 "},"":{"ha":646,"x_min":0,"x_max":0,"o":"m 600 0 l 93 0 l 93 733 l 596 733 l 596 653 l 199 653 l 199 418 l 574 418 l 574 340 l 199 340 l 199 82 l 600 82 m 272 865 l 176 865 l 176 988 l 272 988 m 499 865 l 403 865 l 403 988 l 499 988 "},"":{"ha":646,"x_min":0,"x_max":0,"o":"m 600 0 l 93 0 l 93 733 l 596 733 l 596 653 l 199 653 l 199 418 l 574 418 l 574 340 l 199 340 l 199 82 l 600 82 m 390 865 l 283 865 l 283 988 l 390 988 "},"":{"ha":646,"x_min":0,"x_max":0,"o":"m 600 0 l 93 0 l 93 733 l 596 733 l 596 653 l 199 653 l 199 418 l 574 418 l 574 340 l 199 340 l 199 82 l 600 82 m 492 890 l 186 890 l 186 963 l 492 963 "},"":{"ha":646,"x_min":0,"x_max":0,"o":"m 600 0 l 93 0 l 93 733 l 596 733 l 596 653 l 199 653 l 199 418 l 574 418 l 574 340 l 199 340 l 199 82 l 600 82 m 517 996 b 342 833 513 882 447 833 b 165 996 233 833 169 882 l 226 996 b 342 903 236 922 276 903 b 457 996 408 903 447 921 "},"":{"ha":646,"x_min":0,"x_max":0,"o":"m 571 -249 b 463 -267 539 -258 500 -267 b 347 -176 386 -267 347 -239 b 472 0 347 -112 392 -62 l 93 0 l 93 733 l 596 733 l 596 653 l 199 653 l 199 418 l 574 418 l 574 340 l 199 340 l 199 82 l 600 82 l 600 0 l 546 0 b 421 -156 457 -62 421 -110 b 486 -204 421 -192 443 -204 b 571 -193 511 -204 542 -200 "},"":{"ha":764,"x_min":0,"x_max":0,"o":"m 379 -8 b 71 339 122 -8 71 51 l 71 397 b 385 742 71 681 124 742 l 404 742 b 689 533 635 742 689 686 l 689 513 l 585 513 l 585 529 b 403 657 585 626 561 657 l 385 657 b 178 400 208 657 178 625 l 178 338 b 383 76 178 110 213 76 l 403 76 b 594 236 565 76 594 100 l 594 286 l 367 286 l 367 368 l 694 368 l 694 246 b 400 -8 694 38 639 -8 m 522 829 l 383 946 l 246 829 l 206 871 l 383 1033 l 563 871 "},"":{"ha":764,"x_min":0,"x_max":0,"o":"m 379 -8 b 71 339 122 -8 71 51 l 71 397 b 385 742 71 681 124 742 l 404 742 b 689 533 635 742 689 686 l 689 513 l 585 513 l 585 529 b 403 657 585 626 561 657 l 385 657 b 178 400 208 657 178 625 l 178 338 b 383 76 178 110 213 76 l 403 76 b 594 236 565 76 594 100 l 594 286 l 367 286 l 367 368 l 694 368 l 694 246 b 400 -8 694 38 639 -8 m 436 865 l 329 865 l 329 988 l 436 988 "},"":{"ha":764,"x_min":0,"x_max":0,"o":"m 379 -8 b 71 339 122 -8 71 51 l 71 397 b 385 742 71 681 124 742 l 404 742 b 689 533 635 742 689 686 l 689 513 l 585 513 l 585 529 b 403 657 585 626 561 657 l 385 657 b 178 400 208 657 178 625 l 178 338 b 383 76 178 110 213 76 l 403 76 b 594 236 565 76 594 100 l 594 286 l 367 286 l 367 368 l 694 368 l 694 246 b 400 -8 694 38 639 -8 m 561 996 b 386 833 557 882 492 833 b 210 996 278 833 214 882 l 271 996 b 386 903 281 922 321 903 b 501 996 453 903 492 921 "},"":{"ha":764,"x_min":0,"x_max":0,"o":"m 379 -8 b 71 339 122 -8 71 51 l 71 397 b 385 742 71 681 124 742 l 404 742 b 689 533 635 742 689 686 l 689 513 l 585 513 l 585 529 b 403 657 585 626 561 657 l 385 657 b 178 400 208 657 178 625 l 178 338 b 383 76 178 110 213 76 l 403 76 b 594 236 565 76 594 100 l 594 286 l 367 286 l 367 368 l 694 368 l 694 246 b 400 -8 694 38 639 -8 m 444 -174 b 331 -310 444 -271 422 -304 l 331 -265 b 382 -181 372 -260 382 -246 l 382 -172 l 351 -172 l 351 -68 l 444 -68 "},"":{"ha":800,"x_min":0,"x_max":0,"o":"m 707 0 l 600 0 l 600 339 l 200 339 l 200 0 l 93 0 l 93 733 l 200 733 l 200 425 l 600 425 l 600 733 l 707 733 m 539 829 l 400 946 l 263 829 l 222 871 l 400 1033 l 579 871 "},"":{"ha":800,"x_min":0,"x_max":0,"o":"m 707 0 l 600 0 l 600 339 l 200 339 l 200 0 l 93 0 l 93 544 l 42 544 l 42 606 l 93 606 l 93 733 l 200 733 l 200 606 l 600 606 l 600 733 l 707 733 l 707 606 l 757 606 l 757 544 l 707 544 m 600 425 l 600 544 l 200 544 l 200 425 "},"":{"ha":293,"x_min":0,"x_max":0,"o":"m 200 0 l 93 0 l 93 733 l 200 733 m 164 813 l -56 967 l -3 1035 l 196 853 "},"":{"ha":293,"x_min":0,"x_max":0,"o":"m 200 0 l 93 0 l 93 733 l 200 733 m 133 814 l 101 854 l 300 1036 l 354 968 "},"":{"ha":293,"x_min":0,"x_max":0,"o":"m 200 0 l 93 0 l 93 733 l 200 733 m 285 829 l 146 946 l 8 829 l -32 871 l 146 1033 l 325 871 "},"":{"ha":293,"x_min":0,"x_max":0,"o":"m 200 0 l 93 0 l 93 733 l 200 733 m 322 979 b 222 853 315 897 285 853 b 138 888 189 853 164 868 b 72 915 111 906 93 915 b 18 851 46 915 26 901 l -29 863 b 69 986 -24 942 10 986 b 151 956 100 986 125 974 b 221 925 179 936 200 925 b 274 989 251 925 268 943 "},"":{"ha":293,"x_min":0,"x_max":0,"o":"m 200 0 l 93 0 l 93 733 l 200 733 m 81 865 l -15 865 l -15 988 l 81 988 m 307 865 l 211 865 l 211 988 l 307 988 "},"":{"ha":293,"x_min":0,"x_max":0,"o":"m 200 0 l 93 0 l 93 733 l 200 733 m 299 890 l -7 890 l -7 963 l 299 963 "},"":{"ha":293,"x_min":0,"x_max":0,"o":"m 200 0 l 93 0 l 93 733 l 200 733 m 200 865 l 93 865 l 93 988 l 200 988 "},"":{"ha":293,"x_min":0,"x_max":0,"o":"m 225 -250 b 122 -267 194 -260 160 -267 b 8 -176 49 -267 8 -242 b 117 0 8 -115 46 -62 l 93 0 l 93 733 l 200 733 l 200 0 l 181 0 b 82 -157 108 -67 82 -118 b 146 -204 82 -193 104 -204 b 225 -194 171 -204 199 -201 "},"":{"ha":619,"x_min":0,"x_max":0,"o":"m 258 -7 b 33 217 68 -7 33 29 l 33 256 l 132 256 l 132 228 b 261 79 132 97 149 79 l 279 79 b 426 244 411 79 426 94 l 426 733 l 533 733 l 533 250 b 281 -7 533 33 494 -7 m 617 829 l 478 946 l 340 829 l 300 871 l 478 1033 l 657 871 "},"":{"ha":728,"x_min":0,"x_max":0,"o":"m 715 0 l 579 0 l 272 336 l 197 336 l 197 0 l 93 0 l 93 733 l 197 733 l 197 415 l 275 415 l 567 733 l 693 733 l 356 378 m 410 -174 b 296 -310 410 -271 388 -304 l 296 -265 b 347 -181 338 -260 347 -246 l 347 -172 l 317 -172 l 317 -68 l 410 -68 "},"":{"ha":576,"x_min":0,"x_max":0,"o":"m 560 0 l 93 0 l 93 733 l 200 733 l 200 85 l 560 85 m 167 814 l 135 854 l 333 1036 l 388 968 "},"":{"ha":576,"x_min":0,"x_max":0,"o":"m 560 0 l 93 0 l 93 733 l 200 733 l 200 85 l 560 85 m 381 632 b 282 483 381 525 354 490 l 282 532 b 318 619 310 539 318 551 l 318 629 l 288 629 l 288 733 l 381 733 "},"":{"ha":576,"x_min":0,"x_max":0,"o":"m 560 0 l 93 0 l 93 733 l 200 733 l 200 85 l 560 85 m 358 -174 b 244 -310 358 -271 336 -304 l 244 -265 b 296 -181 286 -260 296 -246 l 296 -172 l 265 -172 l 265 -68 l 358 -68 "},"":{"ha":576,"x_min":0,"x_max":0,"o":"m 560 0 l 93 0 l 93 733 l 200 733 l 200 85 l 560 85 m 501 339 l 388 339 l 388 486 l 501 486 "},"":{"ha":576,"x_min":0,"x_max":0,"o":"m 560 0 l 93 0 l 93 299 l 25 264 l 25 333 l 93 369 l 93 733 l 200 733 l 200 419 l 372 507 l 372 438 l 200 350 l 200 85 l 560 85 "},"":{"ha":833,"x_min":0,"x_max":0,"o":"m 740 0 l 582 0 l 196 644 l 193 644 l 193 0 l 93 0 l 93 733 l 253 733 l 636 90 l 640 90 l 640 733 l 740 733 m 326 814 l 294 854 l 493 1036 l 547 968 "},"":{"ha":833,"x_min":0,"x_max":0,"o":"m 740 0 l 582 0 l 196 644 l 193 644 l 193 0 l 93 0 l 93 733 l 253 733 l 636 90 l 640 90 l 640 733 l 740 733 m 422 813 l 243 975 l 282 1015 l 422 900 l 561 1014 l 600 975 "},"":{"ha":833,"x_min":0,"x_max":0,"o":"m 740 0 l 582 0 l 196 644 l 193 644 l 193 0 l 93 0 l 93 733 l 253 733 l 636 90 l 640 90 l 640 733 l 740 733 m 597 979 b 497 853 590 897 560 853 b 413 888 464 853 439 868 b 347 915 386 906 368 915 b 293 851 321 915 301 901 l 246 863 b 344 986 251 942 285 986 b 426 956 375 986 400 974 b 496 925 454 936 475 925 b 549 989 526 925 543 943 "},"":{"ha":833,"x_min":0,"x_max":0,"o":"m 740 0 l 582 0 l 196 644 l 193 644 l 193 0 l 93 0 l 93 733 l 253 733 l 636 90 l 640 90 l 640 733 l 740 733 m 472 -174 b 358 -310 472 -271 450 -304 l 358 -265 b 410 -181 400 -260 410 -246 l 410 -172 l 379 -172 l 379 -68 l 472 -68 "},"":{"ha":790,"x_min":0,"x_max":0,"o":"m 385 -8 b 71 336 133 -8 71 60 l 71 396 b 385 742 71 674 133 742 l 406 742 b 719 396 657 742 719 674 l 719 336 b 406 -8 719 60 657 -8 m 403 79 b 614 340 575 79 614 114 l 614 394 b 403 657 614 621 575 657 l 386 657 b 176 394 214 657 176 621 l 176 340 b 386 79 176 114 214 79 m 489 813 l 269 967 l 322 1035 l 521 853 "},"":{"ha":790,"x_min":0,"x_max":0,"o":"m 385 -8 b 71 336 133 -8 71 60 l 71 396 b 385 742 71 674 133 742 l 406 742 b 719 396 657 742 719 674 l 719 336 b 406 -8 719 60 657 -8 m 403 79 b 614 340 575 79 614 114 l 614 394 b 403 657 614 621 575 657 l 386 657 b 176 394 214 657 176 621 l 176 340 b 386 79 176 114 214 79 m 306 814 l 274 854 l 472 1036 l 526 968 "},"":{"ha":790,"x_min":0,"x_max":0,"o":"m 385 -8 b 71 336 133 -8 71 60 l 71 396 b 385 742 71 674 133 742 l 406 742 b 719 396 657 742 719 674 l 719 336 b 406 -8 719 60 657 -8 m 403 79 b 614 340 575 79 614 114 l 614 394 b 403 657 614 621 575 657 l 386 657 b 176 394 214 657 176 621 l 176 340 b 386 79 176 114 214 79 m 533 829 l 394 946 l 257 829 l 217 871 l 394 1033 l 574 871 "},"":{"ha":790,"x_min":0,"x_max":0,"o":"m 385 -8 b 71 336 133 -8 71 60 l 71 396 b 385 742 71 674 133 742 l 406 742 b 719 396 657 742 719 674 l 719 336 b 406 -8 719 60 657 -8 m 403 79 b 614 340 575 79 614 114 l 614 394 b 403 657 614 621 575 657 l 386 657 b 176 394 214 657 176 621 l 176 340 b 386 79 176 114 214 79 m 571 979 b 471 853 564 897 533 853 b 386 888 438 853 413 868 b 321 915 360 906 342 915 b 267 851 294 915 275 901 l 219 863 b 318 986 225 942 258 986 b 400 956 349 986 374 974 b 469 925 428 936 449 925 b 522 989 500 925 517 943 "},"":{"ha":790,"x_min":0,"x_max":0,"o":"m 385 -8 b 71 336 133 -8 71 60 l 71 396 b 385 742 71 674 133 742 l 406 742 b 719 396 657 742 719 674 l 719 336 b 406 -8 719 60 657 -8 m 403 79 b 614 340 575 79 614 114 l 614 394 b 403 657 614 621 575 657 l 386 657 b 176 394 214 657 176 621 l 176 340 b 386 79 176 114 214 79 m 329 865 l 233 865 l 233 988 l 329 988 m 556 865 l 460 865 l 460 988 l 556 988 "},"":{"ha":790,"x_min":0,"x_max":0,"o":"m 385 -8 b 71 336 133 -8 71 60 l 71 396 b 385 742 71 674 133 742 l 406 742 b 719 396 657 742 719 674 l 719 336 b 406 -8 719 60 657 -8 m 403 79 b 614 340 575 79 614 114 l 614 394 b 403 657 614 621 575 657 l 386 657 b 176 394 214 657 176 621 l 176 340 b 386 79 176 114 214 79 m 547 890 l 242 890 l 242 963 l 547 963 "},"":{"ha":790,"x_min":0,"x_max":0,"o":"m 385 -8 b 71 336 133 -8 71 60 l 71 396 b 385 742 71 674 133 742 l 406 742 b 719 396 657 742 719 674 l 719 336 b 406 -8 719 60 657 -8 m 403 79 b 614 340 575 79 614 114 l 614 394 b 403 657 614 621 575 657 l 386 657 b 176 394 214 657 176 621 l 176 340 b 386 79 176 114 214 79 m 571 996 b 396 833 567 882 501 833 b 219 996 288 833 224 882 l 281 996 b 396 903 290 922 331 903 b 511 996 463 903 501 921 "},"":{"ha":790,"x_min":0,"x_max":0,"o":"m 385 -8 b 71 336 133 -8 71 60 l 71 396 b 385 742 71 674 133 742 l 406 742 b 719 396 657 742 719 674 l 719 336 b 406 -8 719 60 657 -8 m 403 79 b 614 340 575 79 614 114 l 614 394 b 403 657 614 621 575 657 l 386 657 b 176 394 214 657 176 621 l 176 340 b 386 79 176 114 214 79 m 472 990 l 293 819 l 258 857 l 418 1042 m 661 989 l 479 818 l 444 856 l 607 1040 "},"":{"ha":790,"x_min":0,"x_max":0,"o":"m 679 761 l 722 725 l 669 658 b 719 396 707 606 719 522 l 719 336 b 406 -8 719 60 657 -8 l 385 -8 b 165 33 283 -8 213 3 l 113 -31 l 68 7 l 122 74 b 71 336 83 126 71 208 l 71 396 b 385 742 71 674 133 742 l 406 742 b 628 697 508 742 579 729 m 403 658 l 386 658 b 174 394 211 658 174 621 l 174 340 b 193 161 174 257 179 200 l 567 621 b 403 658 533 650 482 658 m 403 76 b 617 340 578 76 617 114 l 617 394 b 597 569 617 474 611 531 l 228 111 b 386 76 260 83 310 76 "},"":{"ha":1161,"x_min":0,"x_max":0,"o":"m 1115 0 l 613 0 l 613 75 l 611 75 b 392 -8 582 11 525 -8 l 371 -8 b 71 336 133 -8 71 57 l 71 397 b 367 742 71 678 135 742 l 386 742 b 611 661 529 742 582 722 l 613 661 l 613 733 l 1111 733 l 1111 653 l 715 653 l 715 418 l 1089 418 l 1089 340 l 715 340 l 715 82 l 1115 82 m 613 417 b 406 657 613 617 572 657 l 386 657 b 176 408 217 657 176 619 l 176 331 b 388 78 176 125 208 78 l 404 78 b 613 307 565 78 613 114 "},"":{"ha":747,"x_min":0,"x_max":0,"o":"m 439 364 b 564 490 538 364 564 396 l 564 518 b 401 653 564 635 542 653 l 199 653 l 199 364 m 669 0 l 564 0 l 564 104 b 407 285 564 267 546 285 l 199 285 l 199 0 l 93 0 l 93 733 l 421 733 b 669 529 626 733 669 694 l 669 501 b 576 331 669 393 639 349 l 576 329 b 669 135 650 313 669 272 m 296 814 l 264 854 l 463 1036 l 517 968 "},"":{"ha":747,"x_min":0,"x_max":0,"o":"m 439 364 b 564 490 538 364 564 396 l 564 518 b 401 653 564 635 542 653 l 199 653 l 199 364 m 669 0 l 564 0 l 564 104 b 407 285 564 267 546 285 l 199 285 l 199 0 l 93 0 l 93 733 l 421 733 b 669 529 626 733 669 694 l 669 501 b 576 331 669 393 639 349 l 576 329 b 669 135 650 313 669 272 m 435 -174 b 321 -310 435 -271 413 -304 l 321 -265 b 372 -181 363 -260 372 -246 l 372 -172 l 342 -172 l 342 -68 l 435 -68 "},"":{"ha":747,"x_min":0,"x_max":0,"o":"m 439 364 b 564 490 538 364 564 396 l 564 518 b 401 653 564 635 542 653 l 199 653 l 199 364 m 669 0 l 564 0 l 564 104 b 407 285 564 267 546 285 l 199 285 l 199 0 l 93 0 l 93 733 l 421 733 b 669 529 626 733 669 694 l 669 501 b 576 331 669 393 639 349 l 576 329 b 669 135 650 313 669 272 m 376 813 l 197 975 l 236 1015 l 376 900 l 515 1014 l 554 975 "},"":{"ha":721,"x_min":0,"x_max":0,"o":"m 358 -8 b 72 203 114 -8 72 31 l 72 233 l 175 233 l 175 206 b 356 75 175 92 199 75 l 378 75 b 553 200 535 75 553 99 l 553 215 b 351 332 553 296 529 319 b 83 533 131 347 83 394 l 83 554 b 340 742 83 696 140 742 l 364 742 b 638 539 593 742 638 699 l 638 513 l 538 513 l 538 535 b 369 660 538 639 511 660 l 351 660 b 185 553 211 660 185 639 l 185 536 b 383 419 185 457 206 432 b 656 219 610 403 656 357 l 656 201 b 383 -8 656 36 604 -8 m 276 814 l 244 854 l 443 1036 l 497 968 "},"":{"ha":721,"x_min":0,"x_max":0,"o":"m 358 -8 b 72 203 114 -8 72 31 l 72 233 l 175 233 l 175 206 b 356 75 175 92 199 75 l 378 75 b 553 200 535 75 553 99 l 553 215 b 351 332 553 296 529 319 b 83 533 131 347 83 394 l 83 554 b 340 742 83 696 140 742 l 364 742 b 638 539 593 742 638 699 l 638 513 l 538 513 l 538 535 b 369 660 538 639 511 660 l 351 660 b 185 553 211 660 185 639 l 185 536 b 383 419 185 457 206 432 b 656 219 610 403 656 357 l 656 201 b 383 -8 656 36 604 -8 m 501 829 l 363 946 l 225 829 l 185 871 l 363 1033 l 542 871 "},"":{"ha":721,"x_min":0,"x_max":0,"o":"m 358 -8 b 72 203 114 -8 72 31 l 72 233 l 175 233 l 175 206 b 356 75 175 92 199 75 l 378 75 b 553 200 535 75 553 99 l 553 215 b 351 332 553 296 529 319 b 83 533 131 347 83 394 l 83 554 b 340 742 83 696 140 742 l 364 742 b 638 539 593 742 638 699 l 638 513 l 538 513 l 538 535 b 369 660 538 639 511 660 l 351 660 b 185 553 211 660 185 639 l 185 536 b 383 419 185 457 206 432 b 656 219 610 403 656 357 l 656 201 b 383 -8 656 36 604 -8 m 364 813 l 185 975 l 224 1015 l 364 900 l 503 1014 l 542 975 "},"":{"ha":721,"x_min":0,"x_max":0,"o":"m 358 -8 b 72 203 114 -8 72 31 l 72 233 l 175 233 l 175 206 b 356 75 175 92 199 75 l 378 75 b 553 200 535 75 553 99 l 553 215 b 351 332 553 296 529 319 b 83 533 131 347 83 394 l 83 554 b 340 742 83 696 140 742 l 364 742 b 638 539 593 742 638 699 l 638 513 l 538 513 l 538 535 b 369 660 538 639 511 660 l 351 660 b 185 553 211 660 185 639 l 185 536 b 383 419 185 457 206 432 b 656 219 610 403 656 357 l 656 201 b 383 -8 656 36 604 -8 m 250 -239 l 215 -204 l 394 -10 l 453 -71 "},"":{"ha":721,"x_min":0,"x_max":0,"o":"m 358 -8 b 72 203 114 -8 72 31 l 72 233 l 175 233 l 175 206 b 356 75 175 92 199 75 l 378 75 b 553 200 535 75 553 99 l 553 215 b 351 332 553 296 529 319 b 83 533 131 347 83 394 l 83 554 b 340 742 83 696 140 742 l 364 742 b 638 539 593 742 638 699 l 638 513 l 538 513 l 538 535 b 369 660 538 639 511 660 l 351 660 b 185 553 211 660 185 639 l 185 536 b 383 419 185 457 206 432 b 656 219 610 403 656 357 l 656 201 b 383 -8 656 36 604 -8 m 432 -174 b 318 -310 432 -271 410 -304 l 318 -265 b 369 -181 360 -260 369 -246 l 369 -172 l 339 -172 l 339 -68 l 432 -68 "},"":{"ha":1442,"x_min":0,"x_max":0,"o":"m 358 -8 b 72 203 114 -8 72 31 l 72 233 l 175 233 l 175 206 b 356 75 175 92 199 75 l 378 75 b 553 200 535 75 553 99 l 553 215 b 351 332 553 296 529 319 b 83 533 131 347 83 394 l 83 554 b 340 742 83 696 140 742 l 364 742 b 638 539 593 742 638 699 l 638 513 l 538 513 l 538 535 b 369 660 538 639 511 660 l 351 660 b 185 553 211 660 185 639 l 185 536 b 383 419 185 457 206 432 b 656 219 610 403 656 357 l 656 201 b 383 -8 656 36 604 -8 m 1079 -8 b 793 203 835 -8 793 31 l 793 233 l 896 233 l 896 206 b 1076 75 896 92 919 75 l 1099 75 b 1274 200 1256 75 1274 99 l 1274 215 b 1072 332 1274 296 1250 319 b 804 533 851 347 804 394 l 804 554 b 1061 742 804 696 861 742 l 1085 742 b 1358 539 1314 742 1358 699 l 1358 513 l 1258 513 l 1258 535 b 1090 660 1258 639 1232 660 l 1072 660 b 906 553 932 660 906 639 l 906 536 b 1104 419 906 457 926 432 b 1376 219 1331 403 1376 357 l 1376 201 b 1104 -8 1376 36 1325 -8 "},"":{"ha":622,"x_min":0,"x_max":0,"o":"m 364 0 l 257 0 l 257 649 l 17 649 l 17 733 l 606 733 l 606 649 l 364 649 m 314 813 l 135 975 l 174 1015 l 314 900 l 453 1014 l 492 975 "},"":{"ha":622,"x_min":0,"x_max":0,"o":"m 364 0 l 257 0 l 257 649 l 17 649 l 17 733 l 606 733 l 606 649 l 364 649 m 358 -174 b 244 -310 358 -271 336 -304 l 244 -265 b 296 -181 286 -260 296 -246 l 296 -172 l 265 -172 l 265 -68 l 358 -68 "},"":{"ha":622,"x_min":0,"x_max":0,"o":"m 364 0 l 257 0 l 257 438 l 78 438 l 78 500 l 257 500 l 257 649 l 17 649 l 17 733 l 606 733 l 606 649 l 364 649 l 364 500 l 544 500 l 544 438 l 364 438 "},"":{"ha":724,"x_min":0,"x_max":0,"o":"m 199 147 l 199 0 l 93 0 l 93 733 l 199 733 l 199 611 l 396 611 b 672 393 622 611 672 574 l 672 368 b 399 147 672 192 618 147 m 388 228 b 567 368 546 228 567 253 l 567 392 b 388 531 567 513 544 531 l 199 531 l 199 228 "},"":{"ha":786,"x_min":0,"x_max":0,"o":"m 385 -7 b 86 242 140 -7 86 35 l 86 733 l 193 733 l 193 250 b 383 79 193 103 219 79 l 404 79 b 593 250 569 79 593 101 l 593 733 l 700 733 l 700 242 b 403 -7 700 35 649 -7 m 490 813 l 271 967 l 324 1035 l 522 853 "},"":{"ha":786,"x_min":0,"x_max":0,"o":"m 385 -7 b 86 242 140 -7 86 35 l 86 733 l 193 733 l 193 250 b 383 79 193 103 219 79 l 404 79 b 593 250 569 79 593 101 l 593 733 l 700 733 l 700 242 b 403 -7 700 35 649 -7 m 313 814 l 281 854 l 479 1036 l 533 968 "},"":{"ha":786,"x_min":0,"x_max":0,"o":"m 385 -7 b 86 242 140 -7 86 35 l 86 733 l 193 733 l 193 250 b 383 79 193 103 219 79 l 404 79 b 593 250 569 79 593 101 l 593 733 l 700 733 l 700 242 b 403 -7 700 35 649 -7 m 532 829 l 393 946 l 256 829 l 215 871 l 393 1033 l 572 871 "},"":{"ha":786,"x_min":0,"x_max":0,"o":"m 385 -7 b 86 242 140 -7 86 35 l 86 733 l 193 733 l 193 250 b 383 79 193 103 219 79 l 404 79 b 593 250 569 79 593 101 l 593 733 l 700 733 l 700 242 b 403 -7 700 35 649 -7 m 569 979 b 469 853 563 897 532 853 b 385 888 436 853 411 868 b 319 915 358 906 340 915 b 265 851 293 915 274 901 l 218 863 b 317 986 224 942 257 986 b 399 956 347 986 372 974 b 468 925 426 936 447 925 b 521 989 499 925 515 943 "},"":{"ha":786,"x_min":0,"x_max":0,"o":"m 385 -7 b 86 242 140 -7 86 35 l 86 733 l 193 733 l 193 250 b 383 79 193 103 219 79 l 404 79 b 593 250 569 79 593 101 l 593 733 l 700 733 l 700 242 b 403 -7 700 35 649 -7 m 328 865 l 232 865 l 232 988 l 328 988 m 554 865 l 458 865 l 458 988 l 554 988 "},"":{"ha":786,"x_min":0,"x_max":0,"o":"m 385 -7 b 86 242 140 -7 86 35 l 86 733 l 193 733 l 193 250 b 383 79 193 103 219 79 l 404 79 b 593 250 569 79 593 101 l 593 733 l 700 733 l 700 242 b 403 -7 700 35 649 -7 m 546 890 l 240 890 l 240 963 l 546 963 "},"":{"ha":786,"x_min":0,"x_max":0,"o":"m 385 -7 b 86 242 140 -7 86 35 l 86 733 l 193 733 l 193 250 b 383 79 193 103 219 79 l 404 79 b 593 250 569 79 593 101 l 593 733 l 700 733 l 700 242 b 403 -7 700 35 649 -7 m 569 996 b 394 833 565 882 500 833 b 218 996 286 833 222 882 l 279 996 b 394 903 289 922 329 903 b 510 996 461 903 500 921 "},"":{"ha":786,"x_min":0,"x_max":0,"o":"m 385 -7 b 86 242 140 -7 86 35 l 86 733 l 193 733 l 193 250 b 383 79 193 103 219 79 l 404 79 b 593 250 569 79 593 101 l 593 733 l 700 733 l 700 242 b 403 -7 700 35 649 -7 m 389 818 b 251 922 286 818 251 847 l 251 931 b 389 1035 251 1006 286 1035 l 397 1035 b 535 931 500 1035 535 1006 l 535 922 b 397 818 535 847 500 818 m 397 861 b 482 924 461 861 482 876 l 482 932 b 397 993 482 979 461 993 l 389 993 b 304 932 324 993 304 979 l 304 924 b 389 861 304 876 324 861 "},"":{"ha":786,"x_min":0,"x_max":0,"o":"m 385 -7 b 86 242 140 -7 86 35 l 86 733 l 193 733 l 193 250 b 383 79 193 103 219 79 l 404 79 b 593 250 569 79 593 101 l 593 733 l 700 733 l 700 242 b 403 -7 700 35 649 -7 m 460 990 l 281 819 l 246 857 l 406 1042 m 649 989 l 467 818 l 432 856 l 594 1040 "},"":{"ha":786,"x_min":0,"x_max":0,"o":"m 499 -249 b 390 -267 467 -258 428 -267 b 275 -176 313 -267 275 -239 b 382 -8 275 -117 314 -67 b 86 242 138 -6 86 38 l 86 733 l 193 733 l 193 250 b 383 79 193 101 219 79 l 403 79 b 593 250 569 79 593 100 l 593 733 l 700 733 l 700 243 b 450 -7 700 50 656 0 b 349 -157 381 -65 349 -112 b 414 -204 349 -193 371 -204 b 499 -193 439 -204 469 -200 "},"":{"ha":1061,"x_min":0,"x_max":0,"o":"m 833 0 l 701 0 l 533 633 l 531 633 l 361 0 l 231 0 l 28 733 l 135 733 l 299 89 l 301 89 l 471 733 l 593 733 l 765 89 l 767 89 l 929 733 l 1033 733 m 671 829 l 532 946 l 394 829 l 354 871 l 532 1033 l 711 871 "},"":{"ha":693,"x_min":0,"x_max":0,"o":"m 400 0 l 293 0 l 293 258 l 13 733 l 129 733 l 347 347 l 349 347 l 564 733 l 681 733 l 400 258 m 281 814 l 249 854 l 447 1036 l 501 968 "},"":{"ha":693,"x_min":0,"x_max":0,"o":"m 400 0 l 293 0 l 293 258 l 13 733 l 129 733 l 347 347 l 349 347 l 564 733 l 681 733 l 400 258 m 488 829 l 349 946 l 211 829 l 171 871 l 349 1033 l 528 871 "},"":{"ha":693,"x_min":0,"x_max":0,"o":"m 400 0 l 293 0 l 293 258 l 13 733 l 129 733 l 347 347 l 349 347 l 564 733 l 681 733 l 400 258 m 282 865 l 186 865 l 186 988 l 282 988 m 508 865 l 413 865 l 413 988 l 508 988 "},"":{"ha":681,"x_min":0,"x_max":0,"o":"m 631 0 l 53 0 l 53 78 l 499 653 l 499 654 l 69 654 l 69 733 l 625 733 l 625 654 l 181 82 l 181 81 l 631 81 m 274 814 l 242 854 l 440 1036 l 494 968 "},"":{"ha":681,"x_min":0,"x_max":0,"o":"m 631 0 l 53 0 l 53 78 l 499 653 l 499 654 l 69 654 l 69 733 l 625 733 l 625 654 l 181 82 l 181 81 l 631 81 m 347 813 l 168 975 l 207 1015 l 347 900 l 486 1014 l 525 975 "},"":{"ha":681,"x_min":0,"x_max":0,"o":"m 631 0 l 53 0 l 53 78 l 499 653 l 499 654 l 69 654 l 69 733 l 625 733 l 625 654 l 181 82 l 181 81 l 631 81 m 394 865 l 288 865 l 288 988 l 394 988 "},"":{"ha":929,"x_min":0,"x_max":0,"o":"m 564 319 l 200 319 l 200 0 l 93 0 l 93 733 l 585 733 l 585 651 l 200 651 l 200 399 l 564 399 m 836 0 l 729 0 l 729 733 l 836 733 "},"":{"ha":1213,"x_min":0,"x_max":0,"o":"m 564 319 l 200 319 l 200 0 l 93 0 l 93 733 l 585 733 l 585 651 l 200 651 l 200 399 l 564 399 m 1196 0 l 729 0 l 729 733 l 836 733 l 836 85 l 1196 85 "},"":{"ha":931,"x_min":0,"x_max":0,"o":"m 200 0 l 93 0 l 93 733 l 200 733 m 569 -7 b 344 217 379 -7 344 29 l 344 256 l 443 256 l 443 228 b 572 79 443 97 460 79 l 590 79 b 738 244 722 79 738 94 l 738 733 l 844 733 l 844 250 b 592 -7 844 33 806 -7 "},"":{"ha":328,"x_min":0,"x_max":0,"o":"m 215 603 l 113 603 l 113 733 l 215 733 m 217 0 l 111 0 l 118 508 l 210 508 "},"":{"ha":628,"x_min":0,"x_max":0,"o":"m 294 733 l 399 733 l 399 604 l 294 604 m 301 511 l 394 511 l 394 483 b 281 347 394 400 369 369 b 157 207 172 321 157 300 l 157 193 b 304 68 157 94 181 68 l 319 68 b 478 213 450 68 478 89 l 478 242 l 568 242 l 568 213 b 319 -8 568 28 518 -8 l 303 -8 b 64 188 110 -8 64 38 l 64 207 b 224 413 64 336 97 382 b 301 490 288 428 301 440 "},"":{"ha":765,"x_min":0,"x_max":0,"o":"m 419 -8 b 128 288 181 -8 133 44 l 54 288 l 54 336 l 126 336 l 126 414 l 54 414 l 54 463 l 128 463 b 419 742 133 693 190 742 l 438 742 b 690 557 638 742 690 696 l 690 535 l 592 535 l 592 550 b 436 658 592 639 569 658 l 422 658 b 232 463 267 658 238 646 l 543 463 l 543 414 l 232 414 l 232 336 l 543 336 l 543 288 l 232 288 b 421 75 236 94 265 75 l 435 75 b 600 192 575 75 600 94 l 600 207 l 699 207 l 699 185 b 438 -8 699 40 644 -8 "},"":{"ha":633,"x_min":0,"x_max":0,"o":"m 344 -33 l 292 -33 l 292 89 b 71 338 117 92 71 142 l 71 374 b 292 622 71 575 117 619 l 292 733 l 344 733 l 344 622 b 560 450 513 621 560 582 l 560 428 l 469 428 l 469 443 b 344 546 469 525 450 546 l 344 165 b 472 275 449 165 472 189 l 472 290 l 563 290 l 563 267 b 344 89 563 126 503 90 m 165 336 b 292 165 165 196 186 168 l 292 546 b 165 376 185 546 165 521 "},"":{"ha":711,"x_min":0,"x_max":0,"o":"m 651 0 l 67 0 l 67 81 b 150 311 133 101 149 138 l 60 311 l 60 383 l 151 383 l 151 413 b 390 742 153 692 193 742 l 413 742 b 632 547 593 742 632 703 l 632 526 l 538 526 l 538 544 b 411 661 538 643 517 661 l 396 661 b 250 421 269 661 250 644 l 250 383 l 500 383 l 500 311 l 249 311 b 169 82 244 151 226 111 l 169 81 l 651 81 "},"":{"ha":686,"x_min":0,"x_max":0,"o":"m 353 135 b 147 -67 329 -8 281 -67 b 46 -56 113 -67 74 -62 l 46 18 b 131 6 71 11 104 6 b 257 153 208 6 236 35 l 294 368 l 146 368 l 146 443 l 307 443 l 324 539 b 539 742 350 689 407 742 b 636 733 572 742 606 739 l 636 660 b 551 668 611 664 579 668 b 418 519 467 668 439 639 l 404 443 l 588 443 l 588 368 l 392 368 "},"":{"ha":706,"x_min":0,"x_max":0,"o":"m 404 0 l 300 0 l 300 225 l 79 225 l 79 283 l 300 283 l 300 289 l 240 390 l 79 390 l 79 449 l 207 449 l 39 733 l 151 733 l 353 358 l 356 358 l 553 733 l 665 733 l 497 449 l 625 449 l 625 390 l 464 390 l 404 289 l 404 283 l 625 283 l 625 225 l 404 225 "},"":{"ha":1158,"x_min":0,"x_max":0,"o":"m 199 399 b 67 557 94 399 67 431 l 67 576 b 199 735 67 703 94 735 l 213 735 b 344 576 317 735 344 703 l 344 557 b 213 399 344 431 317 399 m 210 453 b 278 554 265 453 278 467 l 278 579 b 210 681 278 667 265 681 l 201 681 b 133 579 146 681 133 667 l 133 554 b 201 453 133 467 146 453 m 294 0 l 229 0 l 519 733 l 585 733 m 617 54 b 685 156 672 54 685 68 l 685 181 b 617 282 685 268 672 282 l 608 282 b 540 181 553 282 540 268 l 540 156 b 608 54 540 68 553 54 m 606 0 b 474 158 501 0 474 32 l 474 178 b 606 336 474 304 501 336 l 619 336 b 751 178 724 336 751 304 l 751 158 b 619 0 751 32 724 0 m 957 54 b 1025 156 1013 54 1025 68 l 1025 181 b 957 282 1025 268 1013 282 l 949 282 b 881 181 893 282 881 268 l 881 156 b 949 54 881 68 893 54 m 946 0 b 814 158 842 0 814 32 l 814 178 b 946 336 814 304 842 336 l 960 336 b 1092 178 1064 336 1092 304 l 1092 158 b 960 0 1092 32 1064 0 "},"":{"ha":408,"x_min":0,"x_max":0,"o":"m 343 -11 l 296 -11 b 151 153 189 -11 151 21 l 151 221 b 69 343 151 293 138 343 l 69 400 b 151 521 138 400 151 449 l 151 581 b 296 744 151 713 189 744 l 343 744 l 343 678 l 315 678 b 240 574 254 678 240 661 l 240 525 b 157 372 240 435 228 386 l 157 369 b 240 217 228 357 240 307 l 240 161 b 315 56 240 74 254 56 l 343 56 "},"":{"ha":408,"x_min":0,"x_max":0,"o":"m 65 -11 l 65 56 l 93 56 b 168 161 154 56 168 74 l 168 217 b 251 369 168 307 179 357 l 251 372 b 168 525 181 386 168 435 l 168 574 b 93 678 168 661 154 678 l 65 678 l 65 744 l 113 744 b 257 581 219 744 257 713 l 257 521 b 339 400 257 449 271 400 l 339 343 b 257 221 271 343 257 293 l 257 153 b 113 -11 257 21 218 -11 "},"":{"ha":381,"x_min":0,"x_max":0,"o":"m 315 -11 l 104 -11 l 104 744 l 315 744 l 315 668 l 196 668 l 196 65 l 315 65 "},"":{"ha":381,"x_min":0,"x_max":0,"o":"m 276 -11 l 65 -11 l 65 65 l 185 65 l 185 668 l 65 668 l 65 744 l 276 744 "},"":{"ha":385,"x_min":0,"x_max":0,"o":"m 319 -11 l 299 -11 b 83 353 131 -11 83 35 l 83 381 b 299 744 83 699 131 744 l 319 744 l 319 664 l 301 664 b 176 376 204 664 176 636 l 176 357 b 301 69 176 97 204 69 l 319 69 "},"":{"ha":385,"x_min":0,"x_max":0,"o":"m 65 -11 l 65 69 l 83 69 b 208 357 181 69 208 97 l 208 376 b 83 664 208 636 181 664 l 65 664 l 65 744 l 86 744 b 301 381 254 744 301 699 l 301 353 b 86 -11 301 35 254 -11 "},"":{"ha":464,"x_min":0,"x_max":0,"o":"m 186 417 l 82 417 l 82 558 b 203 733 82 667 101 722 l 203 674 b 150 569 160 667 150 636 l 150 558 l 186 558 m 378 417 l 274 417 l 274 558 b 394 733 274 667 293 722 l 394 674 b 342 569 350 667 342 636 l 342 558 l 378 558 "},"":{"ha":464,"x_min":0,"x_max":0,"o":"m 190 592 b 69 417 190 483 171 428 l 69 476 b 122 582 114 483 122 515 l 122 592 l 86 592 l 86 733 l 190 733 m 382 592 b 261 417 382 483 363 428 l 261 476 b 314 582 306 483 314 515 l 314 592 l 278 592 l 278 733 l 382 733 "},"":{"ha":272,"x_min":0,"x_max":0,"o":"m 186 417 l 82 417 l 82 558 b 203 733 82 667 101 722 l 203 674 b 150 569 160 667 150 636 l 150 558 l 186 558 "},"":{"ha":272,"x_min":0,"x_max":0,"o":"m 190 592 b 69 417 190 483 171 428 l 69 476 b 122 582 114 483 122 515 l 122 592 l 86 592 l 86 733 l 190 733 "},"":{"ha":724,"x_min":0,"x_max":0,"o":"m 351 -8 b 71 332 115 -8 71 38 l 71 401 b 351 742 71 696 115 742 l 372 742 b 653 401 607 742 653 696 l 653 332 b 372 -8 653 38 607 -8 m 369 76 b 553 332 526 76 553 104 l 553 404 b 369 658 553 631 526 658 l 353 658 b 171 404 196 658 171 631 l 171 332 b 353 76 171 104 196 76 "},"":{"ha":486,"x_min":0,"x_max":0,"o":"m 347 0 l 246 0 l 246 631 l 243 631 l 75 439 l 15 496 l 224 733 l 347 733 "},"":{"ha":694,"x_min":0,"x_max":0,"o":"m 635 0 l 72 0 b 71 100 71 7 71 94 b 342 367 71 292 108 329 b 533 518 510 393 533 415 l 533 536 b 363 661 533 636 510 661 l 346 661 b 179 515 199 661 179 642 l 179 489 l 83 489 l 83 513 b 344 742 83 703 128 742 l 360 742 b 633 540 586 742 633 696 l 633 519 b 379 286 633 369 589 319 b 174 117 188 257 174 244 l 174 79 l 635 79 "},"":{"ha":710,"x_min":0,"x_max":0,"o":"m 644 193 b 357 -8 644 31 599 -8 l 335 -8 b 71 214 108 -8 71 29 l 71 243 l 167 243 l 167 215 b 335 74 167 92 188 74 l 353 74 b 543 201 521 74 543 93 l 543 219 b 419 336 543 315 518 336 l 268 336 l 268 414 l 414 414 b 529 521 507 414 529 436 l 529 542 b 354 661 529 642 508 661 l 339 661 b 175 522 196 661 175 643 l 175 493 l 81 493 l 81 522 b 338 742 81 703 121 742 l 356 742 b 631 549 593 742 631 704 l 631 526 b 551 379 631 432 611 397 l 551 376 b 644 214 614 361 644 326 "},"":{"ha":719,"x_min":0,"x_max":0,"o":"m 578 0 l 478 0 l 478 168 l 61 168 l 61 267 l 440 733 l 578 733 l 578 247 l 671 247 l 671 168 l 578 168 m 478 247 l 478 647 l 475 647 l 156 249 l 156 247 "},"":{"ha":703,"x_min":0,"x_max":0,"o":"m 643 219 b 354 -8 643 32 594 -8 l 329 -8 b 71 201 107 -8 71 35 l 71 226 l 167 226 l 167 208 b 339 74 167 93 186 74 l 358 74 b 542 224 519 74 542 97 l 542 250 b 369 404 542 382 521 404 l 347 404 b 175 342 233 404 193 396 l 81 342 l 81 733 l 624 733 l 624 654 l 176 654 l 176 426 l 178 426 b 375 485 201 467 235 485 l 401 485 b 643 261 603 485 643 439 "},"":{"ha":708,"x_min":0,"x_max":0,"o":"m 346 -8 b 71 264 106 -8 71 33 l 71 400 b 353 742 71 701 114 742 l 372 742 b 632 539 590 742 632 707 l 632 513 l 536 513 l 536 533 b 375 661 536 643 513 661 l 358 661 b 172 425 194 661 172 644 l 172 379 l 174 379 b 363 440 199 419 254 440 l 381 440 b 644 229 600 440 644 408 l 644 206 b 367 -8 644 35 600 -8 m 365 74 b 546 207 525 74 546 90 l 546 225 b 365 363 546 346 522 363 l 349 363 b 171 249 210 363 171 342 l 171 232 b 349 74 171 89 192 74 "},"":{"ha":664,"x_min":0,"x_max":0,"o":"m 258 0 l 146 0 l 504 647 l 504 651 l 47 651 l 47 733 l 618 733 l 618 657 "},"":{"ha":711,"x_min":0,"x_max":0,"o":"m 343 -8 b 67 185 108 -8 67 26 l 67 200 b 167 381 67 315 92 363 l 167 382 b 76 546 100 397 76 431 l 76 561 b 342 742 76 710 122 742 l 364 742 b 633 561 588 742 633 710 l 633 546 b 540 382 633 433 608 399 l 540 381 b 643 200 615 364 643 322 l 643 185 b 364 -8 643 28 600 -8 m 363 419 b 533 536 511 419 533 431 l 533 551 b 363 664 533 650 510 664 l 344 664 b 175 551 199 664 175 650 l 175 536 b 344 419 175 431 197 419 m 363 72 b 543 196 525 72 543 90 l 543 214 b 363 342 543 328 514 342 l 346 342 b 165 214 194 342 165 328 l 165 196 b 346 72 165 90 186 72 "},"":{"ha":708,"x_min":0,"x_max":0,"o":"m 333 -8 b 71 194 113 -8 71 28 l 71 221 l 165 221 l 165 200 b 332 74 165 90 190 74 l 347 74 b 538 308 515 74 538 90 l 538 356 l 535 356 b 346 293 510 314 454 293 l 328 293 b 64 504 106 293 64 332 l 64 529 b 340 742 64 699 110 742 l 363 742 b 638 469 603 742 638 700 l 638 333 b 354 -8 638 32 596 -8 m 358 371 b 538 485 499 371 538 393 l 538 503 b 358 661 538 644 515 661 l 342 661 b 163 528 185 661 163 644 l 163 510 b 342 371 163 390 182 371 "},"":{"ha":861,"x_min":0,"x_max":0,"o":"m 440 86 b 676 426 643 86 676 117 l 676 518 b 440 858 676 828 643 858 l 419 858 b 183 518 215 858 183 828 l 183 426 b 419 86 183 117 215 86 m 417 -8 b 74 432 131 -8 74 53 l 74 514 b 417 953 74 892 131 953 l 443 953 b 786 514 729 953 786 892 l 786 432 b 443 -8 786 53 729 -8 "},"":{"ha":861,"x_min":0,"x_max":0,"o":"m 525 0 l 413 0 l 413 838 l 410 838 l 199 621 l 135 690 l 388 944 l 525 944 "},"":{"ha":861,"x_min":0,"x_max":0,"o":"m 779 0 l 92 0 b 90 126 90 18 90 111 b 421 463 90 376 132 421 b 664 669 629 493 664 521 l 664 694 b 446 864 664 833 632 864 l 426 864 b 210 665 235 864 210 836 l 210 638 l 104 638 l 104 663 b 424 953 104 900 151 953 l 442 953 b 776 697 717 953 776 901 l 776 671 b 465 376 776 460 711 413 b 201 144 219 339 201 321 l 201 90 l 779 90 "},"":{"ha":861,"x_min":0,"x_max":0,"o":"m 783 243 b 428 -8 783 42 718 -8 l 400 -8 b 82 274 125 -8 82 38 l 82 306 l 188 306 l 188 272 b 403 83 188 106 211 83 l 426 83 b 671 251 638 83 671 107 l 671 279 b 511 438 671 408 638 438 l 329 438 l 329 525 l 503 525 b 654 672 624 525 654 553 l 654 700 b 428 863 654 833 624 863 l 410 863 b 197 674 228 863 197 842 l 197 640 l 93 640 l 93 674 b 407 953 93 903 140 953 l 429 953 b 765 707 707 953 765 906 l 765 682 b 650 485 765 547 736 507 l 650 482 b 783 272 738 464 783 426 "},"":{"ha":861,"x_min":0,"x_max":0,"o":"m 692 0 l 585 0 l 585 218 l 67 218 l 67 336 l 536 944 l 692 944 l 692 307 l 806 307 l 806 218 l 692 218 m 585 307 l 585 856 l 581 856 l 165 311 l 165 307 "},"":{"ha":861,"x_min":0,"x_max":0,"o":"m 406 -8 b 83 261 129 -8 83 36 l 83 283 l 188 283 l 188 264 b 414 83 188 104 218 83 l 438 83 b 671 288 644 83 671 117 l 671 317 b 447 529 671 499 647 529 l 419 529 b 201 446 267 529 224 517 l 97 446 l 97 944 l 758 944 l 758 856 l 201 856 l 201 543 l 203 543 b 450 621 232 600 286 621 l 481 621 b 783 335 732 621 783 565 l 783 286 b 436 -8 783 50 726 -8 "},"":{"ha":861,"x_min":0,"x_max":0,"o":"m 415 -8 b 81 339 124 -8 81 46 l 81 515 b 428 953 81 906 136 953 l 453 953 b 763 692 714 953 763 908 l 763 665 l 658 665 l 658 689 b 450 861 658 838 629 861 l 431 861 b 192 549 222 861 192 836 l 192 469 l 193 469 b 435 561 222 532 282 561 l 458 561 b 781 294 722 561 781 519 l 781 260 b 442 -8 781 44 722 -8 m 439 83 b 672 264 644 83 672 111 l 672 288 b 439 472 672 444 642 472 l 421 472 b 190 319 246 472 190 446 l 190 299 b 421 83 190 110 221 83 "},"":{"ha":861,"x_min":0,"x_max":0,"o":"m 340 0 l 215 0 l 661 847 l 661 851 l 90 851 l 90 944 l 786 944 l 786 857 "},"":{"ha":861,"x_min":0,"x_max":0,"o":"m 451 533 b 672 689 651 533 672 554 l 672 713 b 453 865 672 839 643 865 l 431 865 b 210 713 240 865 210 839 l 210 689 b 431 533 210 556 233 533 m 451 82 b 683 249 657 82 683 106 l 683 275 b 451 444 683 422 647 444 l 431 444 b 200 275 236 444 200 422 l 200 249 b 431 82 200 106 226 82 m 429 -8 b 90 232 147 -8 90 39 l 90 253 b 242 488 90 428 138 474 l 242 490 b 103 703 139 506 103 547 l 103 725 b 428 953 103 906 164 953 l 456 953 b 781 725 722 953 781 906 l 781 703 b 639 490 781 547 744 507 l 639 488 b 793 253 744 474 793 428 l 793 232 b 456 -8 793 39 736 -8 "},"":{"ha":861,"x_min":0,"x_max":0,"o":"m 406 -8 b 89 253 144 -8 89 40 l 89 279 l 193 279 l 193 256 b 408 83 193 111 229 83 l 426 83 b 668 396 636 83 668 108 l 668 475 l 667 475 b 425 383 638 413 578 383 l 401 383 b 79 650 139 383 79 426 l 79 685 b 418 953 79 900 138 953 l 444 953 b 779 606 735 953 779 897 l 779 429 b 429 -8 779 39 724 -8 m 439 472 b 669 628 615 472 669 500 l 669 649 b 439 863 669 836 640 863 l 422 863 b 188 682 217 863 188 835 l 188 660 b 422 472 188 500 218 472 "},"":{"ha":386,"x_min":0,"x_max":0,"o":"m 275 428 l 197 428 l 197 865 l 196 865 l 72 736 l 29 785 l 183 944 l 275 944 "},"":{"ha":526,"x_min":0,"x_max":0,"o":"m 479 428 l 58 428 l 58 501 b 261 688 58 636 92 665 b 400 789 385 703 400 719 l 400 804 b 269 889 400 872 383 889 l 260 889 b 138 796 154 889 138 871 l 138 774 l 65 774 l 65 797 b 260 949 65 918 99 949 l 271 949 b 476 806 442 949 476 919 l 476 792 b 279 626 476 681 444 647 b 133 511 147 610 133 599 l 133 489 l 479 489 "},"":{"ha":535,"x_min":0,"x_max":0,"o":"m 258 424 b 54 579 86 424 54 449 l 54 599 l 126 599 l 126 579 b 258 483 126 494 143 483 l 271 483 b 408 568 393 483 408 497 l 408 582 b 315 665 408 646 389 665 l 207 665 l 207 721 l 315 721 b 397 794 381 721 397 739 l 397 811 b 271 889 397 876 378 889 l 260 889 b 135 800 153 889 135 879 l 135 775 l 64 775 l 64 800 b 261 949 64 922 97 949 l 274 949 b 474 817 439 949 474 919 l 474 803 b 410 694 474 733 456 708 l 410 693 b 485 579 457 683 485 660 l 485 563 b 275 424 485 451 443 424 "},"":{"ha":543,"x_min":0,"x_max":0,"o":"m 438 428 l 361 428 l 361 543 l 44 543 l 44 617 l 329 944 l 438 944 l 438 601 l 503 601 l 503 543 l 438 543 m 361 601 l 361 885 l 358 885 l 117 603 l 117 601 "},"":{"ha":532,"x_min":0,"x_max":0,"o":"m 257 424 b 61 569 96 424 61 451 l 61 586 l 132 586 l 132 571 b 254 483 132 500 151 483 l 272 483 b 410 590 390 483 410 499 l 410 608 b 285 714 410 697 392 714 l 267 714 b 140 674 174 714 154 706 l 68 674 l 68 944 l 472 944 l 472 883 l 142 883 l 142 731 l 143 731 b 286 772 161 760 193 772 l 303 772 b 483 613 449 772 483 739 l 483 590 b 274 424 483 454 438 424 "},"":{"ha":533,"x_min":0,"x_max":0,"o":"m 278 483 b 408 576 393 483 408 497 l 408 590 b 276 681 408 667 392 681 l 263 681 b 132 600 158 681 132 668 l 132 585 b 264 483 132 499 149 483 m 261 424 b 57 608 88 424 57 457 l 57 724 b 267 949 57 914 96 949 l 283 949 b 472 804 435 949 472 921 l 472 789 l 401 789 l 401 804 b 281 890 401 875 379 890 l 267 890 b 132 736 154 890 132 872 l 132 694 l 133 694 b 272 739 149 722 182 739 l 289 739 b 482 597 444 739 482 711 l 482 576 b 279 424 482 453 442 424 "},"":{"ha":508,"x_min":0,"x_max":0,"o":"m 200 428 l 115 428 l 374 881 l 374 882 l 44 882 l 44 944 l 461 944 l 461 888 "},"":{"ha":533,"x_min":0,"x_max":0,"o":"m 256 424 b 54 558 89 424 54 450 l 54 571 b 131 694 54 656 79 683 l 131 696 b 60 808 81 707 60 732 l 60 824 b 254 949 60 921 96 949 l 275 949 b 471 824 433 949 471 921 l 471 808 b 399 696 471 732 450 707 l 399 694 b 476 571 451 683 476 656 l 476 558 b 275 424 476 450 442 424 m 274 724 b 397 803 381 724 397 736 l 397 815 b 274 892 397 878 381 892 l 256 892 b 133 815 150 892 133 878 l 133 803 b 256 724 133 736 150 724 m 274 482 b 403 565 389 482 403 496 l 403 579 b 274 667 403 654 386 667 l 256 667 b 128 579 144 667 128 654 l 128 565 b 256 482 128 496 142 482 "},"":{"ha":538,"x_min":0,"x_max":0,"o":"m 275 692 b 406 772 379 692 406 704 l 406 788 b 274 890 406 874 388 890 l 258 890 b 129 799 147 890 129 875 l 129 785 b 261 692 129 707 147 692 m 253 424 b 60 568 97 424 60 450 l 60 583 l 132 583 l 132 568 b 256 483 132 499 150 483 l 268 483 b 406 636 389 483 406 499 l 406 678 l 404 678 b 265 633 389 650 356 633 l 249 633 b 54 781 92 633 54 661 l 54 800 b 258 949 54 919 96 949 l 275 949 b 479 764 449 949 479 915 l 479 649 b 269 424 479 457 446 424 "},"":{"ha":543,"x_min":0,"x_max":0,"o":"m 279 485 b 414 664 394 485 414 511 l 414 708 b 279 889 414 861 393 889 l 264 889 b 129 708 149 889 129 861 l 129 664 b 264 485 129 511 149 485 m 263 424 b 56 667 89 424 56 471 l 56 708 b 263 949 56 899 89 949 l 279 949 b 488 708 457 949 488 899 l 488 667 b 279 424 488 472 456 424 "},"":{"ha":383,"x_min":0,"x_max":0,"o":"m 275 0 l 197 0 l 197 438 l 196 438 l 72 308 l 29 357 l 183 517 l 275 517 "},"":{"ha":526,"x_min":0,"x_max":0,"o":"m 479 0 l 58 0 l 58 74 b 261 260 58 208 92 238 b 400 361 385 275 400 292 l 400 376 b 269 461 400 444 383 461 l 260 461 b 138 368 154 461 138 443 l 138 346 l 65 346 l 65 369 b 260 521 65 490 99 521 l 271 521 b 476 378 442 521 476 492 l 476 364 b 279 199 476 253 444 219 b 133 83 147 182 133 171 l 133 61 l 479 61 "},"":{"ha":535,"x_min":0,"x_max":0,"o":"m 258 -4 b 54 151 86 -4 54 21 l 54 171 l 126 171 l 126 151 b 258 56 126 67 143 56 l 271 56 b 408 140 393 56 408 69 l 408 154 b 315 238 408 218 389 238 l 207 238 l 207 293 l 315 293 b 397 367 381 293 397 311 l 397 383 b 271 461 397 449 378 461 l 260 461 b 135 372 153 461 135 451 l 135 347 l 64 347 l 64 372 b 261 521 64 494 97 521 l 274 521 b 474 389 439 521 474 492 l 474 375 b 410 267 474 306 456 281 l 410 265 b 485 151 457 256 485 232 l 485 135 b 275 -4 485 24 443 -4 "},"":{"ha":543,"x_min":0,"x_max":0,"o":"m 438 0 l 361 0 l 361 115 l 44 115 l 44 189 l 329 517 l 438 517 l 438 174 l 503 174 l 503 115 l 438 115 m 361 174 l 361 457 l 358 457 l 117 175 l 117 174 "},"":{"ha":532,"x_min":0,"x_max":0,"o":"m 257 -4 b 61 142 96 -4 61 24 l 61 158 l 132 158 l 132 143 b 254 56 132 72 151 56 l 272 56 b 410 163 390 56 410 71 l 410 181 b 285 286 410 269 392 286 l 267 286 b 140 246 174 286 154 278 l 68 246 l 68 517 l 472 517 l 472 456 l 142 456 l 142 303 l 143 303 b 286 344 161 332 193 344 l 303 344 b 483 185 449 344 483 311 l 483 163 b 274 -4 483 26 438 -4 "},"":{"ha":533,"x_min":0,"x_max":0,"o":"m 278 56 b 408 149 393 56 408 69 l 408 163 b 276 253 408 239 392 253 l 263 253 b 132 172 158 253 132 240 l 132 157 b 264 56 132 71 149 56 m 261 -4 b 57 181 88 -4 57 29 l 57 296 b 267 521 57 486 96 521 l 283 521 b 472 376 435 521 472 493 l 472 361 l 401 361 l 401 376 b 281 463 401 447 379 463 l 267 463 b 132 308 154 463 132 444 l 132 267 l 133 267 b 272 311 149 294 182 311 l 289 311 b 482 169 444 311 482 283 l 482 149 b 279 -4 482 25 442 -4 "},"":{"ha":508,"x_min":0,"x_max":0,"o":"m 200 0 l 115 0 l 374 453 l 374 454 l 44 454 l 44 517 l 461 517 l 461 460 "},"":{"ha":533,"x_min":0,"x_max":0,"o":"m 256 -4 b 54 131 89 -4 54 22 l 54 143 b 131 267 54 228 79 256 l 131 268 b 60 381 81 279 60 304 l 60 396 b 254 521 60 493 96 521 l 275 521 b 471 396 433 521 471 493 l 471 381 b 399 268 471 304 450 279 l 399 267 b 476 143 451 256 476 228 l 476 131 b 275 -4 476 22 442 -4 m 274 296 b 397 375 381 296 397 308 l 397 388 b 274 464 397 450 381 464 l 256 464 b 133 388 150 464 133 450 l 133 375 b 256 296 133 308 150 296 m 274 54 b 403 138 389 54 403 68 l 403 151 b 274 239 403 226 386 239 l 256 239 b 128 151 144 239 128 226 l 128 138 b 256 54 128 68 142 54 "},"":{"ha":538,"x_min":0,"x_max":0,"o":"m 275 264 b 406 344 379 264 406 276 l 406 360 b 274 463 406 446 388 463 l 258 463 b 129 371 147 463 129 447 l 129 357 b 261 264 129 279 147 264 m 253 -4 b 60 140 97 -4 60 22 l 60 156 l 132 156 l 132 140 b 256 56 132 71 150 56 l 268 56 b 406 208 389 56 406 71 l 406 250 l 404 250 b 265 206 389 222 356 206 l 249 206 b 54 353 92 206 54 233 l 54 372 b 258 521 54 492 96 521 l 275 521 b 479 336 449 521 479 488 l 479 221 b 269 -4 479 29 446 -4 "},"":{"ha":543,"x_min":0,"x_max":0,"o":"m 279 57 b 414 236 394 57 414 83 l 414 281 b 279 461 414 433 393 461 l 264 461 b 129 281 149 461 129 433 l 129 236 b 264 57 129 83 149 57 m 263 -4 b 56 239 89 -4 56 43 l 56 281 b 263 521 56 471 89 521 l 279 521 b 488 281 457 521 488 471 l 488 239 b 279 -4 488 44 456 -4 "},"":{"ha":861,"x_min":0,"x_max":0,"o":"m 461 -112 l 406 -112 l 406 -8 b 79 253 119 -7 79 36 l 79 296 l 186 296 l 186 263 b 406 83 186 108 211 85 l 406 439 b 90 682 144 461 90 508 l 90 704 b 406 953 90 899 161 953 l 406 1042 l 461 1042 l 461 953 b 765 693 717 949 765 896 l 765 663 l 660 663 l 660 689 b 461 864 660 831 626 861 l 461 531 b 788 279 733 506 788 458 l 788 257 b 461 -8 788 42 725 -7 m 461 83 b 681 251 646 85 681 108 l 681 275 b 461 431 681 388 653 415 m 197 682 b 406 538 197 582 221 551 l 406 864 b 197 703 232 863 197 833 "},"":{"ha":861,"x_min":0,"x_max":0,"o":"m 813 235 b 494 -8 813 53 758 -8 l 476 -8 b 121 374 181 -8 125 51 l 31 374 l 31 428 l 121 428 l 121 535 l 31 535 l 31 589 l 121 589 b 475 953 126 894 189 953 l 497 953 b 803 717 751 953 803 894 l 803 697 l 694 697 l 694 718 b 497 863 694 825 664 863 l 478 863 b 236 589 279 863 240 840 l 629 589 l 629 535 l 236 535 l 236 428 l 629 428 l 629 374 l 236 374 b 478 85 240 110 275 85 l 496 85 b 704 239 675 85 704 122 l 704 260 l 813 260 "},"":{"ha":861,"x_min":0,"x_max":0,"o":"m 789 0 l 78 0 l 78 93 b 183 404 160 118 181 165 l 69 404 l 69 486 l 183 486 l 183 526 b 474 953 185 897 229 953 l 499 953 b 769 704 714 953 769 913 l 769 683 l 665 683 l 665 703 b 497 865 665 838 639 865 l 478 865 b 289 536 311 865 289 836 l 289 486 l 601 486 l 601 404 l 288 404 b 183 94 283 169 254 126 l 183 90 l 789 90 "},"":{"ha":861,"x_min":0,"x_max":0,"o":"m 488 0 l 372 0 l 372 293 l 100 293 l 100 354 l 372 354 l 372 365 l 293 510 l 100 510 l 100 571 l 260 571 l 51 944 l 174 944 l 432 439 l 433 439 l 692 944 l 810 944 l 600 571 l 761 571 l 761 510 l 567 510 l 488 365 l 488 354 l 761 354 l 761 293 l 488 293 "},"":{"ha":531,"x_min":0,"x_max":0,"o":"m 350 1029 l 104 1139 l 146 1214 l 375 1072 "},"":{"ha":531,"x_min":0,"x_max":0,"o":"m 428 1140 l 182 1031 l 156 1074 l 385 1215 "},"":{"ha":531,"x_min":0,"x_max":0,"o":"m 411 1036 l 267 1138 l 124 1036 l 85 1078 l 267 1225 l 450 1078 "},"":{"ha":531,"x_min":0,"x_max":0,"o":"m 267 1017 l 85 1163 l 124 1204 l 267 1103 l 411 1204 l 450 1163 "},"":{"ha":531,"x_min":0,"x_max":0,"o":"m 443 1181 b 343 1054 436 1099 406 1054 b 258 1089 310 1054 285 1069 b 193 1117 232 1107 214 1117 b 139 1053 167 1117 147 1103 l 92 1064 b 190 1188 97 1143 131 1188 b 272 1157 221 1188 246 1175 b 342 1126 300 1138 321 1126 b 394 1190 372 1126 389 1144 "},"":{"ha":531,"x_min":0,"x_max":0,"o":"m 200 1054 l 104 1054 l 104 1176 l 200 1176 m 429 1054 l 333 1054 l 333 1176 l 429 1176 "},"":{"ha":531,"x_min":0,"x_max":0,"o":"m 422 1081 l 117 1081 l 117 1153 l 422 1153 "},"":{"ha":531,"x_min":0,"x_max":0,"o":"m 444 1190 b 269 1028 440 1076 375 1028 b 93 1190 161 1028 97 1076 l 154 1190 b 269 1097 164 1117 204 1097 b 385 1190 336 1097 375 1115 "},"":{"ha":531,"x_min":0,"x_max":0,"o":"m 265 1008 b 128 1113 163 1008 128 1038 l 128 1121 b 265 1225 128 1196 163 1225 l 274 1225 b 411 1121 376 1225 411 1196 l 411 1113 b 274 1008 411 1038 376 1008 m 274 1051 b 358 1114 338 1051 358 1067 l 358 1122 b 274 1183 358 1169 338 1183 l 265 1183 b 181 1122 200 1183 181 1169 l 181 1114 b 265 1051 181 1067 200 1051 "},"":{"ha":531,"x_min":0,"x_max":0,"o":"m 128 1014 l 96 1053 l 267 1228 l 317 1172 m 319 1013 l 288 1051 l 460 1226 l 510 1172 "},"":{"ha":531,"x_min":0,"x_max":0,"o":"m 318 1054 l 211 1054 l 211 1176 l 318 1176 "},"":{"ha":531,"x_min":0,"x_max":0,"o":"m 318 843 b 219 694 318 736 292 701 l 219 743 b 256 831 247 750 256 763 l 256 840 l 225 840 l 225 944 l 318 944 "},"":{"ha":531,"x_min":0,"x_max":0,"o":"m 307 -174 b 193 -310 307 -271 285 -304 l 193 -265 b 244 -181 235 -260 244 -246 l 244 -172 l 214 -172 l 214 -68 l 307 -68 "},"":{"ha":535,"x_min":0,"x_max":0,"o":"m 307 758 l 214 758 l 214 864 b 328 1000 214 961 236 994 l 328 956 b 276 871 286 950 276 936 l 276 863 l 307 863 "},"":{"ha":531,"x_min":0,"x_max":0,"o":"m 344 813 l 125 967 l 178 1035 l 376 853 "},"":{"ha":531,"x_min":0,"x_max":0,"o":"m 193 814 l 161 854 l 360 1036 l 414 968 "},"":{"ha":531,"x_min":0,"x_max":0,"o":"m 406 829 l 267 946 l 129 829 l 89 871 l 267 1033 l 446 871 "},"":{"ha":531,"x_min":0,"x_max":0,"o":"m 268 813 l 89 975 l 128 1015 l 268 900 l 407 1014 l 446 975 "},"":{"ha":531,"x_min":0,"x_max":0,"o":"m 443 979 b 343 853 436 897 406 853 b 258 888 310 853 285 868 b 193 915 232 906 214 915 b 139 851 167 915 147 901 l 92 863 b 190 986 97 942 131 986 b 272 956 221 986 246 974 b 342 925 300 936 321 925 b 394 989 372 925 389 943 "},"":{"ha":531,"x_min":0,"x_max":0,"o":"m 200 865 l 104 865 l 104 988 l 200 988 m 426 865 l 331 865 l 331 988 l 426 988 "},"":{"ha":531,"x_min":0,"x_max":0,"o":"m 424 890 l 118 890 l 118 963 l 424 963 "},"":{"ha":531,"x_min":0,"x_max":0,"o":"m 447 996 b 272 833 443 882 378 833 b 96 996 164 833 100 882 l 157 996 b 272 903 167 922 207 903 b 388 996 339 903 378 921 "},"":{"ha":531,"x_min":0,"x_max":0,"o":"m 265 818 b 128 922 163 818 128 847 l 128 931 b 265 1035 128 1006 163 1035 l 274 1035 b 411 931 376 1035 411 1006 l 411 922 b 274 818 411 847 376 818 m 274 861 b 358 924 338 861 358 876 l 358 932 b 274 993 358 979 338 993 l 265 993 b 181 932 200 993 181 979 l 181 924 b 265 861 181 876 200 861 "},"":{"ha":531,"x_min":0,"x_max":0,"o":"m 313 990 l 133 819 l 99 857 l 258 1042 m 501 989 l 319 818 l 285 856 l 447 1040 "},"":{"ha":531,"x_min":0,"x_max":0,"o":"m 318 865 l 211 865 l 211 988 l 318 988 "},"":{"ha":861,"x_min":0,"x_max":0,"o":"m 464 -53 l 408 -53 l 408 114 b 133 431 204 115 133 183 l 133 482 b 408 797 133 732 203 796 l 408 944 l 464 944 l 464 797 b 725 579 661 797 725 742 l 725 557 l 629 557 l 629 574 b 464 714 629 674 593 714 l 464 200 b 632 346 600 200 632 238 l 632 363 l 728 363 l 728 339 b 464 114 728 175 661 114 m 236 429 b 408 200 236 244 279 201 l 408 714 b 236 483 276 713 236 669 "},"":{"ha":674,"x_min":0,"x_max":0,"o":"m 292 154 l 292 242 l 365 242 l 365 154 m 293 308 l 293 331 b 372 513 293 424 308 457 b 436 624 428 568 436 592 b 336 735 436 686 390 735 b 229 610 283 735 239 700 l 163 621 b 340 801 175 747 246 801 b 504 629 436 801 504 733 b 421 472 504 572 488 533 b 357 332 358 415 357 403 l 357 308 m 608 65 l 608 878 l 65 878 l 65 65 m 674 944 l 674 0 l 0 0 l 0 944 "},"ﬁ":{"ha":654,"x_min":0,"x_max":0,"o":"m 219 0 l 113 0 l 113 588 l 28 588 l 28 667 l 113 667 l 113 728 b 310 951 113 903 164 951 b 404 946 342 951 374 950 l 404 867 b 335 871 382 869 357 871 b 219 722 242 871 219 849 l 219 667 l 375 667 l 375 588 l 219 588 m 564 0 l 457 0 l 457 667 l 564 667 m 564 822 l 457 822 l 457 944 l 564 944 "},"ﬂ":{"ha":654,"x_min":0,"x_max":0,"o":"m 219 0 l 113 0 l 113 588 l 28 588 l 28 667 l 113 667 l 113 728 b 310 951 113 903 164 951 b 404 946 342 951 374 950 l 404 867 b 335 871 382 869 357 871 b 219 722 242 871 219 849 l 219 667 l 375 667 l 375 588 l 219 588 m 564 0 l 457 0 l 457 944 l 564 944 "}}}
